<svg width="25" height="24" viewBox="0 0 25 24" fill="none" xmlns="http://www.w3.org/2000/svg">
<path d="M9.81656 18.6774C9.81656 20.7118 8.16731 22.361 6.13289 22.361C4.09847 22.361 2.44922 20.7118 2.44922 18.6774C2.44922 17.655 3.27802 16.8262 4.30041 16.8262H7.96542C8.98777 16.8261 9.81656 17.655 9.81656 18.6774Z" fill="#6ACDF3"/>
<path d="M9.81656 18.6774C9.81656 20.7118 8.16731 22.361 6.13289 22.361C4.09847 22.361 2.44922 20.7118 2.44922 18.6774C2.44922 17.655 3.27802 16.8262 4.30041 16.8262H7.96542C8.98777 16.8261 9.81656 17.655 9.81656 18.6774Z" fill="url(#paint0_linear_2001_212)"/>
<path opacity="0.4" d="M6.77189 22.3057C6.56489 22.3443 6.3518 22.3625 6.13261 22.3625C5.11589 22.3625 4.19452 21.9505 3.52889 21.2828C2.8612 20.6171 2.44922 19.6958 2.44922 18.679C2.44922 18.1676 2.65622 17.7049 2.99105 17.3701C3.32592 17.0332 3.78863 16.8262 4.30003 16.8262H5.57855C5.06714 16.8262 4.60444 17.0332 4.26956 17.3701C3.93473 17.7049 3.72773 18.1676 3.72773 18.679C3.72773 19.6958 4.13972 20.6171 4.80736 21.2828C5.331 21.8065 6.01088 22.1738 6.77189 22.3057Z" fill="white"/>
<path d="M6.51463 17.7008C7.8257 17.4883 8.71623 16.2532 8.5037 14.9421C8.29116 13.6311 7.05605 12.7405 5.74498 12.9531C4.43392 13.1656 3.54339 14.4007 3.75592 15.7118C3.96845 17.0228 5.20357 17.9134 6.51463 17.7008Z" fill="#FFFCFF"/>
<path d="M22.3713 18.6774C22.3713 20.7118 20.722 22.361 18.6876 22.361C16.6531 22.361 15.0039 20.7118 15.0039 18.6774C15.0039 17.655 15.8327 16.8262 16.8551 16.8262H20.5201C21.5425 16.8261 22.3713 17.655 22.3713 18.6774Z" fill="#6ACDF3"/>
<path d="M22.3713 18.6774C22.3713 20.7118 20.722 22.361 18.6876 22.361C16.6531 22.361 15.0039 20.7118 15.0039 18.6774C15.0039 17.655 15.8327 16.8262 16.8551 16.8262H20.5201C21.5425 16.8261 22.3713 17.655 22.3713 18.6774Z" fill="url(#paint1_linear_2001_212)"/>
<path opacity="0.4" d="M19.3266 22.3057C19.1196 22.3443 18.9065 22.3625 18.6873 22.3625C17.6706 22.3625 16.7492 21.9505 16.0836 21.2828C15.4159 20.6171 15.0039 19.6958 15.0039 18.679C15.0039 18.1676 15.2109 17.7049 15.5457 17.3701C15.8806 17.0332 16.3433 16.8262 16.8547 16.8262H18.1332C17.6218 16.8262 17.1591 17.0332 16.8242 17.3701C16.4894 17.7049 16.2824 18.1676 16.2824 18.679C16.2824 19.6958 16.6944 20.6171 17.362 21.2828C17.8857 21.8065 18.5656 22.1738 19.3266 22.3057Z" fill="white"/>
<path d="M19.0654 17.7038C20.3765 17.4912 21.267 16.2561 21.0545 14.9451C20.8419 13.634 19.6068 12.7435 18.2958 12.956C16.9847 13.1685 16.0942 14.4036 16.3067 15.7147C16.5192 17.0258 17.7544 17.9163 19.0654 17.7038Z" fill="#FFFCFF"/>
<path d="M16.5316 19.366C16.5316 21.6432 14.6856 23.4892 12.4084 23.4892C10.1312 23.4892 8.28516 21.6432 8.28516 19.366C8.28516 18.2216 9.21286 17.2939 10.3572 17.2939H14.4595C15.6039 17.2939 16.5316 18.2216 16.5316 19.366Z" fill="url(#paint2_linear_2001_212)"/>
<path opacity="0.4" d="M13.1236 23.4252C12.8919 23.4684 12.6533 23.4888 12.408 23.4888C11.27 23.4888 10.2387 23.0277 9.49364 22.2803C8.74631 21.5353 8.28516 20.504 8.28516 19.3659C8.28516 18.7935 8.51686 18.2756 8.89163 17.9008C9.26648 17.5237 9.78436 17.292 10.3568 17.292H11.7878C11.2155 17.292 10.6975 17.5237 10.3227 17.9008C9.94795 18.2756 9.71625 18.7935 9.71625 19.3659C9.71625 20.504 10.1774 21.5353 10.9247 22.2803C11.5108 22.8664 12.2718 23.2776 13.1236 23.4252Z" fill="white"/>
<path d="M14.2182 21.9685C14.1491 21.9685 14.0806 21.9374 14.0354 21.8781C13.9584 21.7772 13.9778 21.6331 14.0787 21.5561C14.7696 21.0288 15.1659 20.23 15.1659 19.3645C15.1659 19.2377 15.2688 19.1348 15.3957 19.1348C15.5226 19.1348 15.6255 19.2377 15.6255 19.3645C15.6255 20.3746 15.1633 21.3064 14.3574 21.9214C14.3158 21.9531 14.2669 21.9685 14.2182 21.9685Z" fill="white"/>
<path d="M12.835 18.2732C14.3025 18.0353 15.2993 16.6528 15.0614 15.1853C14.8235 13.7178 13.441 12.721 11.9735 12.9589C10.506 13.1968 9.50926 14.5793 9.74715 16.0468C9.98504 17.5143 11.3675 18.5111 12.835 18.2732Z" fill="#FFFCFF"/>
<path d="M20.7837 1.98346V9.19682C20.7837 10.0117 20.1236 10.6718 19.3087 10.6718H16.9665L15.9786 12.3381L14.9907 10.6718H9.8282L8.84031 12.3381L7.85242 10.6718H5.51017C4.6953 10.6718 4.03516 10.0117 4.03516 9.19682V1.98346C4.03516 1.17084 4.69525 0.510742 5.51017 0.510742H19.3087C20.1236 0.510742 20.7837 1.17084 20.7837 1.98346Z" fill="url(#paint3_linear_2001_212)"/>
<path opacity="0.4" d="M6.3812 1.9836V9.19635C6.3812 10.0098 7.03839 10.6692 7.85181 10.6715H5.50806C4.69464 10.6715 4.03516 10.012 4.03516 9.19635V1.9836C4.03516 1.17018 4.69464 0.510742 5.50806 0.510742H7.85641C7.04064 0.510742 6.3812 1.17018 6.3812 1.9836Z" fill="url(#paint4_linear_2001_212)"/>
<path d="M9.10628 5.91272C9.28168 5.17069 8.82234 4.42697 8.08031 4.25157C7.33828 4.07616 6.59456 4.53551 6.41916 5.27753C6.24375 6.01956 6.7031 6.76329 7.44512 6.93869C8.18715 7.11409 8.93088 6.65475 9.10628 5.91272Z" fill="#FFFCFF"/>
<path d="M13.7547 5.91272C13.9301 5.17069 13.4708 4.42697 12.7287 4.25157C11.9867 4.07616 11.243 4.53551 11.0676 5.27753C10.8922 6.01956 11.3515 6.76329 12.0936 6.93869C12.8356 7.11409 13.5793 6.65475 13.7547 5.91272Z" fill="#FFFCFF"/>
<path d="M18.4032 5.91467C18.5786 5.17265 18.1192 4.42892 17.3772 4.25352C16.6352 4.07812 15.8914 4.53746 15.716 5.27949C15.5406 6.02151 16 6.76524 16.742 6.94064C17.484 7.11604 18.2278 6.6567 18.4032 5.91467Z" fill="#FFFCFF"/>
<path d="M5.18291 3.27713C5.05602 3.27713 4.95312 3.17423 4.95312 3.04734V1.98328C4.95312 1.67798 5.20255 1.42969 5.50906 1.42969H8.28144C8.40833 1.42969 8.51122 1.53258 8.51122 1.65947C8.51122 1.78636 8.40833 1.88925 8.28144 1.88925H5.50906C5.45586 1.88925 5.41269 1.93144 5.41269 1.98328V3.04734C5.41269 3.17423 5.3098 3.27713 5.18291 3.27713Z" fill="white"/>
<path d="M20.9642 16.6474C21.1901 16.2589 21.3217 15.8092 21.3217 15.3283C21.3217 13.8754 20.1397 12.6934 18.6867 12.6934C17.2338 12.6934 16.0518 13.8754 16.0518 15.3283C16.0518 15.8094 16.1835 16.2594 16.4096 16.648C15.9971 16.7386 15.6316 16.9525 15.3503 17.2483C15.2109 17.1897 15.0647 17.1447 14.9129 17.1143C15.1767 16.6753 15.3313 16.1637 15.3313 15.6153C15.3313 14.0042 14.0205 12.6934 12.4094 12.6934C10.7982 12.6934 9.48742 14.0042 9.48742 15.6153C9.48742 16.1623 9.64131 16.6729 9.904 17.1111C9.75161 17.1418 9.60517 17.1882 9.4652 17.2474C9.18395 16.953 8.8188 16.7416 8.40695 16.6516C8.63439 16.2622 8.767 15.8109 8.767 15.3283C8.767 13.8754 7.585 12.6934 6.13206 12.6934C4.67912 12.6934 3.49722 13.8754 3.49722 15.3283C3.49722 15.8094 3.62894 16.2593 3.85502 16.6479C2.92084 16.8523 2.21875 17.6844 2.21875 18.679C2.21875 20.8369 3.97431 22.5926 6.13216 22.5926C7.11386 22.5926 8.0095 22.2265 8.69687 21.6269C9.46225 22.8787 10.8378 23.7188 12.4095 23.7188C13.9823 23.7188 15.3587 22.8775 16.1237 21.6241C16.8109 22.2242 17.7048 22.5926 18.6868 22.5926C20.8447 22.5926 22.6003 20.837 22.6003 18.6791C22.6003 17.6844 21.8985 16.8516 20.9642 16.6474ZM18.6868 13.153C19.8863 13.153 20.8622 14.1289 20.8622 15.3283C20.8622 16.5278 19.8863 17.5037 18.6868 17.5037C17.4873 17.5037 16.5114 16.5278 16.5114 15.3283C16.5114 14.1289 17.4872 13.153 18.6868 13.153ZM12.4095 13.153C13.7673 13.153 14.8719 14.2575 14.8719 15.6154C14.8719 16.9732 13.7673 18.0778 12.4095 18.0778C11.0516 18.0778 9.94708 16.9732 9.94708 15.6154C9.94708 14.2575 11.0516 13.153 12.4095 13.153ZM6.13216 13.153C7.33164 13.153 8.30753 14.1289 8.30753 15.3283C8.30753 16.5278 7.33164 17.5037 6.13216 17.5037C4.93267 17.5037 3.95678 16.5278 3.95678 15.3283C3.95678 14.1289 4.93267 13.153 6.13216 13.153ZM6.13216 22.133C4.22772 22.133 2.67827 20.5835 2.67827 18.679C2.67827 17.833 3.33058 17.1401 4.15806 17.0677C4.64125 17.6154 5.34602 17.9633 6.13211 17.9633C6.91914 17.9633 7.62466 17.6147 8.10789 17.0659C8.46841 17.0977 8.79423 17.248 9.04839 17.4776C8.45012 17.8934 8.05637 18.5834 8.05637 19.3657C8.05637 20.0255 8.2082 20.649 8.47201 21.2098C7.85636 21.7806 7.036 22.133 6.13216 22.133ZM12.4095 23.2592C10.2626 23.2592 8.51603 21.5126 8.51603 19.3657C8.51603 18.4 9.26387 17.6091 10.2104 17.5331C10.7464 18.147 11.5324 18.5373 12.4095 18.5373C13.2875 18.5373 14.0744 18.1461 14.6105 17.531C15.5563 17.6077 16.303 18.4005 16.303 19.3657C16.3029 21.5126 14.5563 23.2592 12.4095 23.2592ZM18.6868 22.133C17.7826 22.133 16.963 21.7795 16.3476 21.2082C16.6109 20.6478 16.7625 20.0248 16.7625 19.3657C16.7625 18.5833 16.3689 17.8931 15.7704 17.4779C16.0243 17.2481 16.3501 17.0973 16.7104 17.0652C17.1936 17.6144 17.8994 17.9633 18.6867 17.9633C19.4742 17.9633 20.1801 17.6143 20.6634 17.0649C21.49 17.1382 22.1407 17.8336 22.1407 18.679C22.1407 20.5835 20.5913 22.133 18.6868 22.133Z" fill="#EC4A24"/>
<defs>
<linearGradient id="paint0_linear_2001_212" x1="3.15219" y1="16.5559" x2="8.68354" y2="22.5396" gradientUnits="userSpaceOnUse">
<stop stop-color="#FFD394"/>
<stop offset="1" stop-color="#FFB357"/>
</linearGradient>
<linearGradient id="paint1_linear_2001_212" x1="15.7069" y1="16.5559" x2="21.2382" y2="22.5396" gradientUnits="userSpaceOnUse">
<stop stop-color="#FFD394"/>
<stop offset="1" stop-color="#FFB357"/>
</linearGradient>
<linearGradient id="paint2_linear_2001_212" x1="9.072" y1="16.9914" x2="15.2634" y2="23.6891" gradientUnits="userSpaceOnUse">
<stop stop-color="#FFD394"/>
<stop offset="1" stop-color="#FFB357"/>
</linearGradient>
<linearGradient id="paint3_linear_2001_212" x1="5.63325" y1="-0.0668788" x2="17.3735" y2="13.4447" gradientUnits="userSpaceOnUse">
<stop stop-color="#FFD394"/>
<stop offset="1" stop-color="#FFB357"/>
</linearGradient>
<linearGradient id="paint4_linear_2001_212" x1="4.39977" y1="0.0145119" x2="10.0942" y2="1.75499" gradientUnits="userSpaceOnUse">
<stop stop-color="#FFD394"/>
<stop offset="1" stop-color="#FFB357"/>
</linearGradient>
</defs>
</svg>
