<svg width="131" height="150" viewBox="0 0 131 150" fill="none" xmlns="http://www.w3.org/2000/svg">
<path d="M56.0824 148.814H39.8323C34.5315 148.814 30.2188 144.501 30.2188 139.2V111.808C30.2188 110.842 31.0012 110.06 31.9668 110.06C32.9323 110.06 33.7148 110.842 33.7148 111.808V139.2C33.7148 142.573 36.4591 145.318 39.8323 145.318H56.0824C59.4556 145.318 62.1999 142.573 62.1999 139.2V122.797C62.1999 117.496 66.5127 113.184 71.8134 113.184H127.377C128.342 113.184 129.125 113.966 129.125 114.932C129.125 115.897 128.342 116.68 127.377 116.68H71.8134C68.4402 116.68 65.6959 119.424 65.6959 122.797V139.2C65.6959 144.501 61.3832 148.814 56.0824 148.814Z" fill="url(#paint0_linear_2001_11625)"/>
<path d="M56.076 150.001H39.8259C33.8737 150.001 29.0312 145.159 29.0312 139.206V111.813C29.0312 110.199 30.3452 108.885 31.9604 108.885C33.5755 108.885 34.8889 110.199 34.8889 111.813V139.206C34.8889 141.928 37.1035 144.142 39.8253 144.142H56.0754C58.7973 144.142 61.0118 141.928 61.0118 139.206V122.803C61.0118 116.851 65.8543 112.009 71.8059 112.009H127.369C128.985 112.009 130.298 113.323 130.298 114.938C130.298 116.554 128.985 117.868 127.369 117.868H71.8059C69.084 117.868 66.87 120.082 66.87 122.803V139.206C66.8706 145.159 62.0281 150.001 56.076 150.001ZM31.9604 111.247C31.648 111.247 31.3934 111.501 31.3934 111.813V139.206C31.3934 143.856 35.1759 147.638 39.8259 147.638H56.076C60.726 147.638 64.5084 143.856 64.5084 139.206V122.803C64.5084 118.779 67.7824 115.505 71.807 115.505H127.371C127.683 115.505 127.937 115.251 127.937 114.938C127.937 114.626 127.683 114.372 127.371 114.372H71.807C67.1576 114.372 63.3752 118.154 63.3752 122.803V139.206C63.3752 143.23 60.1012 146.504 56.0766 146.504H39.8259C35.8013 146.504 32.5273 143.23 32.5273 139.206V111.813C32.5273 111.501 32.2728 111.247 31.9604 111.247Z" fill="url(#paint1_linear_2001_11625)"/>
<path d="M34.6674 133.407H29.1806C28.1082 133.407 27.2383 132.538 27.2383 131.465V121.854C27.2383 120.782 28.1076 119.912 29.1806 119.912H34.6674C35.7398 119.912 36.6097 120.781 36.6097 121.854V131.465C36.6097 132.538 35.7398 133.407 34.6674 133.407Z" fill="url(#paint2_linear_2001_11625)"/>
<path d="M34.6674 133.407H29.1806C28.1082 133.407 27.2383 132.538 27.2383 131.465V121.854C27.2383 120.782 28.1076 119.912 29.1806 119.912H34.6674C35.7398 119.912 36.6097 120.781 36.6097 121.854V131.465C36.6097 132.538 35.7398 133.407 34.6674 133.407Z" fill="url(#paint3_linear_2001_11625)"/>
<path d="M34.6649 134.575H29.1781C27.4561 134.575 26.0547 133.174 26.0547 131.452V121.842C26.0547 120.12 27.4561 118.719 29.1781 118.719H34.6649C36.3869 118.719 37.7883 120.12 37.7883 121.842V131.452C37.7883 133.174 36.3869 134.575 34.6649 134.575ZM29.1787 121.08C28.7594 121.08 28.4175 121.422 28.4175 121.841V131.451C28.4175 131.871 28.7588 132.212 29.1787 132.212H34.6655C35.0848 132.212 35.4267 131.871 35.4267 131.451V121.841C35.4267 121.422 35.0854 121.08 34.6655 121.08H29.1787Z" fill="url(#paint4_linear_2001_11625)"/>
<path d="M34.6649 134.575H29.1781C27.4561 134.575 26.0547 133.174 26.0547 131.452V121.842C26.0547 120.12 27.4561 118.719 29.1781 118.719H34.6649C36.3869 118.719 37.7883 120.12 37.7883 121.842V131.452C37.7883 133.174 36.3869 134.575 34.6649 134.575ZM29.1787 121.08C28.7594 121.08 28.4175 121.422 28.4175 121.841V131.451C28.4175 131.871 28.7588 132.212 29.1787 132.212H34.6655C35.0848 132.212 35.4267 131.871 35.4267 131.451V121.841C35.4267 121.422 35.0854 121.08 34.6655 121.08H29.1787Z" fill="url(#paint5_linear_2001_11625)"/>
<path d="M46.0508 92.7051H39.543V126.534H45.2394C48.2264 126.534 50.6476 124.113 50.6476 121.126V97.3013C50.6476 94.7631 48.5896 92.7051 46.0508 92.7051Z" fill="url(#paint6_linear_2001_11625)"/>
<path d="M46.0508 92.7051H39.543V126.534H45.2394C48.2264 126.534 50.6476 124.113 50.6476 121.126V97.3013C50.6476 94.7631 48.5896 92.7051 46.0508 92.7051Z" fill="url(#paint7_linear_2001_11625)"/>
<path d="M50.6476 30.4183V6.59379C50.6476 3.60679 48.2264 1.18555 45.2394 1.18555H39.543V35.0145H46.0508C48.5896 35.0151 50.6476 32.957 50.6476 30.4183Z" fill="url(#paint8_linear_2001_11625)"/>
<path d="M39.5513 92.7129C34.746 92.7129 30.8508 88.8176 30.8508 84.0123V43.7151C30.8508 38.9098 34.746 35.0145 39.5513 35.0145V1.18555H31.4354C15.1162 1.18555 1.88672 14.415 1.88672 30.7342V96.9937C1.88672 113.313 15.1162 126.542 31.4354 126.542H39.5513V92.7129Z" fill="url(#paint9_linear_2001_11625)"/>
<g clip-path="url(#clip0_2001_11625)">
<path d="M59.9533 74.0636C59.9516 80.1035 61.5421 86.0009 64.5664 91.199L59.6641 108.959L77.9816 104.194C83.0481 106.93 88.7246 108.364 94.4931 108.365H94.5082C113.551 108.365 129.052 92.9892 129.061 74.0906C129.064 64.9329 125.473 56.3216 118.949 49.8429C112.426 43.3647 103.75 39.7952 94.5068 39.791C75.4617 39.791 59.9614 55.1658 59.9536 74.0636" fill="url(#paint10_linear_2001_11625)"/>
<path d="M58.7184 74.0527C58.7165 80.3099 60.364 86.4183 63.4961 91.8025L58.418 110.2L77.3923 105.263C82.6204 108.091 88.5067 109.583 94.4963 109.585H94.5117C114.238 109.585 130.296 93.6562 130.304 74.0811C130.308 64.5943 126.588 55.6734 119.83 48.9626C113.072 42.2527 104.086 38.5547 94.5117 38.5508C74.7823 38.5508 58.7263 54.4773 58.7184 74.0527ZM70.0184 90.8752L69.3099 89.7593C66.3317 85.0605 64.7597 79.6306 64.762 74.0549C64.7681 57.7843 78.1132 44.5469 94.523 44.5469C102.47 44.5502 109.938 47.6241 115.555 53.2011C121.172 58.7787 124.263 66.1931 124.261 74.0789C124.254 90.3495 110.909 103.589 94.5117 103.589H94.4999C89.161 103.586 83.9248 102.163 79.3583 99.4746L78.2716 98.8351L67.0118 101.764L70.0184 90.8752Z" fill="url(#paint11_linear_2001_11625)"/>
<path d="M85.5656 59.2102C84.8956 57.7326 84.1905 57.7028 83.5533 57.6769C83.0316 57.6546 82.4351 57.6563 81.8393 57.6563C81.2428 57.6563 80.2738 57.8789 79.4546 58.7663C78.6347 59.6546 76.3242 61.8012 76.3242 66.167C76.3242 70.5329 79.5291 74.7524 79.9758 75.3451C80.4232 75.9366 86.1628 85.1827 95.2531 88.7397C102.808 91.6956 104.345 91.1077 105.985 90.9595C107.625 90.8118 111.276 88.8135 112.021 86.7413C112.767 84.6694 112.767 82.8934 112.543 82.5223C112.32 82.1526 111.724 81.9305 110.829 81.4869C109.935 81.0433 105.538 78.8962 104.718 78.6C103.898 78.3041 103.302 78.1565 102.705 79.045C102.109 79.9322 100.396 81.9305 99.8743 82.5223C99.3529 83.1155 98.8309 83.1894 97.9368 82.7455C97.0418 82.3002 94.1616 81.3643 90.7445 78.3415C88.0858 75.9893 86.2909 73.0846 85.7691 72.196C85.2474 71.3089 85.7133 70.8279 86.1617 70.3858C86.5635 69.9882 87.0564 69.3495 87.504 68.8316C87.9499 68.3133 88.0987 67.9436 88.3969 67.3518C88.6954 66.7594 88.546 66.2411 88.3228 65.7973C88.0987 65.3534 86.3608 60.9647 85.5656 59.2102Z" fill="white"/>
</g>
<defs>
<linearGradient id="paint0_linear_2001_11625" x1="39.6561" y1="108.167" x2="70.0512" y2="171.211" gradientUnits="userSpaceOnUse">
<stop stop-color="#3C549F"/>
<stop offset="1" stop-color="#1E398E"/>
</linearGradient>
<linearGradient id="paint1_linear_2001_11625" x1="38.6938" y1="106.877" x2="71.6504" y2="172.846" gradientUnits="userSpaceOnUse">
<stop stop-color="#3C549F"/>
<stop offset="1" stop-color="#1E398E"/>
</linearGradient>
<linearGradient id="paint2_linear_2001_11625" x1="28.1325" y1="119.253" x2="39.7137" y2="125.789" gradientUnits="userSpaceOnUse">
<stop stop-color="#DCA8D7"/>
<stop offset="1" stop-color="#8F257D"/>
</linearGradient>
<linearGradient id="paint3_linear_2001_11625" x1="28.1325" y1="119.253" x2="39.7137" y2="125.789" gradientUnits="userSpaceOnUse">
<stop stop-color="#3C549F"/>
<stop offset="1" stop-color="#1E398E"/>
</linearGradient>
<linearGradient id="paint4_linear_2001_11625" x1="27.1743" y1="117.944" x2="41.2149" y2="126.389" gradientUnits="userSpaceOnUse">
<stop stop-color="#DCA8D7"/>
<stop offset="1" stop-color="#8F257D"/>
</linearGradient>
<linearGradient id="paint5_linear_2001_11625" x1="27.1743" y1="117.944" x2="41.2149" y2="126.389" gradientUnits="userSpaceOnUse">
<stop stop-color="#3C549F"/>
<stop offset="1" stop-color="#1E398E"/>
</linearGradient>
<linearGradient id="paint6_linear_2001_11625" x1="40.6025" y1="91.0529" x2="57.4945" y2="95.5594" gradientUnits="userSpaceOnUse">
<stop stop-color="#DCA8D7"/>
<stop offset="1" stop-color="#8F257D"/>
</linearGradient>
<linearGradient id="paint7_linear_2001_11625" x1="40.6025" y1="91.0529" x2="57.4945" y2="95.5594" gradientUnits="userSpaceOnUse">
<stop stop-color="#3C549F"/>
<stop offset="1" stop-color="#1E398E"/>
</linearGradient>
<linearGradient id="paint8_linear_2001_11625" x1="40.6025" y1="-0.466588" x2="57.4945" y2="4.03987" gradientUnits="userSpaceOnUse">
<stop stop-color="#3C549F"/>
<stop offset="1" stop-color="#1E398E"/>
</linearGradient>
<linearGradient id="paint9_linear_2001_11625" x1="5.48055" y1="-4.93662" x2="63.3985" y2="9.20622" gradientUnits="userSpaceOnUse">
<stop stop-color="#3C549F"/>
<stop offset="1" stop-color="#1E398E"/>
</linearGradient>
<linearGradient id="paint10_linear_2001_11625" x1="3529.49" y1="6956.64" x2="3529.49" y2="39.791" gradientUnits="userSpaceOnUse">
<stop stop-color="#1FAF38"/>
<stop offset="1" stop-color="#60D669"/>
</linearGradient>
<linearGradient id="paint11_linear_2001_11625" x1="3652.74" y1="7203.43" x2="3652.74" y2="38.5508" gradientUnits="userSpaceOnUse">
<stop stop-color="#F9F9F9"/>
<stop offset="1" stop-color="white"/>
</linearGradient>
<clipPath id="clip0_2001_11625">
<rect width="71.8865" height="71.8865" fill="white" transform="translate(58.418 38.5508)"/>
</clipPath>
</defs>
</svg>
