<svg width="25" height="26" viewBox="0 0 25 26" fill="none" xmlns="http://www.w3.org/2000/svg">
<path d="M23.9111 10.5615C24.0228 10.9771 24.1225 11.6037 24.2002 12.375C24.2889 13.2561 24.3472 14.3102 24.3633 15.4219C24.3956 17.6497 24.259 20.0889 23.873 21.8281C23.6553 22.8095 22.8878 23.5737 21.9053 23.79C19.7668 24.2607 17.081 24.5378 14.9492 24.665C13.9806 24.7228 13.1295 24.75 12.5 24.75C11.8706 24.75 11.0201 24.7228 10.0518 24.665C7.91995 24.5378 5.23415 24.2607 3.0957 23.79C2.11305 23.5737 1.34574 22.8095 1.12793 21.8281C0.74195 20.0889 0.605428 17.6497 0.637695 15.4219C0.653805 14.3102 0.711098 13.2561 0.799805 12.375C0.877477 11.6037 0.978142 10.9771 1.08984 10.5615H23.9111Z" fill="white" stroke="#1E398E" stroke-width="0.5"/>
<path d="M12.499 4.86328C12.9441 4.86329 13.6944 4.87414 14.5889 4.89746C16.5125 4.94758 19.0869 5.05524 20.7148 5.2334C21.3255 5.30034 21.8634 5.66369 22.1494 6.20605C22.7918 7.42391 23.4098 8.94282 23.8574 10.3857C24.1107 11.2023 23.6067 12.0617 22.7686 12.2461C20.3328 12.7813 17.3786 13.2092 14.1729 13.3232C13.6219 13.3428 13.0635 13.3535 12.499 13.3535C11.9344 13.3535 11.3754 13.3428 10.8242 13.3232C7.61863 13.2092 4.66513 12.7812 2.22949 12.2461C1.39116 12.0619 0.886304 11.2024 1.13965 10.3857C1.58734 8.94271 2.20627 7.42398 2.84863 6.20605C3.13479 5.66362 3.67237 5.30025 4.2832 5.2334C5.9111 5.05527 8.48474 4.94758 10.4082 4.89746C11.3029 4.87413 12.054 4.86328 12.499 4.86328Z" fill="#D3D3FF" stroke="#1E398E" stroke-width="0.5"/>
<path d="M14.459 15.8125C15.6554 15.8026 16.6445 16.7831 16.6445 17.9795C16.6444 18.8883 16.1478 19.814 15.4229 20.6484C14.7019 21.4781 13.7814 22.1865 12.9951 22.6562C12.6906 22.8382 12.3094 22.8381 12.0049 22.6562C11.2185 22.1865 10.2971 21.4782 9.57617 20.6484C8.85123 19.814 8.35555 18.8883 8.35547 17.9795C8.35547 16.7829 9.34438 15.8024 10.541 15.8125C11.128 15.8175 11.6583 16.0564 12.0459 16.4404C12.297 16.6892 12.7019 16.6891 12.9531 16.4404C13.3407 16.0564 13.8719 15.8174 14.459 15.8125Z" fill="#FF6E80" stroke="#1E398E" stroke-width="0.5"/>
<path d="M10.0127 15.876C9.98239 16.2873 10.0415 16.7614 10.1797 17.2451C10.3617 17.8818 10.686 18.5558 11.1523 19.1572C11.9891 20.2361 13.2897 21.0838 15.0381 21.0576C14.4903 21.6097 13.874 22.0941 13.3008 22.4658L12.9951 22.6562C12.6906 22.8382 12.3095 22.8381 12.0049 22.6562C11.2185 22.1865 10.2971 21.4782 9.57617 20.6484C8.85124 19.814 8.35554 18.8883 8.35547 17.9795C8.35547 16.9653 9.0667 16.1076 10.0127 15.876Z" fill="#F8475E" stroke="#1E398E" stroke-width="0.5"/>
<path d="M12.501 1.25C15.53 1.25025 17.9854 3.70625 17.9854 6.73535C17.9853 7.77761 17.692 8.74965 17.1875 9.5791C15.6299 9.78298 13.7601 9.93453 12.501 9.93457C11.2416 9.93457 9.37051 9.78215 7.8125 9.57812C7.30847 8.74898 7.01571 7.77717 7.01562 6.73535C7.01562 3.70614 9.47177 1.25 12.501 1.25Z" fill="#F5C956" stroke="#1E398E" stroke-width="0.5"/>
<path d="M12.5 3.53516C14.2669 3.53516 15.6992 4.96749 15.6992 6.73438C15.6992 8.50131 14.2669 9.93359 12.5 9.93359C10.7331 9.93354 9.30078 8.50128 9.30078 6.73438C9.30084 4.96752 10.7331 3.53521 12.5 3.53516Z" fill="#F7E969" stroke="#1E398E" stroke-width="0.5"/>
<path d="M17.3408 9.81176C17.9071 8.92267 18.2354 7.86715 18.2354 6.73493C18.2354 3.5676 15.6678 1 12.5005 1C9.33322 1 6.76562 3.5676 6.76562 6.73488C6.76562 7.86715 7.0939 8.92267 7.66023 9.81171" stroke="#1E398E" stroke-width="0.5" stroke-miterlimit="10" stroke-linecap="round" stroke-linejoin="round"/>
<path d="M12.5001 10.1838C14.4051 10.1838 15.9494 8.63949 15.9494 6.73448C15.9494 4.82947 14.4051 3.28516 12.5001 3.28516C10.5951 3.28516 9.05078 4.82947 9.05078 6.73448C9.05078 8.63949 10.5951 10.1838 12.5001 10.1838Z" stroke="#1E398E" stroke-width="0.5" stroke-miterlimit="10" stroke-linecap="round" stroke-linejoin="round"/>
<path d="M19.3375 9.46289C17.8744 9.8232 14.4641 10.1836 12.5008 10.1836C10.5375 10.1836 7.12719 9.82325 5.66406 9.46289" stroke="#1E398E" stroke-width="0.5" stroke-miterlimit="10" stroke-linecap="round" stroke-linejoin="round"/>
<path d="M22.6554 6.64978C22.5617 6.45731 22.4669 6.27006 22.3715 6.0893C22.0464 5.47289 21.436 5.06026 20.7432 4.98443C19.9522 4.89788 18.9412 4.8281 17.8906 4.77344" stroke="#1E398E" stroke-width="0.5" stroke-miterlimit="10" stroke-linecap="round" stroke-linejoin="round"/>
<path d="M7.10808 4.77344C6.05759 4.82815 5.04659 4.89788 4.25556 4.98443C3.56279 5.06026 2.95233 5.47289 2.62718 6.0893C1.97679 7.32246 1.35296 8.85595 0.901276 10.3119C0.604068 11.2699 1.19571 12.2748 2.17545 12.49C4.62465 13.0282 7.59313 13.4584 10.8152 13.573C11.3693 13.5927 11.9309 13.6031 12.4987 13.6031C13.0664 13.6031 13.628 13.5927 14.1821 13.573C17.4042 13.4584 20.3727 13.0282 22.8219 12.49C23.8015 12.2747 24.3932 11.2699 24.096 10.3119C23.8829 9.62479 23.6314 8.92046 23.3568 8.23851" stroke="#1E398E" stroke-width="0.5" stroke-miterlimit="10" stroke-linecap="round" stroke-linejoin="round"/>
<path d="M8.5625 24.8087C9.0729 24.8515 9.56799 24.8867 10.0361 24.9146C11.0084 24.9727 11.8643 24.9995 12.5 24.9995C13.1357 24.9995 13.9917 24.9727 14.964 24.9146C17.1017 24.787 19.8016 24.5087 21.9583 24.034C23.0356 23.7969 23.878 22.9592 24.117 21.8824C24.9014 18.3482 24.6618 12.0349 24.0975 10.3115" stroke="#1E398E" stroke-width="0.5" stroke-miterlimit="10" stroke-linecap="round" stroke-linejoin="round"/>
<path d="M0.902956 10.3115C0.338626 12.0348 0.099006 18.3482 0.883403 21.8825C1.12239 22.9594 1.96481 23.797 3.04208 24.0341C4.21009 24.2912 5.53736 24.4907 6.8484 24.6398" stroke="#1E398E" stroke-width="0.5" stroke-miterlimit="10" stroke-linecap="round" stroke-linejoin="round"/>
</svg>
