<svg width="26" height="24" viewBox="0 0 26 24" fill="none" xmlns="http://www.w3.org/2000/svg">
<path d="M24.5514 9.31152C25.1157 11.0349 25.3554 17.3484 24.5709 20.8828C24.3319 21.9597 23.4895 22.7973 22.4122 23.0344C20.2554 23.5091 17.5555 23.7874 15.4177 23.915C14.4454 23.9731 13.5895 23.9999 12.9537 23.9999C12.318 23.9999 11.462 23.9731 10.4897 23.915C8.35198 23.7874 5.65203 23.5091 3.49526 23.0344C2.41797 22.7973 1.57553 21.9596 1.33654 20.8828C0.552125 17.3484 0.79175 11.0349 1.35609 9.31152H24.5514Z" fill="url(#paint0_linear_2001_186)"/>
<path d="M12.9521 3.61328C13.4001 3.61328 14.1529 3.6242 15.0488 3.64756C16.9727 3.69769 19.5561 3.80507 21.1953 3.98447C21.8881 4.0603 22.4986 4.47294 22.8237 5.08936C23.4742 6.32255 24.098 7.85607 24.5497 9.31206C24.8469 10.2701 24.2552 11.275 23.2755 11.4903C20.8262 12.0284 17.8577 12.4586 14.6355 12.5733C14.0814 12.593 13.5198 12.6034 12.952 12.6034C12.3843 12.6034 11.8227 12.593 11.2685 12.5733C8.0464 12.4586 5.07785 12.0284 2.6286 11.4903C1.64888 11.275 1.05718 10.2702 1.3544 9.31206C1.8061 7.85607 2.42993 6.32255 3.08034 5.08936C3.4055 4.47294 4.01592 4.0603 4.70876 3.98447C6.34805 3.80507 8.93141 3.69769 10.8553 3.64756C11.7512 3.6242 12.504 3.61328 12.9521 3.61328Z" fill="#ECECFF"/>
<path d="M8.55859 16.9793C8.55859 15.6438 9.66075 14.5513 10.9962 14.5626C11.6511 14.5681 12.2435 14.8344 12.6755 15.2624C12.8293 15.4147 13.0767 15.4147 13.2305 15.2624C13.6624 14.8343 14.2548 14.5681 14.9097 14.5626C16.2452 14.5513 17.3474 15.6438 17.3474 16.9793C17.3474 18.9728 15.1854 20.9099 13.5766 21.871C13.193 22.1002 12.7131 22.1002 12.3295 21.871C10.7206 20.9099 8.55859 18.9728 8.55859 16.9793Z" fill="#FF6E80"/>
<path d="M16.1054 19.7644C12.1564 20.2869 10.3615 16.2754 10.7625 14.5713C9.53455 14.6804 8.55859 15.7216 8.55859 16.9784C8.55859 18.9718 10.7206 20.9089 12.3294 21.8701C12.713 22.0992 13.1929 22.0992 13.5765 21.8701C14.3956 21.3807 15.3579 20.6383 16.1054 19.7644Z" fill="#F8475E"/>
<path d="M12.9538 9.18441C14.26 9.18441 16.2064 9.02481 17.7941 8.81195C18.3605 7.92284 18.6888 6.8673 18.6888 5.73506C18.6888 2.56766 16.1211 0 12.9538 0C9.78641 0 7.21875 2.56766 7.21875 5.73501C7.21875 6.8673 7.54703 7.92284 8.11337 8.8119C9.70107 9.02481 11.6475 9.18441 12.9538 9.18441Z" fill="#F5C956"/>
<path d="M17.7941 8.81246C18.1129 8.31205 18.3562 7.75892 18.5081 7.16902C13.5589 8.03565 9.53361 4.5133 10.6188 0.496094C8.61525 1.39032 7.21875 3.39973 7.21875 5.73556C7.21875 6.86786 7.54703 7.9234 8.11337 8.81246C9.70107 9.02536 11.6475 9.18492 12.9538 9.18492C14.26 9.18492 16.2064 9.02531 17.7941 8.81246Z" fill="#F7AC3E"/>
<path d="M12.9533 9.18396C14.8584 9.18396 16.4027 7.63961 16.4027 5.73456C16.4027 3.82951 14.8584 2.28516 12.9533 2.28516C11.0483 2.28516 9.50391 3.82951 9.50391 5.73456C9.50391 7.63961 11.0483 9.18396 12.9533 9.18396Z" fill="#F7E969"/>
<path d="M10.6402 3.17578C9.94244 3.80698 9.50391 4.71945 9.50391 5.73446C9.50391 7.63952 11.0483 9.18387 12.9533 9.18387C14.3163 9.18387 15.4942 8.39321 16.0545 7.2457C13.3748 6.93079 11.2769 5.3013 10.6402 3.17578Z" fill="#F5C956"/>
<defs>
<linearGradient id="paint0_linear_2001_186" x1="3.14842" y1="8.59417" x2="17.2612" y2="27.5188" gradientUnits="userSpaceOnUse">
<stop stop-color="#FFD394"/>
<stop offset="1" stop-color="#FFB357"/>
</linearGradient>
</defs>
</svg>
