<?xml version="1.0" encoding="UTF-8"?>
<svg xmlns="http://www.w3.org/2000/svg" xmlns:xlink="http://www.w3.org/1999/xlink" width="1203.98pt" height="384.45pt" viewBox="0 0 1203.98 384.45" version="1.1">
<defs>
<clipPath id="clip1">
  <path d="M 0 0 L 472 0 L 472 384.449219 L 0 384.449219 Z M 0 0 "/>
</clipPath>
<clipPath id="clip2">
  <path d="M 1184 35 L 1203.980469 35 L 1203.980469 182 L 1184 182 Z M 1184 35 "/>
</clipPath>
<clipPath id="clip3">
  <path d="M 533 231 L 1203.980469 231 L 1203.980469 244 L 533 244 Z M 533 231 "/>
</clipPath>
</defs>
<g id="surface1">
<g clip-path="url(#clip1)" clip-rule="nonzero">
<path style=" stroke:none;fill-rule:evenodd;fill:rgb(0%,49.798584%,24.299622%);fill-opacity:1;" d="M 411.210938 17.972656 C 411.210938 17.972656 438.066406 -7.574219 471.476563 2.253906 C 471.476563 2.253906 467.546875 24.523438 453.789063 37.625 C 453.789063 37.625 513.464844 87.910156 382.289063 242.34375 C 351.984375 278.019531 319.488281 303.679688 288.042969 325.847656 C 187.988281 396.390625 84.550781 399.785156 31.757813 354.515625 C -44.066406 289.503906 9.914063 84.0625 258.574219 2.90625 C 258.574219 2.90625 17.710938 97.121094 21.441406 243.320313 C 25.40625 398.75 267.441406 356.726563 345.703125 239.390625 C 403.496094 152.738281 339.808594 134.578125 339.808594 134.578125 L 318.679688 174.863281 C 318.679688 174.863281 280.359375 178.304688 244.984375 136.050781 L 285.273438 112.46875 C 285.273438 112.46875 161.464844 92.324219 64.183594 207.289063 C 64.183594 207.289063 103.429688 119.601563 243.511719 51.546875 C 364.863281 -7.410156 411.210938 17.972656 411.210938 17.972656 "/>
</g>
<path style=" stroke:none;fill-rule:evenodd;fill:rgb(0%,49.798584%,24.299622%);fill-opacity:1;" d="M 847.726563 146.097656 C 844.070313 145.96875 842.898438 142.058594 843.417969 140.488281 L 851.769531 140.75 C 851.769531 140.75 851.375 146.230469 847.726563 146.097656 M 807.078125 137.792969 C 807.007813 138.082031 805.089844 138.644531 804.855469 138.742188 C 796.921875 142.117188 788.898438 145.386719 780.527344 147.53125 C 777.167969 148.390625 773.855469 149.414063 770.445313 150.074219 C 769.191406 150.320313 760.523438 152.121094 762.542969 148.421875 C 763.332031 146.980469 764.675781 145.214844 764.742188 145.117188 C 767.617188 140.832031 770.394531 136.476563 773.460938 132.324219 C 776.847656 127.738281 780.574219 122.699219 785.882813 120.246094 C 790.914063 117.917969 797.359375 117.925781 801.792969 121.679688 C 804.164063 123.691406 806.121094 126.289063 806.914063 129.324219 C 807.570313 131.84375 807.703125 135.253906 807.078125 137.792969 M 855.519531 131.046875 C 853.3125 129.085938 839.453125 127.859375 839.453125 127.859375 C 839.210938 120.746094 836.511719 69.730469 836.511719 69.730469 L 844.605469 73.65625 L 831.851563 35.886719 L 823.761719 43.488281 C 827.03125 50.519531 831.023438 109.117188 832.199219 130.035156 C 832.339844 132.5625 828.996094 133.828125 822.816406 135.558594 C 816.898438 137.210938 813.046875 137.261719 813.046875 137.261719 C 813.703125 134.480469 815.664063 124.671875 811.742188 114.367188 C 807.816406 104.066406 790.160156 100.636719 777.40625 113.714844 C 764.652344 126.796875 757.78125 146.417969 757.78125 146.417969 C 757.78125 146.417969 755.167969 147.398438 752.878906 145.109375 C 748.78125 141.007813 751.734375 131.210938 751.734375 131.210938 C 739.796875 145.601563 707.421875 151.484375 676.519531 145.601563 C 645.613281 139.714844 644.800781 115.679688 644.800781 115.679688 L 639.078125 124.835938 C 639.078125 124.835938 654.773438 149.851563 645.453125 160.476563 C 625.863281 182.820313 554.871094 202.175781 554.871094 202.175781 L 587.703125 199.507813 C 587.703125 199.507813 610.136719 195.472656 633.84375 181.570313 C 657.554688 167.671875 655.386719 148.828125 655.386719 148.828125 C 655.386719 148.828125 660.78125 158.886719 688.863281 159.742188 C 716.945313 160.601563 739.265625 148.707031 741.597656 147.234375 C 743.929688 145.761719 745.890625 146.128906 745.890625 146.128906 C 746.625 154.714844 753.734375 158.640625 753.734375 158.640625 C 752.511719 166.730469 754.347656 167.957031 754.347656 167.957031 C 754.347656 165.996094 756.1875 159.863281 756.679688 159.742188 C 757.171875 159.617188 773.109375 162.195313 783.65625 158.394531 C 794.203125 154.59375 833.203125 141.839844 833.203125 141.839844 C 833.203125 141.839844 835.164063 155.082031 843.992188 155.695313 C 852.824219 156.308594 856.132813 151.648438 857.972656 146.007813 C 859.8125 140.367188 857.726563 133.007813 855.519531 131.046875 "/>
<path style=" stroke:none;fill-rule:nonzero;fill:rgb(0%,49.798584%,24.299622%);fill-opacity:1;" d="M 622.484375 96.8125 C 622.804688 99.425781 622.660156 102.238281 622.628906 104.257813 C 614.925781 103.085938 607.371094 102.976563 601.585938 109.019531 C 597.835938 112.9375 594.125 120.179688 596.765625 125.625 C 598.484375 129.164063 602.679688 130.078125 606.21875 130.640625 C 610.621094 131.335938 615.800781 131.121094 619.773438 133.382813 C 623.28125 135.382813 623.542969 139.167969 623.074219 142.738281 C 622.5 147.0625 621.515625 151.503906 618.8125 155.050781 C 613.40625 162.144531 604.257813 166.925781 596.191406 170.257813 C 593.730469 171.277344 591.230469 172.210938 588.734375 173.144531 C 583.382813 175.148438 577.9375 176.921875 572.402344 178.355469 C 566.828125 179.808594 561.199219 181.265625 555.40625 181.421875 C 549.496094 181.578125 543.558594 180.453125 538.304688 177.675781 C 531.683594 174.171875 526.632813 167.527344 524.453125 160.410156 C 522.023438 152.472656 522.460938 143.753906 524.882813 135.871094 C 526.3125 131.226563 528.433594 126.855469 530.585938 122.507813 C 529.761719 124.171875 529.824219 127.070313 529.558594 128.917969 C 529.257813 130.992188 529.039063 133.074219 528.902344 135.164063 C 528.609375 139.695313 528.738281 144.269531 529.507813 148.75 C 530.527344 154.675781 532.691406 160.882813 537.820313 164.476563 C 544.4375 169.105469 553.597656 170.738281 561.515625 170.386719 C 563.898438 170.285156 566.324219 170.046875 568.675781 169.640625 C 574.226563 168.679688 579.617188 167.078125 584.867188 165.050781 C 588.355469 163.703125 591.785156 162.164063 595.128906 160.492188 C 602.589844 156.757813 611.390625 153.195313 616.691406 146.464844 C 614.847656 145.800781 613.035156 144.910156 611.121094 144.464844 C 604.394531 142.886719 595.882813 144.078125 591.273438 137.855469 C 587.460938 132.699219 587.253906 125.261719 588.226563 119.175781 C 589.332031 112.253906 592.648438 106.144531 597.460938 101.09375 C 602.027344 96.300781 608.757813 90.550781 615.613281 89.742188 C 620.402344 89.175781 621.992188 92.757813 622.484375 96.8125 "/>
<path style=" stroke:none;fill-rule:evenodd;fill:rgb(0%,49.798584%,24.299622%);fill-opacity:1;" d="M 1172.109375 72.394531 L 1158.378906 36.234375 L 1153.621094 44.363281 L 1160.621094 138.546875 C 1160.621094 138.546875 1162.941406 148.105469 1155.339844 151.742188 C 1147.960938 155.277344 1143.53125 154.796875 1143.53125 154.796875 C 1138.558594 154.796875 1135.75 154.730469 1135.070313 154.597656 C 1131.578125 154.0625 1129.441406 152.65625 1128.628906 150.371094 C 1127.03125 145.8125 1125.949219 140.511719 1125.421875 134.472656 C 1125.140625 132.058594 1124.871094 126.625 1124.609375 118.171875 C 1124.199219 116.835938 1123.800781 116.160156 1123.398438 116.160156 C 1121.25 119.378906 1119.039063 122.597656 1116.761719 125.820313 C 1112.601563 131.589844 1108.039063 134.472656 1103.078125 134.472656 C 1099.179688 134.472656 1096.300781 132.191406 1094.421875 127.628906 C 1092.539063 123.070313 1091.539063 120.789063 1091.398438 120.789063 C 1091.128906 121.589844 1090.261719 123.742188 1088.789063 127.230469 C 1087.710938 129.914063 1087.039063 132.128906 1086.769531 133.867188 C 1093.621094 147.285156 1097.039063 155.335938 1097.039063 158.019531 C 1097.039063 161.640625 1084.359375 170.894531 1059 185.789063 C 1038.070313 198.128906 1023.320313 206.183594 1014.730469 209.9375 C 1012.589844 210.878906 1011.511719 211.679688 1011.511719 212.355469 C 1021.171875 210.472656 1028.351563 208.933594 1033.039063 207.726563 L 1033.640625 207.726563 C 1038.878906 205.84375 1043.839844 204.03125 1048.539063 202.292969 C 1053.230469 200.546875 1056.988281 198.800781 1059.808594 197.0625 C 1061.820313 195.984375 1065.171875 193.769531 1069.871094 190.414063 C 1081.269531 182.371094 1087.109375 178.207031 1087.378906 177.941406 C 1092.878906 173.378906 1097.238281 167.742188 1100.460938 161.035156 C 1102.328125 156.878906 1103.210938 152.71875 1103.078125 148.558594 L 1103.078125 145.539063 C 1103.878906 144.601563 1104.621094 144.203125 1105.289063 144.332031 C 1110.390625 143.53125 1114.820313 139.574219 1118.570313 132.460938 C 1119.910156 149.367188 1121.859375 159.058594 1124.410156 161.539063 C 1126.949219 164.023438 1131.121094 165.261719 1136.878906 165.261719 L 1143.53125 165.0625 C 1147.289063 164.570313 1166.46875 164.378906 1168.101563 145.199219 C 1169.21875 131.964844 1165.949219 71.832031 1165.949219 71.832031 "/>
<path style=" stroke:none;fill-rule:evenodd;fill:rgb(0%,49.798584%,24.299622%);fill-opacity:1;" d="M 1061.851563 110.65625 C 1061.851563 110.65625 1068.160156 124.210938 1069.199219 129.050781 C 1069.980469 132.636719 1069.691406 139.351563 1066.75 143.519531 C 1063.808594 147.691406 1052.28125 164.367188 1005.441406 165.351563 C 958.589844 166.332031 951.96875 168.292969 933.820313 143.277344 C 933.820313 143.277344 908.800781 183.5 877.410156 183.5 C 846.015625 183.5 872.503906 131.503906 872.503906 131.503906 C 872.503906 131.503906 875.445313 132.238281 873.730469 135.183594 C 872.011719 138.125 864.164063 159.464844 871.03125 170.257813 C 877.898438 181.046875 908.800781 162.160156 916.648438 154.066406 C 924.496094 145.972656 936.148438 141.882813 930.382813 114.582031 C 925.722656 92.507813 916.894531 81.226563 916.894531 81.226563 L 918.855469 61.601563 C 918.855469 61.601563 935.367188 86.882813 938.480469 115.5625 C 940.757813 136.554688 939.949219 135.183594 941.175781 138.125 C 942.402344 141.070313 945.589844 156.03125 976.246094 157.257813 C 1006.910156 158.480469 1027.871094 156.039063 1038.660156 151.867188 C 1049.449219 147.699219 1058.960938 144.226563 1064.300781 136.410156 C 1067.859375 131.195313 1057 121.570313 1057 121.570313 C 1057 121.570313 1061.230469 111.148438 1061.851563 110.65625 "/>
<g clip-path="url(#clip2)" clip-rule="nonzero">
<path style=" stroke:none;fill-rule:evenodd;fill:rgb(0%,49.798584%,24.299622%);fill-opacity:1;" d="M 1191.699219 181.335938 C 1191.699219 181.335938 1203.421875 183.011719 1200.351563 138.058594 C 1197.28125 93.109375 1196.71875 71.054688 1196.71875 71.054688 L 1203.980469 73.285156 L 1191.140625 35.871094 L 1184.441406 43.414063 C 1184.441406 43.414063 1193.929688 157.046875 1191.699219 181.335938 "/>
</g>
<path style=" stroke:none;fill-rule:evenodd;fill:rgb(0%,49.798584%,24.299622%);fill-opacity:1;" d="M 884.804688 160.96875 C 884.804688 160.96875 894.53125 162.359375 891.980469 125.074219 C 889.4375 87.792969 888.972656 69.5 888.972656 69.5 L 894.992188 71.351563 L 884.339844 40.320313 L 878.785156 46.574219 C 878.785156 46.574219 886.65625 140.824219 884.804688 160.96875 "/>
<path style=" stroke:none;fill-rule:evenodd;fill:rgb(0%,49.798584%,24.299622%);fill-opacity:1;" d="M 989.710938 100.648438 L 994.722656 90.980469 L 1099.421875 57.007813 L 1095.519531 64.246094 Z M 989.710938 100.648438 "/>
<path style=" stroke:none;fill-rule:evenodd;fill:rgb(0%,49.798584%,24.299622%);fill-opacity:1;" d="M 1107.480469 185.933594 L 1116.011719 177.410156 L 1123.761719 185.15625 L 1115.699219 193.214844 "/>
<path style=" stroke:none;fill-rule:evenodd;fill:rgb(0%,49.798584%,24.299622%);fill-opacity:1;" d="M 971.886719 189.867188 L 980.410156 181.34375 L 988.15625 189.089844 L 980.097656 197.144531 "/>
<path style=" stroke:none;fill-rule:evenodd;fill:rgb(0%,49.798584%,24.299622%);fill-opacity:1;" d="M 955.613281 189.867188 L 964.136719 181.34375 L 971.882813 189.089844 L 963.828125 197.144531 "/>
<path style=" stroke:none;fill-rule:nonzero;fill:rgb(0%,49.798584%,24.299622%);fill-opacity:1;" d="M 678.300781 176.925781 C 677.617188 175.917969 676.9375 175.414063 676.257813 175.414063 C 676.160156 175.414063 675.898438 175.632813 675.476563 176.070313 C 675.054688 176.507813 674.84375 176.796875 674.84375 176.925781 L 674.84375 177.847656 C 675.621094 177.652344 676.777344 177.347656 678.300781 176.925781 M 682.292969 176.828125 C 682.292969 177.574219 681.921875 178.808594 681.171875 180.527344 C 680.621094 180.691406 679.5 180.785156 677.8125 180.820313 C 676.417969 180.851563 675.296875 181.128906 674.453125 181.648438 C 673.609375 182.167969 673.1875 182.816406 673.1875 183.59375 C 673.1875 184.082031 673.433594 185.332031 673.917969 187.34375 C 674.277344 188.773438 674.78125 191.808594 675.429688 196.449219 C 675.558594 197.390625 675.621094 197.730469 675.621094 197.472656 L 675.621094 201.464844 C 675.558594 201.5625 675.445313 201.613281 675.28125 201.613281 C 674.859375 201.613281 674.484375 200.863281 674.160156 199.371094 C 673.964844 198.300781 673.675781 196.710938 673.285156 194.601563 C 673.222656 194.242188 672.796875 192.570313 672.019531 189.585938 C 671.464844 187.507813 671.191406 185.835938 671.191406 184.570313 C 671.191406 182.882813 671.4375 181.402344 671.921875 180.136719 C 672.179688 179.683594 672.507813 178.984375 672.894531 178.046875 C 672.929688 177.296875 673.121094 176.210938 673.480469 174.78125 C 674.453125 172.636719 675.574219 171.566406 676.839844 171.566406 C 677.878906 171.566406 679.046875 172.1875 680.347656 173.417969 C 681.644531 174.652344 682.292969 175.789063 682.292969 176.828125 "/>
<path style=" stroke:none;fill-rule:evenodd;fill:rgb(0%,49.798584%,24.299622%);fill-opacity:1;" d="M 551.519531 88.574219 C 551.519531 88.574219 551.238281 105.136719 541.414063 103.171875 C 531.585938 101.207031 540.984375 73.246094 541.824219 69.316406 C 542.664063 65.386719 547.867188 54.324219 547.867188 54.324219 C 547.867188 54.324219 533.113281 94.78125 542.734375 97.621094 C 545.984375 98.582031 551.238281 92.785156 551.519531 88.574219 "/>
<path style=" stroke:none;fill-rule:evenodd;fill:rgb(0%,49.798584%,24.299622%);fill-opacity:1;" d="M 1131.511719 94.597656 C 1131.511719 94.597656 1131.308594 106.8125 1124.058594 105.363281 C 1116.808594 103.914063 1123.738281 83.292969 1124.359375 80.394531 C 1124.980469 77.496094 1128.820313 69.335938 1128.820313 69.335938 C 1128.820313 69.335938 1117.929688 99.175781 1125.03125 101.269531 C 1127.429688 101.980469 1131.308594 97.703125 1131.511719 94.597656 "/>
<path style=" stroke:none;fill-rule:evenodd;fill:rgb(0%,49.798584%,24.299622%);fill-opacity:1;" d="M 794.09375 194.855469 L 797.058594 189.242188 L 834.476563 175.59375 L 831.125 181.601563 Z M 794.09375 194.855469 "/>
<path style=" stroke:none;fill-rule:evenodd;fill:rgb(0%,49.798584%,24.299622%);fill-opacity:1;" d="M 967.730469 67.621094 L 971.480469 55.726563 C 971.480469 55.726563 973.035156 53.398438 974.453125 55.269531 C 975.878906 57.148438 977.621094 55.015625 977.234375 52.816406 C 976.847656 50.617188 974.453125 49 971.351563 50.359375 C 968.246094 51.714844 967.472656 60.832031 967.472656 60.832031 L 957.449219 50.941406 L 956.609375 58.117188 "/>
<path style=" stroke:none;fill-rule:evenodd;fill:rgb(0%,49.798584%,24.299622%);fill-opacity:1;" d="M 653.207031 70.484375 L 656.957031 58.585938 C 656.957031 58.585938 658.507813 56.257813 659.925781 58.132813 C 661.351563 60.007813 663.09375 57.875 662.707031 55.675781 C 662.320313 53.480469 659.925781 51.863281 656.824219 53.21875 C 653.71875 54.578125 652.945313 63.695313 652.945313 63.695313 L 642.921875 53.800781 L 642.082031 60.980469 "/>
<path style=" stroke:none;fill-rule:evenodd;fill:rgb(0%,49.798584%,24.299622%);fill-opacity:1;" d="M 779.667969 75.304688 C 777.925781 76.625 776.574219 76.308594 776.050781 75.570313 C 775.273438 74.480469 775.378906 71.871094 778.730469 70.949219 C 782.085938 70.023438 781.414063 73.984375 779.667969 75.304688 M 779.210938 66.421875 C 775.140625 68.03125 771.074219 74.992188 771.074219 74.992188 C 769.785156 74.992188 769.894531 73.921875 766.144531 73.597656 C 762.398438 73.277344 759.71875 76.8125 759.71875 76.8125 C 751.898438 86.128906 745.6875 88.914063 743.761719 90.089844 C 741.839844 91.265625 743.546875 91.484375 743.546875 91.484375 C 750.613281 90.199219 761.539063 80.238281 763.683594 77.882813 C 765.824219 75.527344 769.429688 75.695313 769.253906 78.632813 C 769.113281 80.871094 773.59375 80.449219 773.59375 80.449219 C 773.59375 80.449219 778.785156 79.488281 782.851563 75.417969 C 786.921875 71.347656 783.28125 64.816406 779.210938 66.421875 "/>
<g clip-path="url(#clip3)" clip-rule="nonzero">
<path style=" stroke:none;fill-rule:evenodd;fill:rgb(0%,49.798584%,24.299622%);fill-opacity:1;" d="M 533.148438 243.261719 L 1203.980469 243.261719 L 1203.980469 231.960938 L 533.148438 231.960938 Z M 533.148438 243.261719 "/>
</g>
<path style=" stroke:none;fill-rule:nonzero;fill:rgb(0%,49.798584%,24.299622%);fill-opacity:1;" d="M 544.082031 286.785156 C 544.082031 285.699219 544.019531 284.546875 543.894531 283.328125 C 543.769531 282.117188 543.621094 280.921875 543.453125 279.746094 C 543.203125 278.574219 542.71875 277.421875 542.007813 276.289063 C 541.296875 275.160156 540.3125 274.09375 539.054688 273.085938 L 579.648438 272.835938 C 580.152344 273.003906 580.652344 273.085938 581.15625 273.085938 C 581.660156 273.085938 582.160156 273.046875 582.664063 272.960938 C 582.914063 272.960938 583.167969 272.941406 583.417969 272.898438 C 583.671875 272.855469 583.921875 272.796875 584.171875 272.710938 C 584.339844 272.710938 584.550781 272.644531 584.800781 272.519531 C 585.050781 272.394531 585.304688 272.292969 585.554688 272.207031 L 585.554688 287.792969 C 584.71875 286.871094 583.671875 286.03125 582.414063 285.277344 C 581.15625 284.523438 579.773438 283.980469 578.265625 283.644531 C 576.671875 283.226563 575 282.933594 573.238281 282.765625 C 571.480469 282.597656 569.597656 282.511719 567.585938 282.511719 L 565.070313 282.511719 C 564.566406 282.597656 564.105469 282.640625 563.6875 282.640625 L 562.429688 282.640625 C 561.59375 282.722656 560.691406 282.785156 559.730469 282.828125 C 558.765625 282.871094 557.820313 282.933594 556.902344 283.015625 L 556.902344 305.511719 L 568.714844 305.511719 C 569.71875 305.679688 570.664063 305.765625 571.542969 305.765625 C 572.421875 305.765625 573.238281 305.722656 573.992188 305.636719 C 574.75 305.636719 575.414063 305.554688 576.003906 305.386719 C 576.589844 305.21875 577.136719 305.011719 577.640625 304.757813 L 577.640625 318.457031 C 577.136719 317.871094 576.507813 317.347656 575.753906 316.886719 C 575 316.425781 574.117188 316.027344 573.113281 315.691406 C 572.023438 315.355469 570.933594 315.105469 569.847656 314.9375 C 568.757813 314.769531 567.625 314.683594 566.453125 314.683594 L 565.824219 314.683594 L 556.902344 314.433594 L 556.902344 344.09375 C 557.152344 344.265625 557.40625 344.390625 557.652344 344.472656 C 557.90625 344.554688 558.15625 344.597656 558.410156 344.597656 C 558.574219 344.597656 558.722656 344.621094 558.851563 344.660156 C 558.976563 344.703125 559.121094 344.722656 559.289063 344.722656 C 559.371094 344.808594 559.496094 344.847656 559.664063 344.847656 L 560.042969 344.847656 C 561.214844 345.019531 562.386719 345.183594 563.5625 345.351563 C 564.734375 345.519531 565.949219 345.6875 567.207031 345.855469 C 568.378906 346.023438 569.570313 346.148438 570.789063 346.230469 C 572.003906 346.316406 573.238281 346.355469 574.496094 346.355469 L 576.886719 346.355469 C 577.050781 346.355469 577.21875 346.316406 577.386719 346.230469 L 578.394531 346.230469 C 579.230469 346.148438 580.046875 346.042969 580.84375 345.917969 C 581.636719 345.792969 582.457031 345.644531 583.292969 345.476563 C 584.050781 345.308594 584.820313 345.097656 585.617188 344.847656 C 586.414063 344.597656 587.230469 344.347656 588.070313 344.09375 C 589.746094 343.511719 591.355469 342.757813 592.90625 341.832031 C 594.457031 340.910156 595.988281 339.78125 597.496094 338.441406 L 590.582031 355.027344 L 539.054688 355.027344 C 539.472656 354.695313 539.871094 354.316406 540.25 353.898438 C 540.625 353.476563 540.980469 353.058594 541.316406 352.640625 C 541.484375 352.472656 541.632813 352.285156 541.757813 352.074219 C 541.882813 351.867188 542.027344 351.636719 542.199219 351.386719 C 542.28125 351.21875 542.40625 351.027344 542.574219 350.820313 C 542.742188 350.609375 542.867188 350.421875 542.953125 350.253906 C 543.117188 349.835938 543.285156 349.394531 543.453125 348.933594 C 543.621094 348.472656 543.746094 347.992188 543.832031 347.488281 C 543.914063 346.984375 543.976563 346.480469 544.019531 345.980469 C 544.0625 345.476563 544.082031 344.933594 544.082031 344.347656 L 544.082031 344.09375 "/>
<path style=" stroke:none;fill-rule:nonzero;fill:rgb(0%,49.798584%,24.299622%);fill-opacity:1;" d="M 605.976563 294.640625 C 608.867188 289.15625 612.824219 284.820313 617.855469 281.632813 C 622.878906 278.449219 628.265625 276.039063 634.003906 274.40625 C 639.742188 272.773438 645.796875 271.914063 652.164063 271.828125 C 653.839844 271.828125 655.535156 271.894531 657.253906 272.019531 C 658.96875 272.144531 660.710938 272.292969 662.46875 272.460938 C 664.144531 272.628906 665.839844 272.835938 667.558594 273.085938 C 669.277344 273.339844 671.015625 273.675781 672.773438 274.09375 L 672.773438 288.671875 C 671.183594 287.496094 669.546875 286.410156 667.871094 285.40625 C 666.195313 284.398438 664.394531 283.601563 662.46875 283.015625 C 660.625 282.347656 658.71875 281.863281 656.75 281.570313 C 654.78125 281.277344 652.832031 281.132813 650.90625 281.132813 C 646.550781 281.132813 642.402344 281.84375 638.464844 283.265625 C 634.527344 284.691406 630.753906 286.871094 627.15625 289.800781 C 623.550781 292.652344 620.828125 296.042969 618.984375 299.980469 C 617.140625 303.921875 616.21875 308.363281 616.21875 313.304688 L 616.21875 314.183594 C 616.21875 314.269531 616.261719 314.351563 616.347656 314.433594 L 616.347656 315.691406 C 616.765625 320.96875 617.769531 325.539063 619.359375 329.390625 C 620.953125 333.246094 623.171875 336.386719 626.023438 338.816406 C 628.871094 341.246094 631.824219 343.214844 634.882813 344.722656 C 637.941406 346.230469 641.144531 347.324219 644.496094 347.992188 C 644.914063 348.078125 645.3125 348.160156 645.691406 348.242188 C 646.066406 348.328125 646.464844 348.410156 646.886719 348.492188 C 647.21875 348.492188 647.59375 348.535156 648.015625 348.621094 C 648.433594 348.703125 648.8125 348.746094 649.148438 348.746094 C 649.566406 348.746094 649.964844 348.765625 650.34375 348.808594 C 650.71875 348.851563 651.113281 348.871094 651.535156 348.871094 L 653.796875 348.871094 C 655.304688 348.871094 656.769531 348.808594 658.195313 348.683594 C 659.621094 348.558594 661.003906 348.367188 662.34375 348.117188 C 663.601563 347.867188 664.773438 347.59375 665.863281 347.300781 C 666.949219 347.007813 667.914063 346.691406 668.753906 346.355469 L 668.753906 327.378906 C 668.753906 325.789063 668.667969 324.300781 668.503906 322.917969 C 668.332031 321.535156 668.039063 320.300781 667.621094 319.210938 C 667.285156 318.121094 666.699219 317.117188 665.863281 316.195313 C 665.023438 315.273438 664.019531 314.433594 662.847656 313.679688 L 682.578125 313.429688 C 682.492188 313.597656 682.429688 313.746094 682.390625 313.871094 C 682.347656 313.996094 682.328125 314.101563 682.328125 314.183594 C 682.242188 314.269531 682.203125 314.351563 682.203125 314.433594 L 682.203125 314.6875 C 682.03125 315.023438 681.886719 315.441406 681.761719 315.945313 C 681.636719 316.449219 681.574219 316.949219 681.574219 317.453125 L 681.574219 350.628906 C 681.574219 350.882813 681.613281 351.09375 681.699219 351.257813 C 681.699219 351.511719 681.71875 351.761719 681.761719 352.011719 C 681.800781 352.265625 681.867188 352.515625 681.949219 352.765625 C 682.03125 353.019531 682.136719 353.269531 682.261719 353.519531 C 682.390625 353.773438 682.492188 354.023438 682.578125 354.273438 C 680.734375 354.777344 678.808594 355.21875 676.796875 355.59375 C 674.785156 355.972656 672.734375 356.328125 670.640625 356.664063 C 668.542969 357.082031 666.46875 357.394531 664.417969 357.605469 C 662.363281 357.8125 660.289063 357.960938 658.195313 358.042969 L 655.054688 358.042969 C 648.183594 358.042969 641.648438 357.246094 635.449219 355.65625 C 629.246094 354.066406 623.382813 351.636719 617.855469 348.367188 C 612.238281 345.101563 607.988281 340.640625 605.097656 334.984375 C 602.207031 329.328125 600.675781 322.5625 600.511719 314.6875 L 600.511719 314.433594 C 601.261719 306.726563 603.085938 300.128906 605.976563 294.640625 "/>
<path style=" stroke:none;fill-rule:nonzero;fill:rgb(0%,49.798584%,24.299622%);fill-opacity:1;" d="M 712.238281 318.457031 L 689.488281 280.753906 C 688.984375 279.917969 688.378906 279.078125 687.664063 278.238281 C 686.953125 277.402344 686.136719 276.5625 685.214844 275.726563 C 684.378906 274.972656 683.4375 274.21875 682.386719 273.464844 C 681.34375 272.710938 680.1875 271.957031 678.929688 271.203125 L 690.496094 270.949219 C 692.171875 271.121094 693.636719 271.351563 694.894531 271.644531 C 696.148438 271.9375 697.195313 272.335938 698.035156 272.835938 C 698.789063 273.339844 699.519531 273.964844 700.234375 274.722656 C 700.945313 275.476563 701.59375 276.3125 702.183594 277.234375 C 702.265625 277.402344 702.347656 277.570313 702.433594 277.734375 C 702.515625 277.90625 702.601563 278.074219 702.683594 278.238281 C 702.765625 278.324219 702.832031 278.410156 702.871094 278.492188 C 702.914063 278.574219 702.976563 278.617188 703.0625 278.617188 C 703.0625 278.703125 703.082031 278.785156 703.125 278.867188 C 703.167969 278.953125 703.226563 279.035156 703.3125 279.121094 L 720.152344 307.523438 L 736.992188 282.765625 C 737.160156 282.683594 737.265625 282.574219 737.308594 282.449219 C 737.351563 282.324219 737.414063 282.179688 737.496094 282.011719 C 737.578125 281.84375 737.664063 281.652344 737.746094 281.445313 C 737.832031 281.234375 737.914063 281.046875 738 280.878906 L 738 280.628906 C 738 280.546875 738.042969 280.460938 738.128906 280.378906 L 738.128906 279.621094 C 738.128906 279.539063 738.167969 279.414063 738.25 279.246094 L 738.25 278.742188 C 738.25 277.820313 738.128906 276.984375 737.875 276.230469 C 737.625 275.476563 737.246094 274.722656 736.742188 273.964844 C 736.242188 273.210938 735.675781 272.605469 735.046875 272.144531 C 734.417969 271.6875 733.769531 271.371094 733.097656 271.203125 L 757.855469 270.949219 L 725.179688 318.457031 L 725.179688 344.09375 C 725.179688 345.433594 725.304688 346.628906 725.558594 347.675781 C 725.808594 348.726563 726.226563 349.625 726.816406 350.378906 C 727.316406 351.132813 727.882813 351.824219 728.511719 352.453125 C 729.140625 353.082031 729.746094 353.605469 730.335938 354.023438 C 730.417969 354.105469 730.503906 354.171875 730.585938 354.210938 C 730.667969 354.253906 730.753906 354.316406 730.839844 354.402344 C 730.839844 354.484375 730.878906 354.546875 730.964844 354.589844 C 731.046875 354.632813 731.128906 354.695313 731.214844 354.777344 C 731.296875 354.859375 731.382813 354.925781 731.464844 354.96875 C 731.546875 355.011719 731.632813 355.027344 731.714844 355.027344 L 732.09375 355.027344 L 706.328125 355.027344 C 707.335938 354.695313 708.191406 354.210938 708.90625 353.585938 C 709.617188 352.957031 710.226563 352.265625 710.726563 351.511719 C 711.230469 350.757813 711.605469 349.855469 711.859375 348.808594 C 712.109375 347.761719 712.238281 346.609375 712.238281 345.351563 L 712.238281 345.101563 "/>
<path style=" stroke:none;fill-rule:nonzero;fill:rgb(0%,49.798584%,24.299622%);fill-opacity:1;" d="M 763.640625 285.78125 C 763.640625 283.4375 763.511719 281.445313 763.261719 279.808594 C 763.011719 278.175781 762.632813 276.941406 762.132813 276.105469 C 761.628906 275.265625 761.019531 274.53125 760.308594 273.902344 C 759.597656 273.277344 758.738281 272.710938 757.730469 272.207031 L 785.507813 271.957031 C 790.199219 272.125 794.304688 272.605469 797.824219 273.402344 C 801.339844 274.199219 804.273438 275.394531 806.621094 276.984375 C 808.964844 278.574219 810.914063 280.210938 812.464844 281.886719 C 814.011719 283.5625 815.167969 285.363281 815.921875 287.289063 C 816.089844 287.875 816.253906 288.464844 816.425781 289.046875 C 816.589844 289.636719 816.714844 290.222656 816.800781 290.808594 C 816.96875 291.394531 817.070313 291.9375 817.113281 292.441406 C 817.15625 292.945313 817.179688 293.445313 817.179688 293.949219 L 817.179688 295.082031 C 817.179688 297.59375 816.800781 299.898438 816.046875 301.992188 C 815.289063 304.089844 814.203125 305.972656 812.78125 307.648438 C 811.269531 309.40625 809.699219 310.9375 808.066406 312.234375 C 806.433594 313.535156 804.734375 314.644531 802.976563 315.566406 C 801.972656 316.070313 800.984375 316.53125 800.023438 316.949219 C 799.058594 317.371094 798.117188 317.703125 797.195313 317.953125 C 796.269531 318.207031 795.414063 318.394531 794.617188 318.519531 C 793.820313 318.644531 793.089844 318.707031 792.421875 318.707031 C 790.410156 318.707031 788.691406 318.644531 787.265625 318.519531 C 785.839844 318.394531 784.667969 318.207031 783.746094 317.953125 C 782.824219 317.703125 782.007813 317.390625 781.296875 317.011719 C 780.585938 316.636719 779.976563 316.195313 779.472656 315.691406 L 780.480469 315.691406 C 780.480469 315.777344 780.519531 315.816406 780.605469 315.816406 L 782.363281 315.816406 C 784.878906 315.652344 787.265625 315.125 789.527344 314.246094 C 791.789063 313.367188 793.96875 312.046875 796.0625 310.289063 C 798.160156 308.527344 799.726563 306.539063 800.777344 304.316406 C 801.824219 302.097656 802.347656 299.605469 802.347656 296.839844 C 802.347656 293.992188 801.886719 291.5625 800.964844 289.550781 C 800.042969 287.539063 798.703125 285.992188 796.941406 284.902344 C 795.1875 283.730469 793.214844 282.871094 791.039063 282.324219 C 788.855469 281.78125 786.425781 281.507813 783.746094 281.507813 L 781.988281 281.507813 C 781.738281 281.59375 781.464844 281.632813 781.171875 281.632813 L 780.230469 281.632813 C 779.894531 281.632813 779.578125 281.65625 779.285156 281.695313 C 778.992188 281.738281 778.71875 281.761719 778.46875 281.761719 C 778.132813 281.84375 777.816406 281.90625 777.527344 281.949219 C 777.230469 281.992188 776.917969 282.011719 776.585938 282.011719 L 776.585938 343.214844 C 776.585938 345.058594 776.753906 346.632813 777.089844 347.925781 C 777.421875 349.226563 777.882813 350.339844 778.46875 351.261719 C 779.136719 352.097656 779.894531 352.851563 780.730469 353.519531 C 781.566406 354.191406 782.492188 354.695313 783.496094 355.027344 L 756.726563 355.027344 C 757.730469 354.695313 758.652344 354.171875 759.492188 353.457031 C 760.328125 352.746094 761.039063 351.886719 761.628906 350.882813 C 762.296875 349.875 762.800781 348.765625 763.136719 347.550781 C 763.46875 346.339844 763.640625 344.972656 763.640625 343.46875 L 763.640625 343.214844 "/>
<path style=" stroke:none;fill-rule:nonzero;fill:rgb(0%,49.798584%,24.299622%);fill-opacity:1;" d="M 837.914063 280.753906 L 828.109375 280.753906 C 826.351563 280.921875 824.675781 281.132813 823.085938 281.382813 C 821.492188 281.632813 819.980469 281.96875 818.558594 282.386719 C 817.21875 282.890625 815.964844 283.4375 814.789063 284.019531 C 813.617188 284.609375 812.527344 285.277344 811.519531 286.03125 L 815.164063 269.945313 C 815.585938 270.363281 816.003906 270.65625 816.421875 270.824219 C 816.84375 270.992188 817.300781 271.074219 817.804688 271.074219 C 818.390625 271.160156 819 271.199219 819.628906 271.199219 L 822.078125 271.199219 L 871.59375 270.949219 C 872.011719 271.121094 872.367188 271.199219 872.664063 271.199219 L 874.484375 271.199219 C 874.566406 271.199219 874.695313 271.183594 874.863281 271.140625 C 875.03125 271.097656 875.152344 271.074219 875.238281 271.074219 C 875.40625 271.074219 875.617188 271.058594 875.867188 271.011719 C 876.121094 270.972656 876.371094 270.910156 876.621094 270.824219 C 876.875 270.742188 877.164063 270.636719 877.503906 270.511719 C 877.835938 270.386719 878.171875 270.28125 878.507813 270.195313 L 873.605469 285.78125 C 873.355469 285.195313 872.894531 284.609375 872.226563 284.019531 C 871.554688 283.4375 870.671875 282.890625 869.585938 282.386719 C 868.496094 281.96875 867.386719 281.632813 866.253906 281.382813 C 865.121094 281.132813 863.929688 281.003906 862.671875 281.003906 L 850.859375 280.753906 L 850.859375 346.105469 C 850.859375 347.28125 850.984375 348.265625 851.234375 349.058594 C 851.488281 349.855469 851.90625 350.546875 852.492188 351.132813 C 852.992188 351.71875 853.558594 352.265625 854.1875 352.765625 C 854.816406 353.269531 855.425781 353.730469 856.011719 354.148438 C 856.179688 354.234375 856.324219 354.316406 856.449219 354.402344 C 856.578125 354.484375 856.679688 354.570313 856.765625 354.652344 C 856.847656 354.652344 856.910156 354.675781 856.953125 354.714844 C 856.996094 354.757813 857.058594 354.777344 857.140625 354.777344 C 857.140625 354.859375 857.160156 354.925781 857.203125 354.96875 C 857.246094 355.011719 857.308594 355.027344 857.390625 355.027344 L 857.769531 355.027344 L 832.007813 355.027344 C 833.011719 354.695313 833.871094 354.234375 834.585938 353.648438 C 835.292969 353.0625 835.902344 352.390625 836.40625 351.636719 C 836.90625 350.882813 837.285156 350.066406 837.535156 349.183594 C 837.789063 348.304688 837.914063 347.363281 837.914063 346.355469 L 837.914063 346.105469 "/>
<path style=" stroke:none;fill-rule:nonzero;fill:rgb(0%,49.798584%,24.299622%);fill-opacity:1;" d="M 921.988281 285.78125 C 921.988281 283.4375 921.859375 281.445313 921.609375 279.808594 C 921.359375 278.175781 920.980469 276.941406 920.480469 276.105469 C 919.976563 275.265625 919.367188 274.53125 918.65625 273.902344 C 917.945313 273.277344 917.085938 272.710938 916.082031 272.207031 L 943.855469 271.957031 C 948.546875 272.125 952.652344 272.605469 956.171875 273.402344 C 959.6875 274.199219 962.621094 275.394531 964.96875 276.984375 C 967.3125 278.574219 969.261719 280.210938 970.8125 281.886719 C 972.363281 283.5625 973.515625 285.363281 974.269531 287.289063 C 974.4375 287.875 974.601563 288.464844 974.773438 289.046875 C 974.9375 289.636719 975.0625 290.222656 975.148438 290.808594 C 975.316406 291.394531 975.417969 291.9375 975.464844 292.441406 C 975.503906 292.945313 975.527344 293.445313 975.527344 293.949219 L 975.527344 295.082031 C 975.527344 297.59375 975.148438 299.898438 974.394531 301.992188 C 973.640625 304.089844 972.550781 305.972656 971.128906 307.648438 C 969.617188 309.40625 968.046875 310.9375 966.414063 312.234375 C 964.78125 313.535156 963.085938 314.644531 961.324219 315.566406 C 960.320313 316.070313 959.332031 316.53125 958.371094 316.949219 C 957.40625 317.371094 956.464844 317.703125 955.542969 317.953125 C 954.617188 318.207031 953.761719 318.394531 952.96875 318.519531 C 952.167969 318.644531 951.4375 318.707031 950.765625 318.707031 C 948.757813 318.707031 947.039063 318.644531 945.613281 318.519531 C 944.1875 318.394531 943.015625 318.207031 942.09375 317.953125 C 941.171875 317.703125 940.355469 317.390625 939.644531 317.011719 C 938.933594 316.636719 938.324219 316.195313 937.824219 315.691406 L 938.828125 315.691406 C 938.828125 315.777344 938.867188 315.816406 938.953125 315.816406 L 940.714844 315.816406 C 943.226563 315.652344 945.613281 315.125 947.878906 314.246094 C 950.136719 313.367188 952.316406 312.046875 954.410156 310.289063 C 956.507813 308.527344 958.074219 306.539063 959.125 304.316406 C 960.171875 302.097656 960.695313 299.605469 960.695313 296.839844 C 960.695313 293.992188 960.234375 291.5625 959.3125 289.550781 C 958.390625 287.539063 957.050781 285.992188 955.289063 284.902344 C 953.53125 283.730469 951.5625 282.871094 949.386719 282.324219 C 947.207031 281.78125 944.777344 281.507813 942.09375 281.507813 L 940.335938 281.507813 C 940.085938 281.59375 939.8125 281.632813 939.519531 281.632813 L 938.578125 281.632813 C 938.242188 281.632813 937.925781 281.65625 937.632813 281.695313 C 937.339844 281.738281 937.066406 281.761719 936.816406 281.761719 C 936.480469 281.84375 936.167969 281.90625 935.875 281.949219 C 935.578125 281.992188 935.265625 282.011719 934.933594 282.011719 L 934.933594 343.214844 C 934.933594 345.058594 935.097656 346.632813 935.433594 347.925781 C 935.769531 349.226563 936.230469 350.339844 936.816406 351.261719 C 937.488281 352.097656 938.242188 352.851563 939.078125 353.519531 C 939.917969 354.191406 940.839844 354.695313 941.84375 355.027344 L 915.074219 355.027344 C 916.082031 354.695313 917.003906 354.171875 917.839844 353.457031 C 918.675781 352.746094 919.390625 351.886719 919.976563 350.882813 C 920.644531 349.875 921.148438 348.765625 921.484375 347.550781 C 921.820313 346.339844 921.988281 344.972656 921.988281 343.46875 L 921.988281 343.214844 "/>
<path style=" stroke:none;fill-rule:nonzero;fill:rgb(0%,49.798584%,24.299622%);fill-opacity:1;" d="M 995.886719 328.132813 C 997.5625 332.15625 1000.070313 335.757813 1003.429688 338.945313 C 1006.769531 342.042969 1010.339844 344.390625 1014.109375 345.980469 C 1017.878906 347.574219 1021.859375 348.367188 1026.050781 348.367188 C 1030.488281 348.367188 1034.511719 347.574219 1038.109375 345.980469 C 1041.710938 344.390625 1044.859375 341.957031 1047.539063 338.691406 C 1050.21875 335.421875 1052.25 331.96875 1053.628906 328.324219 C 1055.019531 324.675781 1055.710938 320.804688 1055.710938 316.699219 L 1055.710938 314.058594 C 1055.621094 313.976563 1055.578125 313.890625 1055.578125 313.804688 L 1055.578125 312.925781 C 1055.5 312.84375 1055.460938 312.738281 1055.460938 312.613281 L 1055.460938 312.300781 C 1054.949219 308.277344 1053.878906 304.421875 1052.25 300.734375 C 1050.621094 297.050781 1048.371094 293.53125 1045.53125 290.179688 C 1042.679688 286.828125 1039.390625 284.316406 1035.660156 282.636719 C 1031.929688 280.964844 1027.71875 280.125 1023.03125 280.125 L 1021.019531 280.125 C 1020.851563 280.210938 1020.71875 280.25 1020.640625 280.25 L 1020.390625 280.25 C 1017.039063 280.585938 1013.789063 281.527344 1010.648438 283.078125 C 1007.511719 284.628906 1004.558594 286.742188 1001.789063 289.425781 C 998.941406 292.109375 996.828125 295.375 995.445313 299.230469 C 994.0625 303.082031 993.371094 307.523438 993.371094 312.550781 L 993.371094 314.6875 L 993.371094 314.433594 C 993.371094 319.546875 994.207031 324.113281 995.886719 328.132813 M 977.660156 312.363281 C 977.742188 311.230469 977.871094 310.035156 978.039063 308.78125 C 978.121094 308.109375 978.226563 307.480469 978.351563 306.894531 C 978.480469 306.308594 978.621094 305.679688 978.792969 305.007813 C 978.960938 304.421875 979.128906 303.816406 979.296875 303.1875 C 979.464844 302.558594 979.671875 301.953125 979.921875 301.363281 C 981.097656 297.59375 982.855469 293.972656 985.199219 290.492188 C 987.546875 287.019531 990.480469 283.730469 993.996094 280.628906 C 997.433594 277.445313 1001.671875 275.078125 1006.691406 273.527344 C 1011.71875 271.976563 1017.5 271.199219 1024.039063 271.199219 C 1030.488281 271.199219 1036.441406 272.144531 1041.878906 274.03125 C 1047.328125 275.914063 1052.230469 278.742188 1056.589844 282.511719 C 1061.03125 286.28125 1064.398438 290.742188 1066.699219 295.898438 C 1069.011719 301.050781 1070.28125 306.980469 1070.539063 313.679688 C 1070.539063 314.183594 1070.519531 314.6875 1070.480469 315.1875 C 1070.429688 315.691406 1070.410156 316.195313 1070.410156 316.699219 C 1070.328125 317.285156 1070.261719 317.828125 1070.21875 318.332031 C 1070.179688 318.832031 1070.121094 319.335938 1070.03125 319.839844 C 1069.949219 320.929688 1069.78125 321.996094 1069.53125 323.042969 C 1069.28125 324.09375 1068.988281 325.160156 1068.648438 326.25 C 1067.480469 330.269531 1065.71875 334.125 1063.371094 337.8125 C 1061.03125 341.496094 1058.089844 344.976563 1054.578125 348.242188 C 1051.058594 351.59375 1046.929688 354.066406 1042.199219 355.65625 C 1037.460938 357.246094 1032.078125 358.046875 1026.050781 358.046875 C 1018.339844 358.046875 1011.550781 357.039063 1005.691406 355.03125 C 999.820313 353.019531 994.878906 349.960938 990.855469 345.855469 C 986.835938 341.75 983.714844 337.183594 981.496094 332.15625 C 979.273438 327.128906 977.953125 321.640625 977.535156 315.691406 L 977.535156 315.441406 C 977.535156 314.519531 977.574219 313.492188 977.660156 312.363281 "/>
<path style=" stroke:none;fill-rule:nonzero;fill:rgb(0%,49.798584%,24.299622%);fill-opacity:1;" d="M 1078.828125 283.015625 C 1080.339844 280 1082.640625 277.570313 1085.738281 275.726563 C 1088.761719 273.800781 1091.96875 272.375 1095.359375 271.453125 C 1098.75 270.53125 1102.328125 270.070313 1106.101563 270.070313 L 1108.371094 270.070313 C 1108.53125 270.15625 1108.679688 270.195313 1108.808594 270.195313 L 1110.878906 270.195313 C 1111.210938 270.28125 1111.570313 270.320313 1111.949219 270.320313 L 1113.019531 270.320313 C 1113.769531 270.40625 1114.539063 270.46875 1115.339844 270.511719 C 1116.140625 270.554688 1116.949219 270.65625 1117.789063 270.824219 C 1118.800781 270.910156 1119.78125 271.058594 1120.75 271.265625 C 1121.710938 271.476563 1122.648438 271.664063 1123.570313 271.828125 C 1124.488281 272 1125.308594 272.1875 1126.019531 272.394531 C 1126.730469 272.605469 1127.378906 272.835938 1127.96875 273.085938 L 1127.96875 286.785156 C 1126.96875 286.117188 1125.839844 285.425781 1124.578125 284.710938 C 1123.320313 284 1121.941406 283.308594 1120.429688 282.636719 C 1118.921875 281.96875 1117.390625 281.402344 1115.839844 280.941406 C 1114.289063 280.480469 1112.71875 280.125 1111.128906 279.871094 C 1110.710938 279.789063 1110.308594 279.730469 1109.941406 279.6875 C 1109.558594 279.644531 1109.160156 279.582031 1108.738281 279.496094 L 1108.179688 279.496094 C 1107.96875 279.496094 1107.78125 279.453125 1107.609375 279.371094 L 1106.480469 279.371094 C 1105.050781 279.371094 1103.671875 279.519531 1102.328125 279.808594 C 1100.988281 280.105469 1099.691406 280.546875 1098.441406 281.132813 C 1097.179688 281.71875 1096.050781 282.492188 1095.039063 283.453125 C 1094.039063 284.417969 1093.160156 285.613281 1092.398438 287.035156 C 1092.238281 287.371094 1092.089844 287.6875 1091.96875 287.980469 C 1091.839844 288.273438 1091.691406 288.589844 1091.519531 288.921875 C 1091.441406 289.257813 1091.378906 289.574219 1091.339844 289.863281 C 1091.289063 290.160156 1091.269531 290.472656 1091.269531 290.808594 C 1091.269531 292.148438 1091.628906 293.492188 1092.339844 294.828125 C 1093.050781 296.167969 1094.121094 297.46875 1095.550781 298.726563 C 1096.96875 299.980469 1098.480469 301.113281 1100.070313 302.117188 C 1101.660156 303.125 1103.378906 304.003906 1105.21875 304.757813 L 1119.050781 311.542969 C 1119.46875 311.878906 1119.929688 312.195313 1120.429688 312.488281 C 1120.929688 312.78125 1121.480469 313.097656 1122.070313 313.429688 C 1122.648438 313.765625 1123.238281 314.121094 1123.820313 314.496094 C 1124.410156 314.875 1125 315.273438 1125.578125 315.691406 C 1126.839844 316.613281 1128.050781 317.640625 1129.230469 318.769531 C 1130.398438 319.902344 1131.53125 321.140625 1132.621094 322.476563 C 1133.710938 323.820313 1134.53125 325.242188 1135.070313 326.75 C 1135.621094 328.257813 1135.890625 329.851563 1135.890625 331.527344 C 1135.890625 335.71875 1135.03125 339.445313 1133.308594 342.714844 C 1131.589844 345.980469 1129.019531 348.742188 1125.578125 351.007813 C 1122.230469 353.269531 1118.480469 354.96875 1114.339844 356.097656 C 1110.191406 357.230469 1105.640625 357.835938 1100.699219 357.917969 C 1099.191406 357.917969 1097.679688 357.855469 1096.179688 357.730469 C 1094.671875 357.605469 1093.160156 357.414063 1091.648438 357.164063 C 1090.058594 356.914063 1088.488281 356.640625 1086.941406 356.347656 C 1085.390625 356.054688 1083.808594 355.699219 1082.230469 355.28125 C 1082.058594 355.195313 1081.890625 355.132813 1081.71875 355.089844 C 1081.550781 355.046875 1081.429688 355.027344 1081.351563 355.027344 L 1080.839844 355.027344 C 1080.671875 355.027344 1080.511719 354.988281 1080.339844 354.902344 C 1080 354.820313 1079.691406 354.714844 1079.398438 354.589844 C 1079.101563 354.464844 1078.789063 354.359375 1078.449219 354.273438 L 1075.558594 338.1875 C 1076.648438 339.277344 1077.761719 340.261719 1078.890625 341.140625 C 1080.03125 342.019531 1081.21875 342.796875 1082.480469 343.46875 C 1083.140625 343.804688 1083.78125 344.117188 1084.359375 344.410156 C 1084.949219 344.703125 1085.578125 344.976563 1086.25 345.226563 C 1086.828125 345.476563 1087.441406 345.730469 1088.070313 345.980469 C 1088.699219 346.230469 1089.300781 346.441406 1089.890625 346.609375 C 1090.390625 346.777344 1090.898438 346.945313 1091.398438 347.113281 C 1091.898438 347.28125 1092.398438 347.40625 1092.910156 347.488281 C 1093.328125 347.65625 1093.789063 347.785156 1094.289063 347.867188 C 1094.789063 347.953125 1095.300781 348.035156 1095.800781 348.117188 C 1096.800781 348.203125 1097.789063 348.285156 1098.75 348.367188 C 1099.710938 348.453125 1100.660156 348.492188 1101.578125 348.492188 C 1103.929688 348.492188 1106.101563 348.265625 1108.121094 347.800781 C 1110.128906 347.34375 1111.96875 346.691406 1113.640625 345.855469 C 1115.320313 344.933594 1116.699219 343.867188 1117.789063 342.648438 C 1118.878906 341.4375 1119.628906 340.03125 1120.050781 338.441406 C 1120.140625 338.105469 1120.199219 337.789063 1120.238281 337.496094 C 1120.28125 337.203125 1120.351563 336.890625 1120.429688 336.554688 L 1120.429688 336.113281 C 1120.429688 335.988281 1120.46875 335.84375 1120.558594 335.675781 L 1120.558594 334.792969 C 1120.558594 333.957031 1120.46875 333.160156 1120.308594 332.40625 C 1120.140625 331.652344 1119.839844 330.941406 1119.429688 330.269531 C 1119.261719 329.9375 1119.050781 329.601563 1118.800781 329.265625 C 1118.550781 328.929688 1118.289063 328.59375 1118.039063 328.257813 C 1117.710938 328.007813 1117.390625 327.714844 1117.101563 327.378906 C 1116.808594 327.046875 1116.449219 326.710938 1116.03125 326.375 C 1115.441406 325.957031 1114.839844 325.515625 1114.210938 325.054688 C 1113.578125 324.59375 1112.890625 324.113281 1112.140625 323.609375 C 1111.378906 323.105469 1110.609375 322.605469 1109.808594 322.101563 C 1109.011719 321.597656 1108.160156 321.097656 1107.230469 320.59375 L 1093.28125 313.429688 C 1093.109375 313.515625 1092.949219 313.515625 1092.78125 313.429688 C 1092.609375 313.347656 1092.449219 313.304688 1092.28125 313.304688 C 1092.03125 313.222656 1091.820313 313.136719 1091.648438 313.050781 C 1091.480469 312.96875 1091.308594 312.886719 1091.148438 312.800781 C 1090.808594 312.636719 1090.460938 312.425781 1090.078125 312.171875 C 1089.699219 311.921875 1089.351563 311.667969 1089.011719 311.417969 C 1087.5 310.496094 1086.078125 309.472656 1084.738281 308.339844 C 1083.398438 307.207031 1082.101563 305.890625 1080.839844 304.378906 C 1079.589844 302.871094 1078.601563 301.261719 1077.890625 299.542969 C 1077.179688 297.828125 1076.738281 295.960938 1076.570313 293.949219 L 1076.570313 293.699219 C 1076.570313 289.59375 1077.328125 286.03125 1078.828125 283.015625 "/>
<path style=" stroke:none;fill-rule:nonzero;fill:rgb(0%,49.798584%,24.299622%);fill-opacity:1;" d="M 1159.640625 280.753906 L 1149.839844 280.753906 C 1148.078125 280.921875 1146.398438 281.132813 1144.808594 281.382813 C 1143.21875 281.632813 1141.710938 281.96875 1140.289063 282.386719 C 1138.949219 282.890625 1137.691406 283.4375 1136.519531 284.019531 C 1135.339844 284.609375 1134.25 285.277344 1133.25 286.03125 L 1136.890625 269.945313 C 1137.308594 270.363281 1137.730469 270.65625 1138.148438 270.824219 C 1138.570313 270.992188 1139.03125 271.074219 1139.53125 271.074219 C 1140.121094 271.160156 1140.730469 271.199219 1141.359375 271.199219 L 1143.808594 271.199219 L 1193.320313 270.949219 C 1193.738281 271.121094 1194.101563 271.199219 1194.390625 271.199219 L 1196.210938 271.199219 C 1196.300781 271.199219 1196.421875 271.183594 1196.589844 271.140625 C 1196.761719 271.097656 1196.878906 271.074219 1196.96875 271.074219 C 1197.128906 271.074219 1197.351563 271.058594 1197.601563 271.011719 C 1197.851563 270.972656 1198.101563 270.910156 1198.351563 270.824219 C 1198.601563 270.742188 1198.890625 270.636719 1199.230469 270.511719 C 1199.558594 270.386719 1199.898438 270.28125 1200.238281 270.195313 L 1195.328125 285.78125 C 1195.078125 285.195313 1194.621094 284.609375 1193.949219 284.019531 C 1193.28125 283.4375 1192.398438 282.890625 1191.308594 282.386719 C 1190.21875 281.96875 1189.109375 281.632813 1187.980469 281.382813 C 1186.851563 281.132813 1185.660156 281.003906 1184.398438 281.003906 L 1172.589844 280.753906 L 1172.589844 346.105469 C 1172.589844 347.28125 1172.710938 348.265625 1172.960938 349.058594 C 1173.21875 349.855469 1173.628906 350.546875 1174.21875 351.132813 C 1174.71875 351.71875 1175.289063 352.265625 1175.921875 352.765625 C 1176.550781 353.269531 1177.148438 353.730469 1177.738281 354.148438 C 1177.910156 354.234375 1178.050781 354.316406 1178.179688 354.402344 C 1178.308594 354.484375 1178.410156 354.570313 1178.488281 354.652344 C 1178.578125 354.652344 1178.640625 354.675781 1178.679688 354.714844 C 1178.71875 354.757813 1178.789063 354.777344 1178.871094 354.777344 C 1178.871094 354.859375 1178.890625 354.925781 1178.929688 354.96875 C 1178.980469 355.011719 1179.039063 355.027344 1179.121094 355.027344 L 1179.5 355.027344 L 1153.730469 355.027344 C 1154.738281 354.695313 1155.601563 354.234375 1156.308594 353.648438 C 1157.019531 353.0625 1157.628906 352.390625 1158.128906 351.636719 C 1158.640625 350.882813 1159.011719 350.066406 1159.269531 349.183594 C 1159.519531 348.304688 1159.640625 347.363281 1159.640625 346.355469 L 1159.640625 346.105469 "/>
</g>
</svg>
