<svg width="132" height="101" viewBox="0 0 132 101" fill="none" xmlns="http://www.w3.org/2000/svg">
<path d="M77.749 0.5C71.3293 0.5 66.0883 5.64055 66.0883 11.9372V39.3863C66.0883 45.6829 71.3293 50.8235 77.749 50.8235H87.0776C87.4563 50.8235 87.8105 50.9837 88.0569 51.2658C88.1045 51.3202 88.1547 51.3723 88.2072 51.4221L96.1283 58.9501C97.5655 60.3964 100.013 60.2201 101.348 58.9501L109.269 51.4221C109.744 50.9707 110.119 50.8235 110.399 50.8235H119.728C126.147 50.8235 131.388 45.6829 131.388 39.3863V11.9372C131.388 5.64055 126.147 0.5 119.728 0.5H77.749ZM80.0812 11.9372H105.735C106.353 11.9372 106.947 12.1781 107.384 12.6071C107.821 13.0361 108.067 13.6179 108.067 14.2246C108.067 14.8312 107.821 15.4131 107.384 15.842C106.947 16.271 106.353 16.512 105.735 16.512H80.0812C79.4626 16.512 78.8694 16.271 78.4321 15.842C77.9947 15.4131 77.749 14.8312 77.749 14.2246C77.749 13.6179 77.9947 13.0361 78.4321 12.6071C78.8694 12.1781 79.4626 11.9372 80.0812 11.9372ZM80.0812 23.3743H117.396C118.014 23.3743 118.607 23.6153 119.045 24.0443C119.482 24.4733 119.728 25.0551 119.728 25.6617C119.728 26.2684 119.482 26.8502 119.045 27.2792C118.607 27.7082 118.014 27.9492 117.396 27.9492H80.0812C79.4626 27.9492 78.8694 27.7082 78.4321 27.2792C77.9947 26.8502 77.749 26.2684 77.749 25.6617C77.749 25.0551 77.9947 24.4733 78.4321 24.0443C78.8694 23.6153 79.4626 23.3743 80.0812 23.3743ZM80.0812 34.8115H105.735C106.353 34.8115 106.947 35.0524 107.384 35.4814C107.821 35.9104 108.067 36.4922 108.067 37.0989C108.067 37.7055 107.821 38.2874 107.384 38.7163C106.947 39.1453 106.353 39.3863 105.735 39.3863H80.0812C79.4626 39.3863 78.8694 39.1453 78.4321 38.7163C77.9947 38.2874 77.749 37.7055 77.749 37.0989C77.749 36.4922 77.9947 35.9104 78.4321 35.4814C78.8694 35.0524 79.4626 34.8115 80.0812 34.8115Z" fill="url(#paint0_linear_383_1766)" fill-opacity="0.7"/>
<path d="M17.0616 16.543C8.0052 16.543 0.611572 23.8002 0.611572 32.6895V71.4413C0.611572 80.3306 8.0052 87.5879 17.0616 87.5879H30.2215C30.7558 87.5879 31.2554 87.8141 31.6031 88.2123C31.6702 88.2891 31.741 88.3628 31.8151 88.433L42.9895 99.0608C45.017 101.103 48.4691 100.854 50.3535 99.0608L61.5279 88.433C62.1977 87.7957 62.7261 87.5879 63.1215 87.5879H76.2815C85.3378 87.5879 92.7315 80.3306 92.7315 71.4413V32.6895C92.7315 23.8002 85.3378 16.543 76.2815 16.543H17.0616ZM20.3515 32.6895H56.5415C57.4141 32.6895 58.2509 33.0298 58.8679 33.6354C59.4849 34.241 59.8315 35.0624 59.8315 35.9188C59.8315 36.7753 59.4849 37.5967 58.8679 38.2023C58.2509 38.8079 57.4141 39.1482 56.5415 39.1482H20.3515C19.479 39.1482 18.6422 38.8079 18.0252 38.2023C17.4082 37.5967 17.0616 36.7753 17.0616 35.9188C17.0616 35.0624 17.4082 34.241 18.0252 33.6354C18.6422 33.0298 19.479 32.6895 20.3515 32.6895ZM20.3515 48.8361H72.9915C73.864 48.8361 74.7009 49.1763 75.3179 49.7819C75.9349 50.3876 76.2815 51.209 76.2815 52.0654C76.2815 52.9219 75.9349 53.7433 75.3179 54.3489C74.7009 54.9545 73.864 55.2947 72.9915 55.2947H20.3515C19.479 55.2947 18.6422 54.9545 18.0252 54.3489C17.4082 53.7433 17.0616 52.9219 17.0616 52.0654C17.0616 51.209 17.4082 50.3876 18.0252 49.7819C18.6422 49.1763 19.479 48.8361 20.3515 48.8361ZM20.3515 64.9827H56.5415C57.4141 64.9827 58.2509 65.3229 58.8679 65.9285C59.4849 66.5341 59.8315 67.3555 59.8315 68.212C59.8315 69.0685 59.4849 69.8898 58.8679 70.4955C58.2509 71.1011 57.4141 71.4413 56.5415 71.4413H20.3515C19.479 71.4413 18.6422 71.1011 18.0252 70.4955C17.4082 69.8898 17.0616 69.0685 17.0616 68.212C17.0616 67.3555 17.4082 66.5341 18.0252 65.9285C18.6422 65.3229 19.479 64.9827 20.3515 64.9827Z" fill="url(#paint1_linear_383_1766)"/>
<path d="M17.0616 16.543C8.0052 16.543 0.611572 23.8002 0.611572 32.6895V71.4413C0.611572 80.3306 8.0052 87.5879 17.0616 87.5879H30.2215C30.7558 87.5879 31.2554 87.8141 31.6031 88.2123C31.6702 88.2891 31.741 88.3628 31.8151 88.433L42.9895 99.0608C45.017 101.103 48.4691 100.854 50.3535 99.0608L61.5279 88.433C62.1977 87.7957 62.7261 87.5879 63.1215 87.5879H76.2815C85.3378 87.5879 92.7315 80.3306 92.7315 71.4413V32.6895C92.7315 23.8002 85.3378 16.543 76.2815 16.543H17.0616ZM20.3515 32.6895H56.5415C57.4141 32.6895 58.2509 33.0298 58.8679 33.6354C59.4849 34.241 59.8315 35.0624 59.8315 35.9188C59.8315 36.7753 59.4849 37.5967 58.8679 38.2023C58.2509 38.8079 57.4141 39.1482 56.5415 39.1482H20.3515C19.479 39.1482 18.6422 38.8079 18.0252 38.2023C17.4082 37.5967 17.0616 36.7753 17.0616 35.9188C17.0616 35.0624 17.4082 34.241 18.0252 33.6354C18.6422 33.0298 19.479 32.6895 20.3515 32.6895ZM20.3515 48.8361H72.9915C73.864 48.8361 74.7009 49.1763 75.3179 49.7819C75.9349 50.3876 76.2815 51.209 76.2815 52.0654C76.2815 52.9219 75.9349 53.7433 75.3179 54.3489C74.7009 54.9545 73.864 55.2947 72.9915 55.2947H20.3515C19.479 55.2947 18.6422 54.9545 18.0252 54.3489C17.4082 53.7433 17.0616 52.9219 17.0616 52.0654C17.0616 51.209 17.4082 50.3876 18.0252 49.7819C18.6422 49.1763 19.479 48.8361 20.3515 48.8361ZM20.3515 64.9827H56.5415C57.4141 64.9827 58.2509 65.3229 58.8679 65.9285C59.4849 66.5341 59.8315 67.3555 59.8315 68.212C59.8315 69.0685 59.4849 69.8898 58.8679 70.4955C58.2509 71.1011 57.4141 71.4413 56.5415 71.4413H20.3515C19.479 71.4413 18.6422 71.1011 18.0252 70.4955C17.4082 69.8898 17.0616 69.0685 17.0616 68.212C17.0616 67.3555 17.4082 66.5341 18.0252 65.9285C18.6422 65.3229 19.479 64.9827 20.3515 64.9827Z" fill="url(#paint2_linear_383_1766)"/>
<path d="M17.0616 16.543C8.0052 16.543 0.611572 23.8002 0.611572 32.6895V71.4413C0.611572 80.3306 8.0052 87.5879 17.0616 87.5879H30.2215C30.7558 87.5879 31.2554 87.8141 31.6031 88.2123C31.6702 88.2891 31.741 88.3628 31.8151 88.433L42.9895 99.0608C45.017 101.103 48.4691 100.854 50.3535 99.0608L61.5279 88.433C62.1977 87.7957 62.7261 87.5879 63.1215 87.5879H76.2815C85.3378 87.5879 92.7315 80.3306 92.7315 71.4413V32.6895C92.7315 23.8002 85.3378 16.543 76.2815 16.543H17.0616ZM20.3515 32.6895H56.5415C57.4141 32.6895 58.2509 33.0298 58.8679 33.6354C59.4849 34.241 59.8315 35.0624 59.8315 35.9188C59.8315 36.7753 59.4849 37.5967 58.8679 38.2023C58.2509 38.8079 57.4141 39.1482 56.5415 39.1482H20.3515C19.479 39.1482 18.6422 38.8079 18.0252 38.2023C17.4082 37.5967 17.0616 36.7753 17.0616 35.9188C17.0616 35.0624 17.4082 34.241 18.0252 33.6354C18.6422 33.0298 19.479 32.6895 20.3515 32.6895ZM20.3515 48.8361H72.9915C73.864 48.8361 74.7009 49.1763 75.3179 49.7819C75.9349 50.3876 76.2815 51.209 76.2815 52.0654C76.2815 52.9219 75.9349 53.7433 75.3179 54.3489C74.7009 54.9545 73.864 55.2947 72.9915 55.2947H20.3515C19.479 55.2947 18.6422 54.9545 18.0252 54.3489C17.4082 53.7433 17.0616 52.9219 17.0616 52.0654C17.0616 51.209 17.4082 50.3876 18.0252 49.7819C18.6422 49.1763 19.479 48.8361 20.3515 48.8361ZM20.3515 64.9827H56.5415C57.4141 64.9827 58.2509 65.3229 58.8679 65.9285C59.4849 66.5341 59.8315 67.3555 59.8315 68.212C59.8315 69.0685 59.4849 69.8898 58.8679 70.4955C58.2509 71.1011 57.4141 71.4413 56.5415 71.4413H20.3515C19.479 71.4413 18.6422 71.1011 18.0252 70.4955C17.4082 69.8898 17.0616 69.0685 17.0616 68.212C17.0616 67.3555 17.4082 66.5341 18.0252 65.9285C18.6422 65.3229 19.479 64.9827 20.3515 64.9827Z" fill="url(#paint3_linear_383_1766)"/>
<path d="M17.0616 16.543C8.0052 16.543 0.611572 23.8002 0.611572 32.6895V71.4413C0.611572 80.3306 8.0052 87.5879 17.0616 87.5879H30.2215C30.7558 87.5879 31.2554 87.8141 31.6031 88.2123C31.6702 88.2891 31.741 88.3628 31.8151 88.433L42.9895 99.0608C45.017 101.103 48.4691 100.854 50.3535 99.0608L61.5279 88.433C62.1977 87.7957 62.7261 87.5879 63.1215 87.5879H76.2815C85.3378 87.5879 92.7315 80.3306 92.7315 71.4413V32.6895C92.7315 23.8002 85.3378 16.543 76.2815 16.543H17.0616ZM20.3515 32.6895H56.5415C57.4141 32.6895 58.2509 33.0298 58.8679 33.6354C59.4849 34.241 59.8315 35.0624 59.8315 35.9188C59.8315 36.7753 59.4849 37.5967 58.8679 38.2023C58.2509 38.8079 57.4141 39.1482 56.5415 39.1482H20.3515C19.479 39.1482 18.6422 38.8079 18.0252 38.2023C17.4082 37.5967 17.0616 36.7753 17.0616 35.9188C17.0616 35.0624 17.4082 34.241 18.0252 33.6354C18.6422 33.0298 19.479 32.6895 20.3515 32.6895ZM20.3515 48.8361H72.9915C73.864 48.8361 74.7009 49.1763 75.3179 49.7819C75.9349 50.3876 76.2815 51.209 76.2815 52.0654C76.2815 52.9219 75.9349 53.7433 75.3179 54.3489C74.7009 54.9545 73.864 55.2947 72.9915 55.2947H20.3515C19.479 55.2947 18.6422 54.9545 18.0252 54.3489C17.4082 53.7433 17.0616 52.9219 17.0616 52.0654C17.0616 51.209 17.4082 50.3876 18.0252 49.7819C18.6422 49.1763 19.479 48.8361 20.3515 48.8361ZM20.3515 64.9827H56.5415C57.4141 64.9827 58.2509 65.3229 58.8679 65.9285C59.4849 66.5341 59.8315 67.3555 59.8315 68.212C59.8315 69.0685 59.4849 69.8898 58.8679 70.4955C58.2509 71.1011 57.4141 71.4413 56.5415 71.4413H20.3515C19.479 71.4413 18.6422 71.1011 18.0252 70.4955C17.4082 69.8898 17.0616 69.0685 17.0616 68.212C17.0616 67.3555 17.4082 66.5341 18.0252 65.9285C18.6422 65.3229 19.479 64.9827 20.3515 64.9827Z" fill="url(#paint4_linear_383_1766)"/>
<defs>
<linearGradient id="paint0_linear_383_1766" x1="72.319" y1="-2.40438" x2="131.551" y2="50.4535" gradientUnits="userSpaceOnUse">
<stop stop-color="#FFC181"/>
<stop offset="1" stop-color="#EFC334"/>
</linearGradient>
<linearGradient id="paint1_linear_383_1766" x1="0.776074" y1="13.4751" x2="91.081" y2="102.185" gradientUnits="userSpaceOnUse">
<stop stop-color="#00D8FF"/>
<stop offset="1" stop-color="#0000FF"/>
</linearGradient>
<linearGradient id="paint2_linear_383_1766" x1="9.40135" y1="12.4427" x2="93.0154" y2="87.0037" gradientUnits="userSpaceOnUse">
<stop stop-color="#FFC181"/>
<stop offset="1" stop-color="#EF7B03"/>
</linearGradient>
<linearGradient id="paint3_linear_383_1766" x1="9.40135" y1="12.4427" x2="93.0154" y2="87.0037" gradientUnits="userSpaceOnUse">
<stop stop-color="#FFD394"/>
<stop offset="1" stop-color="#FFB357"/>
</linearGradient>
<linearGradient id="paint4_linear_383_1766" x1="9.40135" y1="12.4427" x2="93.0154" y2="87.0037" gradientUnits="userSpaceOnUse">
<stop stop-color="#FFC181"/>
<stop offset="1" stop-color="#EFC334"/>
</linearGradient>
</defs>
</svg>
