<svg width="105" height="101" viewBox="0 0 105 101" fill="none" xmlns="http://www.w3.org/2000/svg">
<path d="M75.4628 50.5C89.2628 50.5 100.463 39.3 100.463 25.5C100.463 11.7 89.2628 0.5 75.4628 0.5C61.6628 0.5 50.4628 11.7 50.4628 25.5C50.4628 39.3 61.6628 50.5 75.4628 50.5ZM102.713 78.5C100.763 76.5 98.3128 75.5 95.4628 75.5H61.8259C60.9237 75.5 60.0279 75.3474 59.1766 75.0486L52.3801 72.6633C51.1003 72.2141 50.427 70.8125 50.8763 69.5328C51.3344 68.2278 52.7795 67.5584 54.0713 68.0529L59.1295 69.9895C60.0109 70.327 60.9467 70.5 61.8905 70.5H74.4628C76.2128 70.5 77.6128 69.8 78.7628 68.65C79.9128 67.5 80.4628 66.1 80.4628 64.55C80.4628 61.85 79.1628 60 76.5628 58.95L41.5564 45.9971C40.6677 45.6683 39.7277 45.5 38.7802 45.5H38.4628C34.0445 45.5 30.4628 49.0817 30.4628 53.5V84.4656C30.4628 88.0374 32.8306 91.1765 36.265 92.1578L62.9314 99.7767C64.5756 100.247 66.3271 100.177 67.929 99.5786L100.517 87.4039C103.592 86.2549 105.925 83.1122 104.173 80.3356C103.768 79.6949 103.281 79.0826 102.713 78.5ZM20.4628 53.5C20.4628 49.0817 16.8811 45.5 12.4628 45.5H8.38281C3.96453 45.5 0.382812 49.0817 0.382812 53.5V92.5C0.382812 96.9183 3.96453 100.5 8.38281 100.5H12.4628C16.8811 100.5 20.4628 96.9183 20.4628 92.5V53.5Z" fill="black"/>
<path d="M75.4628 50.5C89.2628 50.5 100.463 39.3 100.463 25.5C100.463 11.7 89.2628 0.5 75.4628 0.5C61.6628 0.5 50.4628 11.7 50.4628 25.5C50.4628 39.3 61.6628 50.5 75.4628 50.5ZM102.713 78.5C100.763 76.5 98.3128 75.5 95.4628 75.5H61.8259C60.9237 75.5 60.0279 75.3474 59.1766 75.0486L52.3801 72.6633C51.1003 72.2141 50.427 70.8125 50.8763 69.5328C51.3344 68.2278 52.7795 67.5584 54.0713 68.0529L59.1295 69.9895C60.0109 70.327 60.9467 70.5 61.8905 70.5H74.4628C76.2128 70.5 77.6128 69.8 78.7628 68.65C79.9128 67.5 80.4628 66.1 80.4628 64.55C80.4628 61.85 79.1628 60 76.5628 58.95L41.5564 45.9971C40.6677 45.6683 39.7277 45.5 38.7802 45.5H38.4628C34.0445 45.5 30.4628 49.0817 30.4628 53.5V84.4656C30.4628 88.0374 32.8306 91.1765 36.265 92.1578L62.9314 99.7767C64.5756 100.247 66.3271 100.177 67.929 99.5786L100.517 87.4039C103.592 86.2549 105.925 83.1122 104.173 80.3356C103.768 79.6949 103.281 79.0826 102.713 78.5ZM20.4628 53.5C20.4628 49.0817 16.8811 45.5 12.4628 45.5H8.38281C3.96453 45.5 0.382812 49.0817 0.382812 53.5V92.5C0.382812 96.9183 3.96453 100.5 8.38281 100.5H12.4628C16.8811 100.5 20.4628 96.9183 20.4628 92.5V53.5Z" fill="url(#paint0_linear_2001_6215)"/>
<defs>
<linearGradient id="paint0_linear_2001_6215" x1="10.4237" y1="-4.38379" x2="109.456" y2="80.312" gradientUnits="userSpaceOnUse">
<stop stop-color="#FFC181"/>
<stop offset="1" stop-color="#EF7B03"/>
</linearGradient>
</defs>
</svg>
