<svg width="158" height="150" viewBox="0 0 158 150" fill="none" xmlns="http://www.w3.org/2000/svg">
<path d="M144.892 147.997H13.1221C7.34629 147.997 2.66406 143.315 2.66406 137.539V54.8077C2.66406 49.0318 7.34629 44.3496 13.1221 44.3496H144.892C150.668 44.3496 155.35 49.0318 155.35 54.8077V137.539C155.35 143.315 150.668 147.997 144.892 147.997Z" fill="url(#paint0_linear_2001_11659)"/>
<path d="M79.0065 108.27C75.2655 108.27 71.5235 106.97 68.5405 104.373L4.64074 48.7237C4.21743 48.3552 3.96844 47.8243 3.95748 47.2615C3.94553 46.7008 4.17262 46.16 4.58098 45.7735C6.90566 43.5773 9.93849 42.3682 13.1217 42.3682H144.891C148.075 42.3682 151.107 43.5783 153.432 45.7735C153.84 46.16 154.067 46.7008 154.056 47.2625C154.044 47.8233 153.796 48.3552 153.371 48.7237L89.4715 104.373C86.4885 106.971 82.7465 108.27 79.0065 108.27ZM71.157 101.37C75.6311 105.266 82.382 105.266 86.856 101.37L148.878 47.3562C147.661 46.7018 146.298 46.3532 144.892 46.3532H13.1217C11.7164 46.3532 10.3528 46.7018 9.13571 47.3562L71.157 101.37Z" fill="white"/>
<path d="M144.891 149.993H13.1217C9.93949 149.993 6.90566 148.784 4.58098 146.587C4.17262 146.201 3.94553 145.66 3.95748 145.099C3.96844 144.538 4.21743 144.006 4.64074 143.637L60.8633 94.6756C61.6123 94.0222 62.7288 94.0222 63.4798 94.6756L71.157 101.362C75.6321 105.259 82.381 105.257 86.8561 101.362L94.5343 94.6746C95.2853 94.0232 96.3998 94.0222 97.1508 94.6756L153.372 143.637C153.797 144.006 154.045 144.537 154.057 145.098C154.068 145.66 153.841 146.201 153.433 146.587C151.107 148.784 148.075 149.993 144.891 149.993ZM9.13571 145.006C10.3528 145.66 11.7164 146.009 13.1217 146.009H144.891C146.297 146.009 147.66 145.66 148.877 145.006L95.842 98.819L89.4716 104.366C83.5055 109.56 74.5066 109.561 68.5395 104.365L62.1701 98.819L9.13571 145.006Z" fill="white"/>
<path d="M144.884 150.001H13.1141C6.24867 150.001 0.664062 144.416 0.664062 137.55V54.8182C0.664062 47.9528 6.24867 42.3682 13.1141 42.3682H144.884C151.749 42.3682 157.334 47.9528 157.334 54.8182V137.549C157.334 144.416 151.749 150.001 144.884 150.001ZM13.1141 46.3522C8.44586 46.3522 4.64809 50.15 4.64809 54.8182V137.549C4.64809 142.218 8.44586 146.016 13.1141 146.016H144.884C149.552 146.016 153.35 142.218 153.35 137.549V54.8182C153.35 50.15 149.552 46.3522 144.884 46.3522H13.1141Z" fill="white"/>
<path d="M78.4305 68.7096C96.8526 68.7096 111.787 53.7755 111.787 35.3533C111.787 16.9312 96.8526 1.99707 78.4305 1.99707C60.0083 1.99707 45.0742 16.9312 45.0742 35.3533C45.0742 53.7755 60.0083 68.7096 78.4305 68.7096Z" fill="url(#paint1_linear_2001_11659)" fill-opacity="0.9"/>
<path d="M78.4261 48.1544C73.0665 48.1544 68.707 43.7949 68.707 38.4364V32.2552C68.707 26.8957 73.0665 22.5361 78.4261 22.5361H86.1521C87.2517 22.5361 88.1441 23.4286 88.1441 24.5281V38.4364C88.1441 43.7949 83.7846 48.1544 78.4261 48.1544ZM78.4261 26.5202C75.2637 26.5202 72.6911 29.0928 72.6911 32.2552V38.4364C72.6911 41.5987 75.2637 44.1704 78.4261 44.1704C81.5884 44.1704 84.1601 41.5987 84.1601 38.4364V26.5202H78.4261Z" fill="url(#paint2_linear_2001_11659)"/>
<path d="M78.4261 48.1544C73.0665 48.1544 68.707 43.7949 68.707 38.4364V32.2552C68.707 26.8957 73.0665 22.5361 78.4261 22.5361H86.1521C87.2517 22.5361 88.1441 23.4286 88.1441 24.5281V38.4364C88.1441 43.7949 83.7846 48.1544 78.4261 48.1544ZM78.4261 26.5202C75.2637 26.5202 72.6911 29.0928 72.6911 32.2552V38.4364C72.6911 41.5987 75.2637 44.1704 78.4261 44.1704C81.5884 44.1704 84.1601 41.5987 84.1601 38.4364V26.5202H78.4261Z" fill="white"/>
<path d="M78.4404 57.4289C72.3707 57.4289 66.5062 54.891 62.3479 50.4678C58.1328 45.9818 56.0203 40.1133 56.4037 33.943C57.09 22.8694 65.9604 14 77.035 13.3118C83.1983 12.9343 89.0737 15.0388 93.5598 19.2569C97.983 23.4143 100.521 29.2797 100.521 35.3484V46.165C100.521 50.671 96.8535 54.3383 92.3476 54.3383C87.8417 54.3383 84.1744 50.671 84.1744 46.165V38.439C84.1744 37.3394 85.0668 36.447 86.1664 36.447C87.266 36.447 88.1584 37.3394 88.1584 38.439V46.165C88.1584 48.4748 90.0379 50.3542 92.3476 50.3542C94.6573 50.3542 96.5368 48.4748 96.5368 46.165V35.3484C96.5368 30.3016 94.5109 25.6174 90.8307 22.1593C87.1544 18.7032 82.3358 16.9791 77.281 17.2878C68.2084 17.8516 60.9425 25.1174 60.3788 34.1901C60.0651 39.2508 61.7951 44.0625 65.2503 47.7397C68.7084 51.419 73.3926 53.4458 78.4394 53.4458C79.539 53.4458 80.4314 54.3383 80.4314 55.4378C80.4314 56.5374 79.541 57.4289 78.4404 57.4289Z" fill="white"/>
<defs>
<linearGradient id="paint0_linear_2001_11659" x1="17.2328" y1="39.2877" x2="119.474" y2="161.694" gradientUnits="userSpaceOnUse">
<stop stop-color="#3C549F"/>
<stop offset="1" stop-color="#1E398E"/>
</linearGradient>
<linearGradient id="paint1_linear_2001_11659" x1="51.4397" y1="-1.26103" x2="116.903" y2="51.9423" gradientUnits="userSpaceOnUse">
<stop stop-color="#3C549F"/>
<stop offset="1" stop-color="#1E398E"/>
</linearGradient>
<linearGradient id="paint2_linear_2001_11659" x1="70.5617" y1="21.285" x2="93.5081" y2="35.4343" gradientUnits="userSpaceOnUse">
<stop stop-color="#DCA8D7"/>
<stop offset="1" stop-color="#8F257D"/>
</linearGradient>
</defs>
</svg>
