<svg width="22" height="24" viewBox="0 0 22 24" fill="none" xmlns="http://www.w3.org/2000/svg">
<path d="M9.49234 23.8101H6.8923C6.04417 23.8101 5.35413 23.12 5.35413 22.2719V17.8891C5.35413 17.7346 5.47932 17.6094 5.63381 17.6094C5.7883 17.6094 5.9135 17.7346 5.9135 17.8891V22.2719C5.9135 22.8116 6.35258 23.2507 6.8923 23.2507H9.49234C10.0321 23.2507 10.4711 22.8116 10.4711 22.2719V19.6474C10.4711 18.7993 11.1612 18.1092 12.0093 18.1092H20.8995C21.054 18.1092 21.1792 18.2344 21.1792 18.3889C21.1792 18.5434 21.054 18.6686 20.8995 18.6686H12.0093C11.4696 18.6686 11.0305 19.1077 11.0305 19.6474V22.2719C11.0305 23.12 10.3405 23.8101 9.49234 23.8101Z" fill="#F26422"/>
<path d="M9.49211 24.0004H6.89207C5.93972 24.0004 5.16492 23.2257 5.16492 22.2734V17.8904C5.16492 17.6321 5.37515 17.4219 5.63358 17.4219C5.89201 17.4219 6.10215 17.6321 6.10215 17.8904V22.2734C6.10215 22.7088 6.45648 23.0631 6.89198 23.0631H9.49201C9.92751 23.0631 10.2818 22.7088 10.2818 22.2734V19.6489C10.2818 18.6965 11.0566 17.9218 12.0089 17.9218H20.8991C21.1575 17.9218 21.3678 18.1321 21.3678 18.3905C21.3678 18.6489 21.1575 18.8591 20.8991 18.8591H12.0089C11.5734 18.8591 11.2192 19.2135 11.2192 19.6489V22.2734C11.2193 23.2257 10.4445 24.0004 9.49211 24.0004ZM5.63358 17.7998C5.5836 17.7998 5.54287 17.8406 5.54287 17.8904V22.2734C5.54287 23.0173 6.14807 23.6225 6.89207 23.6225H9.49211C10.2361 23.6225 10.8413 23.0173 10.8413 22.2734V19.6489C10.8413 19.005 11.3652 18.4812 12.0091 18.4812H20.8993C20.9493 18.4812 20.99 18.4405 20.99 18.3905C20.99 18.3405 20.9493 18.2998 20.8993 18.2998H12.0091C11.2652 18.2998 10.66 18.905 10.66 19.6489V22.2734C10.66 22.9172 10.1361 23.4411 9.4922 23.4411H6.89207C6.24813 23.4411 5.72429 22.9172 5.72429 22.2734V17.8904C5.72429 17.8406 5.68356 17.7998 5.63358 17.7998Z" fill="#F26222"/>
<path d="M20.134 14.0398H7.63336C7.08543 14.0398 6.64124 13.5956 6.64124 13.0476V5.19916C6.64124 4.65122 7.08543 4.20703 7.63336 4.20703H20.134C20.6819 4.20703 21.1261 4.65122 21.1261 5.19916V13.0476C21.1261 13.5956 20.6819 14.0398 20.134 14.0398Z" fill="url(#paint0_linear_180_3328)"/>
<path d="M13.8848 10.271C13.5299 10.271 13.1749 10.1477 12.8919 9.90123L6.82988 4.62197C6.78972 4.58701 6.7661 4.53665 6.76506 4.48326C6.76392 4.43007 6.78547 4.37876 6.82421 4.3421C7.04474 4.13375 7.33246 4.01904 7.63444 4.01904H20.1351C20.4371 4.01904 20.7248 4.13385 20.9453 4.3421C20.984 4.37876 21.0055 4.43007 21.0045 4.48336C21.0033 4.53656 20.9798 4.58701 20.9395 4.62197L14.8775 9.90123C14.5946 10.1477 14.2396 10.271 13.8848 10.271ZM13.1401 9.61635C13.5645 9.98599 14.205 9.98599 14.6294 9.61635L20.5133 4.49224C20.3978 4.43016 20.2685 4.39709 20.1352 4.39709H7.63444C7.50112 4.39709 7.37177 4.43016 7.2563 4.49224L13.1401 9.61635Z" fill="white"/>
<path d="M20.1343 14.2289H7.63371C7.33182 14.2289 7.04401 14.1141 6.82347 13.9058C6.78473 13.8691 6.76319 13.8178 6.76432 13.7646C6.76536 13.7113 6.78899 13.6609 6.82914 13.6259L12.1628 8.98106C12.2339 8.91907 12.3398 8.91907 12.411 8.98106L13.1394 9.61536C13.5639 9.98509 14.2042 9.9849 14.6287 9.61536L15.3571 8.98096C15.4283 8.91917 15.5341 8.91907 15.6053 8.98106L20.9389 13.6259C20.9792 13.6609 21.0027 13.7112 21.0038 13.7645C21.0049 13.8178 20.9834 13.8691 20.9447 13.9058C20.724 14.1141 20.4363 14.2289 20.1343 14.2289ZM7.25557 13.7557C7.37103 13.8178 7.50039 13.8509 7.63371 13.8509H20.1343C20.2677 13.8509 20.397 13.8178 20.5125 13.7557L15.4812 9.37413L14.8768 9.90034C14.3108 10.3931 13.4571 10.3932 12.891 9.90024L12.2868 9.37413L7.25557 13.7557Z" fill="white"/>
<path d="M20.1339 14.2298H7.63325C6.98194 14.2298 6.45215 13.7 6.45215 13.0487V5.20015C6.45215 4.54884 6.98194 4.01904 7.63325 4.01904H20.1339C20.7852 4.01904 21.315 4.54884 21.315 5.20015V13.0486C21.315 13.7 20.7852 14.2298 20.1339 14.2298ZM7.63325 4.397C7.19039 4.397 6.8301 4.75728 6.8301 5.20015V13.0486C6.8301 13.4915 7.19039 13.8518 7.63325 13.8518H20.1339C20.5767 13.8518 20.937 13.4915 20.937 13.0486V5.20015C20.937 4.75728 20.5767 4.397 20.1339 4.397H7.63325Z" fill="white"/>
<path d="M13.8302 6.51829C15.5778 6.51829 16.9946 5.10153 16.9946 3.35387C16.9946 1.60621 15.5778 0.189453 13.8302 0.189453C12.0825 0.189453 10.6658 1.60621 10.6658 3.35387C10.6658 5.10153 12.0825 6.51829 13.8302 6.51829Z" fill="url(#paint1_linear_180_3328)"/>
<path d="M13.8299 4.56803C13.3214 4.56803 12.9078 4.15446 12.9078 3.64611V3.05971C12.9078 2.55127 13.3214 2.1377 13.8299 2.1377H14.5628C14.6671 2.1377 14.7518 2.22236 14.7518 2.32667V3.64611C14.7518 4.15446 14.3382 4.56803 13.8299 4.56803ZM13.8299 2.51565C13.5299 2.51565 13.2858 2.75971 13.2858 3.05971V3.64611C13.2858 3.94611 13.5299 4.19008 13.8299 4.19008C14.1299 4.19008 14.3738 3.94611 14.3738 3.64611V2.51565H13.8299Z" fill="#F26222"/>
<path d="M13.8301 5.44816C13.2543 5.44816 12.698 5.2074 12.3035 4.78778C11.9036 4.3622 11.7032 3.80548 11.7396 3.22012C11.8047 2.1696 12.6462 1.32818 13.6968 1.26289C14.2815 1.22708 14.8389 1.42673 15.2645 1.82689C15.6841 2.22129 15.9248 2.77773 15.9248 3.35345V4.37959C15.9248 4.80705 15.5769 5.15496 15.1495 5.15496C14.722 5.15496 14.3741 4.80705 14.3741 4.37959V3.64664C14.3741 3.54233 14.4587 3.45767 14.5631 3.45767C14.6674 3.45767 14.752 3.54233 14.752 3.64664V4.37959C14.752 4.59871 14.9303 4.77701 15.1495 4.77701C15.3686 4.77701 15.5469 4.59871 15.5469 4.37959V3.35345C15.5469 2.87467 15.3547 2.43029 15.0056 2.10223C14.6568 1.77436 14.1997 1.6108 13.7201 1.64009C12.8594 1.69357 12.1701 2.38286 12.1167 3.24356C12.0869 3.72365 12.251 4.18012 12.5788 4.52898C12.9069 4.87802 13.3512 5.0703 13.83 5.0703C13.9343 5.0703 14.019 5.15496 14.019 5.25928C14.019 5.36359 13.9345 5.44816 13.8301 5.44816Z" fill="#F26222"/>
<path d="M6.06623 21.3453H5.18834C5.01675 21.3453 4.87756 21.2062 4.87756 21.0345V19.4968C4.87756 19.3252 5.01665 19.186 5.18834 19.186H6.06623C6.23782 19.186 6.377 19.3251 6.377 19.4968V21.0345C6.377 21.2062 6.23782 21.3453 6.06623 21.3453Z" fill="#F26422"/>
<path d="M6.06661 21.5321H5.18871C4.91319 21.5321 4.68896 21.3079 4.68896 21.0324V19.4948C4.68896 19.2192 4.91319 18.9951 5.18871 18.9951H6.06661C6.34213 18.9951 6.56636 19.2192 6.56636 19.4948V21.0324C6.56636 21.3079 6.34213 21.5321 6.06661 21.5321ZM5.18881 19.373C5.12172 19.373 5.06701 19.4276 5.06701 19.4947V21.0323C5.06701 21.0995 5.12163 21.1541 5.18881 21.1541H6.0667C6.13379 21.1541 6.1885 21.0995 6.1885 21.0323V19.4947C6.1885 19.4276 6.13388 19.373 6.0667 19.373H5.18881Z" fill="#F26222"/>
<path d="M7.88892 14.833H6.84766V20.2457H7.75909C8.23701 20.2457 8.62442 19.8583 8.62442 19.3804V15.5684C8.62442 15.1623 8.29512 14.833 7.88892 14.833Z" fill="#F26422"/>
<path d="M8.62442 4.86721V1.05527C8.62442 0.577344 8.23701 0.189941 7.75909 0.189941H6.84766V5.60261H7.88892C8.29512 5.60271 8.62442 5.27342 8.62442 4.86721Z" fill="#F26422"/>
<path d="M6.84791 14.8344C6.07906 14.8344 5.45581 14.2112 5.45581 13.4423V6.99471C5.45581 6.22586 6.07906 5.60261 6.84791 5.60261V0.189941H5.54935C2.93826 0.189941 0.821533 2.30667 0.821533 4.91776V15.5194C0.821533 18.1305 2.93826 20.2472 5.54935 20.2472H6.84791V14.8344Z" fill="url(#paint2_linear_180_3328)"/>
<path d="M7.75898 20.4361H6.84755C6.74323 20.4361 6.65857 20.3515 6.65857 20.2472V14.8345C6.65857 14.7302 6.74323 14.6455 6.84755 14.6455H7.88881C8.39857 14.6455 8.81328 15.0603 8.81328 15.57V19.3819C8.81328 19.9633 8.34037 20.4361 7.75898 20.4361ZM7.03652 20.0582H7.75898C8.13183 20.0582 8.43523 19.7548 8.43523 19.3819V15.57C8.43523 15.2687 8.19004 15.0235 7.88871 15.0235H7.03643L7.03652 20.0582Z" fill="#AA6201"/>
<path d="M7.88856 5.79063H6.8473C6.74299 5.79063 6.65833 5.70597 6.65833 5.60165V0.188977C6.65833 0.0846616 6.74299 0 6.8473 0H7.75874C8.34003 0 8.81304 0.472914 8.81304 1.05421V4.86615C8.81304 5.37592 8.39823 5.79063 7.88856 5.79063ZM7.03628 5.41267H7.88856C8.18989 5.41267 8.43508 5.16748 8.43508 4.86615V1.05421C8.43508 0.681356 8.13168 0.377954 7.75874 0.377954H7.03628V5.41267Z" fill="#AA6201"/>
<path d="M6.84755 20.4351H5.549C2.83794 20.4351 0.632202 18.2294 0.632202 15.5183V4.9168C0.632297 2.20574 2.83794 0 5.549 0H6.84755C6.95187 0 7.03653 0.0846616 7.03653 0.188977V5.60165C7.03653 5.70597 6.95187 5.79063 6.84755 5.79063C6.18415 5.79063 5.64443 6.33034 5.64443 6.99375V13.4413C5.64443 14.1047 6.18415 14.6444 6.84755 14.6444C6.95187 14.6444 7.03653 14.729 7.03653 14.8334V20.246C7.03653 20.3505 6.95187 20.4351 6.84755 20.4351ZM5.549 0.377954C3.04629 0.377954 1.01025 2.41408 1.01025 4.9168V15.5183C1.01025 18.021 3.04638 20.0571 5.5491 20.0571H6.65867V15.0112C5.87565 14.9175 5.26657 14.2492 5.26657 13.4414V6.99384C5.26657 6.18597 5.87565 5.51765 6.65867 5.42401V0.377954H5.549Z" fill="#AA6201"/>
<defs>
<linearGradient id="paint0_linear_180_3328" x1="8.02333" y1="3.72682" x2="17.7227" y2="15.3392" gradientUnits="userSpaceOnUse">
<stop stop-color="#FFD394"/>
<stop offset="1" stop-color="#FFB357"/>
</linearGradient>
<linearGradient id="paint1_linear_180_3328" x1="11.2696" y1="-0.119634" x2="17.48" y2="4.92762" gradientUnits="userSpaceOnUse">
<stop stop-color="#FFD394"/>
<stop offset="1" stop-color="#FFB357"/>
</linearGradient>
<linearGradient id="paint2_linear_180_3328" x1="1.39655" y1="-0.789612" x2="10.6635" y2="1.47326" gradientUnits="userSpaceOnUse">
<stop stop-color="#FFD394"/>
<stop offset="1" stop-color="#FFB357"/>
</linearGradient>
</defs>
</svg>
