<svg width="23" height="22" viewBox="0 0 23 22" fill="none" xmlns="http://www.w3.org/2000/svg">
<path d="M21.3577 8.9209C21.4511 9.27798 21.5389 9.80835 21.6047 10.4619C21.6815 11.2243 21.7314 12.137 21.7454 13.0996C21.7733 15.0289 21.6551 17.1393 21.3215 18.6426C21.1356 19.4803 20.4807 20.1328 19.6418 20.3174C17.7914 20.7247 15.4667 20.965 13.6204 21.0752C12.7816 21.1253 12.0449 21.1484 11.5002 21.1484C10.9557 21.1484 10.2189 21.1253 9.38013 21.0752C7.53385 20.965 5.20908 20.7246 3.35864 20.3174C2.51977 20.1327 1.86389 19.4802 1.67798 18.6426C1.34441 17.1393 1.22621 15.0289 1.25415 13.0996C1.2681 12.137 1.318 11.2243 1.39478 10.4619C1.46058 9.80843 1.54839 9.27798 1.64185 8.9209H21.3577Z" fill="white" stroke="#1E398E" stroke-width="0.5"/>
<path d="M11.5002 3.9834C11.8854 3.9834 12.5351 3.9925 13.3098 4.0127C14.9766 4.05612 17.2064 4.1495 18.6155 4.30371C19.1337 4.3605 19.5896 4.66886 19.8323 5.12891C20.3878 6.18215 20.9224 7.4965 21.3098 8.74512C21.5235 9.43386 21.0984 10.159 20.3909 10.3145C18.2822 10.7778 15.7249 11.1483 12.9495 11.2471C12.4724 11.264 11.9889 11.2734 11.5002 11.2734C11.0114 11.2734 10.5273 11.264 10.05 11.2471C7.27449 11.1483 4.71735 10.7778 2.60864 10.3145C1.90111 10.159 1.47603 9.4339 1.6897 8.74512C2.07708 7.49649 2.61172 6.18217 3.16724 5.12891C3.40991 4.66887 3.86586 4.36057 4.38403 4.30371C5.79315 4.1495 8.0229 4.05612 9.6897 4.0127C10.4648 3.99249 11.1151 3.9834 11.5002 3.9834Z" fill="#D3D3FF" stroke="#1E398E" stroke-width="0.5"/>
<path d="M13.1975 13.4707C14.2157 13.4621 15.0577 14.2964 15.0579 15.3145C15.0579 16.0903 14.634 16.885 14.0081 17.6055C13.3861 18.3213 12.5913 18.9332 11.9124 19.3389C11.6589 19.4902 11.3415 19.4902 11.0881 19.3389C10.4091 18.9332 9.61438 18.3213 8.99243 17.6055C8.36644 16.885 7.94263 16.0903 7.94263 15.3145C7.94283 14.2964 8.78476 13.4621 9.80298 13.4707C10.3025 13.475 10.7543 13.678 11.0842 14.0049C11.3148 14.2331 11.6857 14.2331 11.9163 14.0049C12.2461 13.678 12.698 13.475 13.1975 13.4707Z" fill="#FF6E80" stroke="#1E398E" stroke-width="0.5"/>
<path d="M9.30884 13.5352C9.28953 13.8857 9.34187 14.2834 9.45728 14.6875C9.61605 15.2432 9.89899 15.8317 10.3059 16.3564C11.0229 17.281 12.1316 18.0136 13.6165 18.0186C13.0725 18.5553 12.4562 19.0139 11.9124 19.3389C11.659 19.4903 11.3416 19.4903 11.0881 19.3389C10.4092 18.9332 9.61435 18.3213 8.99243 17.6055C8.3666 16.8851 7.94272 16.0911 7.94263 15.3154C7.94263 14.4682 8.52577 13.7477 9.30884 13.5352Z" fill="#F8475E" stroke="#1E398E" stroke-width="0.5"/>
<path d="M11.5005 0.852539C14.1066 0.852801 16.2192 2.96602 16.2192 5.57227C16.2192 6.4633 15.9694 7.29426 15.5405 8.00488C14.1951 8.18033 12.5852 8.31051 11.5005 8.31055C10.4155 8.31055 8.80431 8.18046 7.4585 8.00488C7.02977 7.2944 6.78085 6.46316 6.78076 5.57227C6.78076 2.9659 8.89413 0.852539 11.5005 0.852539Z" fill="#F5C956" stroke="#1E398E" stroke-width="0.5"/>
<path d="M11.5007 2.83301C13.0131 2.83324 14.239 4.0598 14.239 5.57227C14.2388 7.08453 13.013 8.31031 11.5007 8.31055C9.98827 8.31055 8.76171 7.08467 8.76147 5.57227C8.76147 4.05966 9.98812 2.83301 11.5007 2.83301Z" fill="#F7E969" stroke="#1E398E" stroke-width="0.5"/>
<path d="M15.694 8.23788C16.1847 7.46749 16.4691 6.55289 16.4691 5.57182C16.4691 2.82735 14.2443 0.602539 11.4999 0.602539C8.75545 0.602539 6.53064 2.82735 6.53064 5.57178C6.53064 6.55289 6.81508 7.46749 7.30581 8.23784" stroke="#1E398E" stroke-width="0.5" stroke-miterlimit="10" stroke-linecap="round" stroke-linejoin="round"/>
<path d="M11.5003 8.56065C13.151 8.56065 14.4891 7.22251 14.4891 5.57183C14.4891 3.92115 13.151 2.58301 11.5003 2.58301C9.84962 2.58301 8.51147 3.92115 8.51147 5.57183C8.51147 7.22251 9.84962 8.56065 11.5003 8.56065Z" stroke="#1E398E" stroke-width="0.5" stroke-miterlimit="10" stroke-linecap="round" stroke-linejoin="round"/>
<path d="M17.4241 7.93555C16.1563 8.24775 13.2013 8.56 11.5002 8.56C9.79898 8.56 6.84396 8.24779 5.57617 7.93555" stroke="#1E398E" stroke-width="0.5" stroke-miterlimit="10" stroke-linecap="round" stroke-linejoin="round"/>
<path d="M20.2993 5.49791C20.2181 5.33114 20.1359 5.16889 20.0533 5.01226C19.7716 4.47814 19.2427 4.1206 18.6424 4.0549C17.957 3.9799 17.0809 3.91944 16.1707 3.87207" stroke="#1E398E" stroke-width="0.5" stroke-miterlimit="10" stroke-linecap="round" stroke-linejoin="round"/>
<path d="M6.82884 3.87207C5.9186 3.91948 5.04257 3.9799 4.35715 4.0549C3.75687 4.1206 3.22791 4.47814 2.94617 5.01226C2.3826 6.08078 1.84207 7.40954 1.45068 8.67112C1.19315 9.50126 1.7058 10.372 2.55474 10.5585C4.67696 11.0248 7.24913 11.3975 10.041 11.4968C10.5211 11.5139 11.0078 11.5229 11.4997 11.5229C11.9917 11.5229 12.4783 11.5139 12.9585 11.4968C15.7504 11.3975 18.3225 11.0248 20.4447 10.5585C21.2936 10.3719 21.8063 9.50126 21.5488 8.67112C21.3641 8.07574 21.1462 7.46544 20.9083 6.87454" stroke="#1E398E" stroke-width="0.5" stroke-miterlimit="10" stroke-linecap="round" stroke-linejoin="round"/>
<path d="M8.08789 21.2326C8.53015 21.2697 8.95914 21.3002 9.36476 21.3244C10.2072 21.3747 10.9489 21.398 11.4997 21.398C12.0505 21.398 12.7923 21.3747 13.6347 21.3244C15.487 21.2138 17.8265 20.9727 19.6953 20.5614C20.6287 20.3559 21.3587 19.6301 21.5658 18.697C22.2455 15.6346 22.0378 10.1642 21.5488 8.6709" stroke="#1E398E" stroke-width="0.5" stroke-miterlimit="10" stroke-linecap="round" stroke-linejoin="round"/>
<path d="M1.45095 8.6709C0.961957 10.1641 0.754327 15.6346 1.434 18.6971C1.64108 19.6302 2.37104 20.356 3.30448 20.5615C4.31656 20.7842 5.46663 20.9571 6.60264 21.0863" stroke="#1E398E" stroke-width="0.5" stroke-miterlimit="10" stroke-linecap="round" stroke-linejoin="round"/>
</svg>
