<svg width="25" height="22" viewBox="0 0 25 22" fill="none" xmlns="http://www.w3.org/2000/svg">
<path d="M13.4236 2.09056C13.1087 1.79284 12.6917 1.62695 12.2584 1.62695C11.825 1.62695 11.4081 1.79284 11.0932 2.09056L2.87748 9.8585C2.62613 10.0964 2.42595 10.383 2.28918 10.7009C2.1524 11.0187 2.08192 11.3612 2.08203 11.7072V19.4565C2.08203 20.1312 2.35007 20.7783 2.82718 21.2554C3.30429 21.7325 3.95138 22.0006 4.62612 22.0006H9.71429V15.2164C9.71429 14.9914 9.80364 14.7757 9.96267 14.6167C10.1217 14.4577 10.3374 14.3683 10.5623 14.3683H13.9544C14.1793 14.3683 14.395 14.4577 14.5541 14.6167C14.7131 14.7757 14.8025 14.9914 14.8025 15.2164V22.0006H19.8906C20.5654 22.0006 21.2125 21.7325 21.6896 21.2554C22.1667 20.7783 22.4347 20.1312 22.4347 19.4565V11.7055C22.4346 11.3593 22.3639 11.0168 22.2268 10.699C22.0897 10.3811 21.8892 10.0945 21.6376 9.85681L13.4236 2.09056Z" fill="url(#paint0_linear_2001_241)"/>
<path fill-rule="evenodd" clip-rule="evenodd" d="M12.2649 2.70568L21.985 11.8814C22.1065 11.9961 22.2494 12.0857 22.4055 12.1452C22.5617 12.2047 22.728 12.2328 22.895 12.228C23.062 12.2232 23.2265 12.1855 23.3789 12.1172C23.5314 12.0488 23.6689 11.9511 23.7836 11.8296C23.8983 11.7081 23.988 11.5652 24.0475 11.4091C24.1069 11.2529 24.1351 11.0866 24.1303 10.9196C24.1255 10.7526 24.0878 10.5881 24.0195 10.4356C23.9511 10.2832 23.8534 10.1457 23.7319 10.031L13.7167 0.578824C13.321 0.205051 12.7966 -0.00219266 12.2523 1.74975e-05C11.708 0.00222766 11.1853 0.213723 10.7927 0.590697L0.775753 10.2073C0.543473 10.4433 0.412329 10.7605 0.410183 11.0915C0.408037 11.4226 0.535057 11.7415 0.764259 11.9804C0.99346 12.2193 1.30678 12.3595 1.63766 12.371C1.96854 12.3826 2.2909 12.2648 2.53626 12.0425L12.2649 2.70568Z" fill="url(#paint1_linear_2001_241)"/>
<defs>
<linearGradient id="paint0_linear_2001_241" x1="4.02402" y1="0.631948" x2="24.0121" y2="16.8598" gradientUnits="userSpaceOnUse">
<stop stop-color="#FFD394"/>
<stop offset="1" stop-color="#FFB357"/>
</linearGradient>
<linearGradient id="paint1_linear_2001_241" x1="16.0945" y1="-2.94558" x2="10.4687" y2="11.6253" gradientUnits="userSpaceOnUse">
<stop stop-color="#FF921F"/>
<stop offset="1" stop-color="#EB4824"/>
</linearGradient>
</defs>
</svg>
