<svg width="60" height="60" viewBox="0 0 60 60" fill="none" xmlns="http://www.w3.org/2000/svg">
<rect width="60" height="60" rx="10" fill="url(#paint0_linear_2001_639)"/>
<rect width="60" height="60" rx="10" fill="url(#paint1_linear_2001_639)"/>
<path d="M22.4979 24.6423C22.4979 22.6531 23.2881 20.7454 24.6947 19.3388C26.1012 17.9323 28.0089 17.1421 29.9981 17.1421C31.9873 17.1421 33.895 17.9323 35.3016 19.3388C36.7081 20.7454 37.4983 22.6531 37.4983 24.6423C37.4983 24.9265 37.6112 25.199 37.8122 25.3999C38.0131 25.6009 38.2856 25.7138 38.5698 25.7138C38.854 25.7138 39.1265 25.6009 39.3274 25.3999C39.5284 25.199 39.6412 24.9265 39.6412 24.6423C39.6411 22.9977 39.2204 21.3806 38.4191 19.9444C37.6177 18.5083 36.4625 17.301 35.063 16.4372C33.6636 15.5735 32.0665 15.0819 30.4235 15.0094C28.7806 14.9368 27.1464 15.2857 25.6762 16.0227C24.2061 16.7598 22.9489 17.8606 22.0241 19.2205C21.0993 20.5804 20.5377 22.1542 20.3926 23.7923C20.2475 25.4305 20.5238 27.0785 21.1951 28.5798C21.8665 30.081 22.9106 31.3857 24.2283 32.3697C25.3583 33.2137 26.6596 33.7996 28.0406 34.0861C28.2324 34.5164 28.5607 34.8715 28.9746 35.0964C29.3886 35.3214 29.8651 35.4036 30.3305 35.3305C30.7959 35.2573 31.2242 35.0329 31.5492 34.6918C31.8742 34.3507 32.0777 33.912 32.1283 33.4436C32.1789 32.9753 32.0737 32.5033 31.8291 32.1007C31.5844 31.6981 31.2139 31.3873 30.7748 31.2165C30.3358 31.0456 29.8527 31.0243 29.4002 31.1556C28.9478 31.287 28.5513 31.5638 28.272 31.9432C26.6279 31.5544 25.1633 30.6219 24.1153 29.2969C23.0674 27.9718 22.4975 26.3317 22.4979 24.6423ZM23.5694 24.6423C23.5698 23.4596 23.8965 22.3 24.5134 21.2909C25.1304 20.2819 26.0137 19.4627 27.0663 18.9233C28.1188 18.3839 29.2997 18.1454 30.4791 18.2339C31.6585 18.3223 32.7906 18.7344 33.7508 19.4248C34.7111 20.1152 35.4623 21.0571 35.9218 22.1469C36.3813 23.2366 36.5313 24.4321 36.3552 25.6016C36.1792 26.7711 35.6839 27.8693 34.924 28.7755C34.164 29.6817 33.1688 30.3607 32.0478 30.7378C31.4714 30.2606 30.7465 29.9996 29.9981 29.9996C29.2192 29.9996 28.5056 30.2771 27.9484 30.7378C26.672 30.3085 25.5627 29.4891 24.777 28.3954C23.9913 27.3018 23.5689 25.9889 23.5694 24.6423ZM29.9981 36.4283C30.5125 36.4286 31.0194 36.3054 31.4763 36.0691C31.9332 35.8329 32.3268 35.4904 32.6238 35.0705C32.9209 34.6506 33.1129 34.1655 33.1836 33.656C33.2544 33.1465 33.2018 32.6275 33.0303 32.1425H39.1055C40.1001 32.1425 41.054 32.5376 41.7572 33.2409C42.4605 33.9442 42.8556 34.898 42.8556 35.8926V36.4283C42.8556 38.9923 41.2238 41.161 38.9073 42.6353C36.5779 44.1182 33.4246 45 29.9981 45C26.5716 45 23.4194 44.1182 21.0889 42.6353C18.7725 41.161 17.1406 38.9923 17.1406 36.4283V35.8926C17.1406 34.898 17.5357 33.9442 18.239 33.2409C18.9423 32.5376 19.8961 32.1425 20.8907 32.1425H22.3468C23.7172 33.5417 25.4448 34.5386 27.342 35.0247C27.9206 35.8722 28.8956 36.4283 29.9981 36.4283Z" fill="white"/>
<defs>
<linearGradient id="paint0_linear_2001_639" x1="5.725" y1="-2.93027" x2="64.6019" y2="44.9198" gradientUnits="userSpaceOnUse">
<stop stop-color="#90BD21"/>
<stop offset="1" stop-color="#73AA2B"/>
</linearGradient>
<linearGradient id="paint1_linear_2001_639" x1="5.725" y1="-2.93027" x2="64.6019" y2="44.9198" gradientUnits="userSpaceOnUse">
<stop stop-color="#FFC181"/>
<stop offset="1" stop-color="#EFC334"/>
</linearGradient>
</defs>
</svg>
