<svg width="60" height="60" viewBox="0 0 60 60" fill="none" xmlns="http://www.w3.org/2000/svg">
<rect width="60" height="60" rx="10" fill="url(#paint0_linear_2001_632)"/>
<rect width="60" height="60" rx="10" fill="url(#paint1_linear_2001_632)"/>
<path d="M26.7188 18.7188C26.7188 18.0698 26.9113 17.4354 27.2718 16.8958C27.6324 16.3562 28.1448 15.9356 28.7444 15.6873C29.344 15.4389 30.0037 15.3739 30.6402 15.5005C31.2767 15.6272 31.8614 15.9397 32.3203 16.3986C32.7792 16.8574 33.0917 17.4421 33.2183 18.0786C33.3449 18.7151 33.2799 19.3749 33.0316 19.9744C32.7832 20.574 32.3627 21.0865 31.8231 21.447C31.2835 21.8076 30.6491 22 30.0001 22C29.1299 22 28.2953 21.6543 27.6799 21.0389C27.0645 20.4236 26.7188 19.589 26.7188 18.7188ZM41.672 25.348C41.5866 24.928 41.3572 24.551 41.0234 24.282C40.6896 24.0131 40.2724 23.8691 39.8438 23.875H20.1563C19.7289 23.875 19.3142 24.021 18.9811 24.2889C18.648 24.5569 18.4165 24.9305 18.3248 25.3481C18.2332 25.7656 18.287 26.2019 18.4773 26.5847C18.6676 26.9675 18.983 27.2738 19.3712 27.4527H19.3782L25.6935 30.2336L23.1247 39.9953C22.9287 40.4438 22.9158 40.9511 23.0887 41.409C23.2617 41.8668 23.6069 42.2389 24.0505 42.4457C24.2984 42.5635 24.5694 42.6248 24.8438 42.625C25.1973 42.6255 25.5437 42.5261 25.8431 42.3383C26.1425 42.1504 26.3827 41.8818 26.536 41.5633L30.0001 35.5938L33.4665 41.5703C33.6821 42.0089 34.0604 42.346 34.5209 42.5097C34.9814 42.6735 35.4876 42.651 35.9317 42.4471C36.3758 42.2431 36.7227 41.8738 36.8986 41.4178C37.0744 40.9618 37.0653 40.4552 36.8731 40.0059L34.3044 30.2441L40.6325 27.4598C41.0252 27.2847 41.3442 26.9776 41.5341 26.5919C41.724 26.2061 41.7728 25.766 41.672 25.348Z" fill="white"/>
<defs>
<linearGradient id="paint0_linear_2001_632" x1="5.725" y1="-2.93027" x2="64.6019" y2="44.9198" gradientUnits="userSpaceOnUse">
<stop stop-color="#90BD21"/>
<stop offset="1" stop-color="#73AA2B"/>
</linearGradient>
<linearGradient id="paint1_linear_2001_632" x1="5.725" y1="-2.93027" x2="64.6019" y2="44.9198" gradientUnits="userSpaceOnUse">
<stop stop-color="#0081C9"/>
<stop offset="1" stop-color="#0051A1"/>
</linearGradient>
</defs>
</svg>
