<svg width="22" height="24" viewBox="0 0 22 24" fill="none" xmlns="http://www.w3.org/2000/svg">
<path d="M11.9516 7.61335C11.9516 6.85436 12.5691 6.23751 13.3274 6.23751H13.3529C14.0978 6.2516 14.7032 6.88118 14.7032 7.64151V11.2775H20.4701C21.1338 11.2775 21.6769 10.7345 21.6769 10.0707V1.20687C21.6769 0.543092 21.1338 0 20.4701 0H1.42831C0.764528 0 0.221436 0.543092 0.221436 1.20687V10.0707C0.221436 10.7345 0.764528 11.2775 1.42831 11.2775H11.9509V7.61402L11.9516 7.61335ZM10.3491 8.19131C7.79388 8.1551 6.52935 9.24799 6.51728 9.25939L6.39794 9.36532L6.27926 9.25939C6.26719 9.24866 5.004 8.15577 2.44744 8.19131L2.26574 8.19399V2.21997L2.44208 2.21729C4.72441 2.18377 6.01576 2.99573 6.39794 3.28068C6.78011 2.99573 8.07079 2.1831 10.3538 2.21729L10.5301 2.21997V8.19399L10.3484 8.19131H10.3491Z" fill="url(#paint0_linear_383_807)"/>
<path d="M11.9516 7.61335C11.9516 6.85436 12.5691 6.23751 13.3274 6.23751H13.3529C14.0978 6.2516 14.7032 6.88118 14.7032 7.64151V11.2775H20.4701C21.1338 11.2775 21.6769 10.7345 21.6769 10.0707V1.20687C21.6769 0.543092 21.1338 0 20.4701 0H1.42831C0.764528 0 0.221436 0.543092 0.221436 1.20687V10.0707C0.221436 10.7345 0.764528 11.2775 1.42831 11.2775H11.9509V7.61402L11.9516 7.61335ZM10.3491 8.19131C7.79388 8.1551 6.52935 9.24799 6.51728 9.25939L6.39794 9.36532L6.27926 9.25939C6.26719 9.24866 5.004 8.15577 2.44744 8.19131L2.26574 8.19399V2.21997L2.44208 2.21729C4.72441 2.18377 6.01576 2.99573 6.39794 3.28068C6.78011 2.99573 8.07079 2.1831 10.3538 2.21729L10.5301 2.21997V8.19399L10.3484 8.19131H10.3491Z" fill="white"/>
<path d="M21.7787 15.8755V14.212C21.7787 13.7494 21.4173 13.3531 20.9546 13.3444C20.484 13.3357 20.0991 13.7152 20.0991 14.1838V14.4547C20.0991 14.6914 19.9073 14.8838 19.67 14.8838C19.4333 14.8838 19.2409 14.6921 19.2409 14.4547V13.4503C19.2409 12.9884 18.8795 12.5914 18.4168 12.5827C17.9462 12.574 17.5613 12.9535 17.5613 13.4222V14.4547C17.5613 14.6914 17.3696 14.8838 17.1322 14.8838C16.8955 14.8838 16.7031 14.6921 16.7031 14.4547V12.5479C16.7031 12.0852 16.3417 11.689 15.8791 11.6802C15.4084 11.6715 15.0235 12.051 15.0235 12.5197V14.454C15.0235 14.6907 14.8318 14.8832 14.5944 14.8832C14.3577 14.8832 14.1653 14.6914 14.1653 14.454V7.63924C14.1653 7.1766 13.8039 6.78035 13.3413 6.77163C12.8706 6.76292 12.4857 7.14241 12.4857 7.61108V15.7843C12.4857 16.0552 12.1371 16.1651 11.9822 15.9432L10.6895 14.094C10.3784 13.6488 9.779 13.5656 9.3814 13.9351C9.10449 14.1919 9.0294 14.5922 9.18227 14.9274L11.893 20.8619C12.766 22.7734 14.6742 23.9997 16.7755 23.9997H17.4507C19.8396 23.9997 21.7766 22.0627 21.7766 19.6738V15.8741L21.7787 15.8755Z" fill="#233642"/>
<path d="M21.7787 15.8755V14.212C21.7787 13.7494 21.4173 13.3531 20.9546 13.3444C20.484 13.3357 20.0991 13.7152 20.0991 14.1838V14.4547C20.0991 14.6914 19.9073 14.8838 19.67 14.8838C19.4333 14.8838 19.2409 14.6921 19.2409 14.4547V13.4503C19.2409 12.9884 18.8795 12.5914 18.4168 12.5827C17.9462 12.574 17.5613 12.9535 17.5613 13.4222V14.4547C17.5613 14.6914 17.3696 14.8838 17.1322 14.8838C16.8955 14.8838 16.7031 14.6921 16.7031 14.4547V12.5479C16.7031 12.0852 16.3417 11.689 15.8791 11.6802C15.4084 11.6715 15.0235 12.051 15.0235 12.5197V14.454C15.0235 14.6907 14.8318 14.8832 14.5944 14.8832C14.3577 14.8832 14.1653 14.6914 14.1653 14.454V7.63924C14.1653 7.1766 13.8039 6.78035 13.3413 6.77163C12.8706 6.76292 12.4857 7.14241 12.4857 7.61108V15.7843C12.4857 16.0552 12.1371 16.1651 11.9822 15.9432L10.6895 14.094C10.3784 13.6488 9.779 13.5656 9.3814 13.9351C9.10449 14.1919 9.0294 14.5922 9.18227 14.9274L11.893 20.8619C12.766 22.7734 14.6742 23.9997 16.7755 23.9997H17.4507C19.8396 23.9997 21.7766 22.0627 21.7766 19.6738V15.8741L21.7787 15.8755Z" fill="url(#paint1_linear_383_807)"/>
<defs>
<linearGradient id="paint0_linear_383_807" x1="2.26865" y1="-0.550771" x2="12.5792" y2="15.3913" gradientUnits="userSpaceOnUse">
<stop stop-color="#FFD394"/>
<stop offset="1" stop-color="#FFB357"/>
</linearGradient>
<linearGradient id="paint1_linear_383_807" x1="10.3137" y1="5.93009" x2="25.5271" y2="15.026" gradientUnits="userSpaceOnUse">
<stop stop-color="#FFD394"/>
<stop offset="1" stop-color="#FFB357"/>
</linearGradient>
</defs>
</svg>
