<svg width="60" height="60" viewBox="0 0 60 60" fill="none" xmlns="http://www.w3.org/2000/svg">
<rect width="60" height="60" rx="10" fill="url(#paint0_linear_2001_645)"/>
<rect width="60" height="60" rx="10" fill="url(#paint1_linear_2001_645)"/>
<rect width="60" height="60" rx="10" fill="url(#paint2_linear_2001_645)"/>
<path d="M40.4973 25.5025C40.498 23.6951 40.032 21.9181 39.1445 20.3436C38.257 18.7691 36.9781 17.4503 35.4315 16.515C33.8849 15.5797 32.1231 15.0595 30.3165 15.0048C28.5099 14.9501 26.7198 15.3627 25.1194 16.2027C23.5191 17.0427 22.1627 18.2816 21.1815 19.7995C20.2004 21.3175 19.6277 23.063 19.519 24.8671C19.4103 26.6713 19.7692 28.4729 20.5609 30.0977C21.3527 31.7225 22.5505 33.1153 24.0384 34.1414L19.5 42.0004L22.8836 42.1399L24.6953 45L29.8937 35.9952L29.9986 36.0012C30.0511 36.0042 30.0676 35.9967 30.1036 35.9952L35.302 45L37.1497 42.2014L40.4973 42.0004L35.9589 34.1414C37.3591 33.1773 38.5039 31.8872 39.2945 30.3822C40.0852 28.8772 40.4979 27.2025 40.4973 25.5025ZM22.4996 25.5025C22.4996 24.0193 22.9394 22.5695 23.7634 21.3363C24.5874 20.1031 25.7586 19.1419 27.1289 18.5743C28.4992 18.0067 30.007 17.8582 31.4616 18.1476C32.9163 18.4369 34.2525 19.1511 35.3013 20.1999C36.35 21.2487 37.0642 22.5849 37.3536 24.0395C37.6429 25.4942 37.4944 27.002 36.9269 28.3723C36.3593 29.7425 35.3981 30.9137 34.1649 31.7377C32.9317 32.5617 31.4818 33.0015 29.9986 33.0015C28.0098 33.0015 26.1024 32.2115 24.696 30.8051C23.2897 29.3988 22.4996 27.4914 22.4996 25.5025Z" fill="white"/>
<path d="M29.9994 30.0027C32.4844 30.0027 34.4988 27.9883 34.4988 25.5033C34.4988 23.0184 32.4844 21.0039 29.9994 21.0039C27.5145 21.0039 25.5 23.0184 25.5 25.5033C25.5 27.9883 27.5145 30.0027 29.9994 30.0027Z" fill="white"/>
<defs>
<linearGradient id="paint0_linear_2001_645" x1="5.725" y1="-2.93027" x2="64.6019" y2="44.9198" gradientUnits="userSpaceOnUse">
<stop stop-color="#90BD21"/>
<stop offset="1" stop-color="#73AA2B"/>
</linearGradient>
<linearGradient id="paint1_linear_2001_645" x1="5.725" y1="-2.93027" x2="64.6019" y2="44.9198" gradientUnits="userSpaceOnUse">
<stop stop-color="#FF81F2"/>
<stop offset="1" stop-color="#EF0398"/>
</linearGradient>
<linearGradient id="paint2_linear_2001_645" x1="5.725" y1="-2.93027" x2="64.6019" y2="44.9198" gradientUnits="userSpaceOnUse">
<stop stop-color="#FFC181"/>
<stop offset="1" stop-color="#EF7B03"/>
</linearGradient>
</defs>
</svg>
