<svg width="116" height="101" viewBox="0 0 116 101" fill="none" xmlns="http://www.w3.org/2000/svg">
<path d="M79.6681 0.500204C82.0057 1.50964 83.5042 3.20203 84.6385 5.47064C85.1306 5.1426 85.6227 4.81455 86.1297 4.47656C90.6239 3.92135 94.3139 4.35672 98.0587 6.96178C99.0441 7.74828 99.7427 8.45876 100.544 9.447C100.544 9.77505 100.544 10.1031 100.544 10.4411C100.954 10.195 101.364 9.94901 101.787 9.69552C103.811 8.82773 105.336 8.49584 107.503 8.94995C109.492 10.1885 110.914 11.5422 111.745 13.7787C112.519 17.5841 112.366 21.7183 110.982 25.3524C108.624 25.1213 106.908 24.8345 105.017 23.3642C103.814 21.7312 103.385 20.3663 103.029 18.3938C102.879 18.8314 102.728 19.269 102.573 19.7199C100.816 24.5897 99.1229 26.9234 94.5794 29.3288C95.083 29.4191 95.083 29.4191 95.5968 29.5113C96.0402 29.5946 96.4836 29.6779 96.9404 29.7637C97.3786 29.8444 97.8169 29.9251 98.2684 30.0083C99.485 30.3069 100.448 30.7105 101.538 31.3169L102.035 31.8138L102.532 32.5594C102.532 32.5594 105.987 36.51 107.27 38.8464C107.428 39.1325 107.585 39.4186 107.748 39.7134C108.248 40.6205 108.745 41.5293 109.242 42.4383C109.739 43.3414 110.236 44.2442 110.733 45.1469C111.204 46.0018 111.672 46.8576 112.141 47.7133C112.799 48.9019 113.473 50.076 114.164 51.2453C115.268 53.2525 115.492 54.376 115.455 56.6662C114.472 58.2397 113.725 58.9123 111.947 59.4756C110.606 59.6453 109.779 59.5975 108.497 59.1514C106.018 56.913 104.457 54.1861 103.029 51.1987C103.253 52.9389 103.482 54.6783 103.713 56.4177C103.775 56.9059 103.838 57.3941 103.903 57.8971C104.188 60.0334 104.483 62.1294 105.033 64.215C105.551 66.2557 105.838 68.2475 106.074 70.3349C106.289 72.1802 106.289 72.1802 106.508 74.0627C103.392 74.0627 100.276 74.0627 97.0646 74.0627C97.0819 75.5768 97.0992 77.0908 97.1171 78.6507C97.1287 80.1197 97.1377 81.5887 97.1465 83.0577C97.154 84.0774 97.1642 85.097 97.1771 86.1167C97.1952 87.5837 97.2037 89.0505 97.2103 90.5176C97.2179 90.9723 97.2256 91.427 97.2336 91.8954C97.2344 95.0286 96.6911 96.6635 94.5794 99.0392C92.2546 101.073 89.0731 100.498 86.1607 100.499C85.6152 100.505 85.0696 100.511 84.5075 100.518C83.7199 100.519 83.7199 100.519 82.9164 100.521C82.4365 100.523 81.9566 100.525 81.4622 100.527C80.1296 100.403 79.3176 100.092 78.177 99.412L77.6799 98.6663L77.1829 97.9208C75.9134 95.5028 76.0617 93.1754 76.0917 90.5176C76.0931 90.0467 76.0945 89.5759 76.096 89.0907C76.1015 87.5917 76.114 86.0928 76.1267 84.5938C76.1316 83.5755 76.1362 82.5571 76.1402 81.5388C76.1503 79.0467 76.1698 76.5549 76.1888 74.0627C73.0723 74.0627 69.9558 74.0627 66.7449 74.0627C66.7449 71.3918 66.8957 69.5153 67.4594 66.9799C68.0362 64.2992 68.4348 61.6743 68.5797 58.9339C68.7331 57.6603 68.7331 57.6603 69.1997 56.081C69.7282 54.1772 70.0796 52.2908 70.3679 50.3405C70.4486 49.8106 70.4486 49.8106 70.5308 49.2701C70.643 48.5292 70.754 47.7883 70.864 47.0471C71.0321 45.9168 71.2046 44.7872 71.3776 43.6576C71.4865 42.9341 71.5953 42.2105 71.7037 41.4869C71.755 41.1519 71.8062 40.8168 71.859 40.4716C72.1139 38.7362 72.3579 37.0464 72.2124 35.2933C71.2995 34.2793 71.2995 34.2793 70.0379 33.4294C68.2075 32.0573 66.4719 30.6602 64.7878 29.1113C62.209 26.7579 59.5245 24.5579 56.8041 22.3701C56.8041 22.6982 56.8041 23.0262 56.8041 23.3642C56.0971 23.9534 55.3881 24.5402 54.6683 25.1136C53.8068 25.8625 53.1149 26.6442 52.3928 27.527C51.0517 29.1447 49.5812 30.4869 47.9679 31.8295C47.4211 32.3139 47.4211 32.3139 46.8632 32.8081C46.5816 33.0036 46.3001 33.1991 46.01 33.4005C44.341 34.7297 43.4955 35.746 43.0579 37.868C42.9332 39.854 42.9142 41.8146 42.9354 43.8032C42.9307 44.5338 42.9245 45.2643 42.9169 45.9948C42.9009 47.9078 42.9055 49.8203 42.9146 51.7334C42.9201 53.6893 42.906 55.6451 42.8936 57.6011C42.8722 61.4316 42.8726 65.2617 42.8868 69.0923C41.5746 69.0923 40.2624 69.0923 38.9105 69.0923C38.9154 69.5571 38.9154 69.5571 38.9205 70.0312C38.9536 73.2646 38.976 76.498 38.9924 79.7315C38.9999 80.9373 39.01 82.143 39.023 83.3487C39.0411 85.0847 39.0495 86.8205 39.0561 88.5566C39.0638 89.0931 39.0715 89.6297 39.0794 90.1824C39.0801 93.1602 37.4193 97.9208 37.4193 97.9208L36.9223 98.6663L35.9282 99.412C33.2742 100.449 30.8004 100.559 27.9755 100.53C27.5936 100.534 27.2118 100.538 26.8183 100.542C24.3805 100.534 22.3043 100.303 20.0228 99.412L19.2772 98.6663L18.5317 97.9208C16.6785 95.0866 16.8477 92.4113 16.8949 89.1022C16.897 88.5438 16.8991 87.9853 16.9013 87.41C16.9096 85.6324 16.9283 83.8551 16.9473 82.0776C16.9548 80.8699 16.9616 79.6622 16.9677 78.4546C16.9841 75.4994 17.0091 72.5444 17.0405 69.5893C16.3947 69.5996 15.7488 69.6098 15.0834 69.6204C14.4104 69.6311 13.7364 69.6249 13.0642 69.5893C12.0418 68.567 12.4392 66.4303 12.4099 65.0208C12.3995 64.6133 12.3892 64.2058 12.3786 63.786C12.346 62.4793 12.3167 61.1726 12.2876 59.8659C12.2661 58.9822 12.2444 58.0984 12.2225 57.2147C12.1692 55.0437 12.1189 52.8727 12.0701 50.7017C11.8442 51.4205 11.8442 51.4205 11.6138 52.154C11.4039 52.7883 11.1936 53.4226 10.9828 54.0567C10.781 54.6795 10.5792 55.3023 10.3712 55.9439C9.51633 57.8099 8.81876 58.5631 7.09966 59.6484C5.21161 60.1542 4.06381 60.2805 2.19135 59.7106C0.816172 58.3354 0.647008 57.4057 0.539062 55.4935C0.733335 52.9184 1.7083 50.6095 2.62626 48.2164C3.0427 47.0575 3.45686 45.8977 3.86887 44.7371C4.0771 44.1579 4.28534 43.5787 4.49988 42.9819C5.4046 40.4315 6.25392 37.8637 7.09966 35.2933C7.43067 34.2991 7.51342 33.3048 7.84522 32.3109L8.34227 30.8199H9.58488C10.171 30.8126 10.7571 30.8054 11.3609 30.7979C13.5621 30.7688 15.763 30.7305 17.964 30.6894C18.9116 30.673 19.8593 30.6591 20.807 30.6477C26.0333 30.5833 30.9098 30.468 35.9282 28.8317C36.8355 28.5857 36.8355 28.5857 37.7611 28.3347C38.33 28.0886 38.33 28.0886 38.9105 27.8376C39.0745 27.3456 39.2385 26.8535 39.4075 26.3465C40.1369 25.6287 40.1369 25.6287 41.0909 24.8495C44.057 22.3333 46.7394 19.5406 49.4682 16.7727C50.1553 16.0766 50.844 15.3819 51.5327 14.6873C51.9369 14.2774 52.341 13.8674 52.7575 13.4451C54.5498 11.7344 55.7581 11.1882 58.2583 11.2391C60.0984 11.5891 60.9977 12.5829 62.2715 13.9204C62.2715 14.2484 62.2715 14.5765 62.2715 14.9145C62.5483 15.0272 62.8251 15.14 63.1103 15.2562C64.5765 16.0883 65.5706 17.1901 66.7449 18.3938C67.1243 18.6706 67.5036 18.9474 67.8944 19.2326C68.1712 19.4478 68.4479 19.6631 68.7331 19.8849C68.7331 20.213 68.7331 20.541 68.7331 20.879C69.0919 20.9918 69.4507 21.1045 69.8204 21.2207C71.5051 22.0069 72.4235 23.0158 73.7036 24.3583C74.2475 24.8095 74.7964 25.2549 75.35 25.6941C76.0112 26.2631 76.0112 26.2631 76.6858 26.8435C76.6858 27.1716 76.6858 27.4996 76.6858 27.8376C77.3624 27.9299 77.3624 27.9299 78.0527 28.024C79.6681 28.3347 79.6681 28.3347 80.6932 28.8628C81.8961 29.4448 82.8202 29.3613 84.1415 29.3288C83.8474 29.1295 83.5533 28.9302 83.2503 28.7249C80.4225 26.6906 78.1574 24.8104 77.1829 21.3761C76.9912 19.9351 76.9258 18.5108 76.9033 17.058C76.8959 16.6977 76.8885 16.3373 76.8808 15.9661C76.9312 13.367 77.559 11.9791 79.1711 9.94404C77.4001 10.9768 77.4001 10.9768 75.7791 12.2235C74.4126 13.1116 73.55 13.1102 71.9328 13.0816C71.4606 13.0797 70.9884 13.0778 70.5019 13.0758C69.2302 12.9263 69.2302 12.9263 67.739 11.9322C67.9955 9.72698 68.4881 8.30043 69.7272 6.46473C70.0245 5.97266 70.3218 5.48059 70.6281 4.9736C73.044 1.66037 75.484 0.0568017 79.6681 0.500204Z" fill="#EFC334"/>
<path d="M79.6681 0.500204C82.0057 1.50964 83.5042 3.20203 84.6385 5.47064C85.1306 5.1426 85.6227 4.81455 86.1297 4.47656C90.6239 3.92135 94.3139 4.35672 98.0587 6.96178C99.0441 7.74828 99.7427 8.45876 100.544 9.447C100.544 9.77505 100.544 10.1031 100.544 10.4411C100.954 10.195 101.364 9.94901 101.787 9.69552C103.811 8.82773 105.336 8.49584 107.503 8.94995C109.492 10.1885 110.914 11.5422 111.745 13.7787C112.519 17.5841 112.366 21.7183 110.982 25.3524C108.624 25.1213 106.908 24.8345 105.017 23.3642C103.814 21.7312 103.385 20.3663 103.029 18.3938C102.879 18.8314 102.728 19.269 102.573 19.7199C100.816 24.5897 99.1229 26.9234 94.5794 29.3288C95.083 29.4191 95.083 29.4191 95.5968 29.5113C96.0402 29.5946 96.4836 29.6779 96.9404 29.7637C97.3786 29.8444 97.8169 29.9251 98.2684 30.0083C99.485 30.3069 100.448 30.7105 101.538 31.3169L102.035 31.8138L102.532 32.5594C102.532 32.5594 105.987 36.51 107.27 38.8464C107.428 39.1325 107.585 39.4186 107.748 39.7134C108.248 40.6205 108.745 41.5293 109.242 42.4383C109.739 43.3414 110.236 44.2442 110.733 45.1469C111.204 46.0018 111.672 46.8576 112.141 47.7133C112.799 48.9019 113.473 50.076 114.164 51.2453C115.268 53.2525 115.492 54.376 115.455 56.6662C114.472 58.2397 113.725 58.9123 111.947 59.4756C110.606 59.6453 109.779 59.5975 108.497 59.1514C106.018 56.913 104.457 54.1861 103.029 51.1987C103.253 52.9389 103.482 54.6783 103.713 56.4177C103.775 56.9059 103.838 57.3941 103.903 57.8971C104.188 60.0334 104.483 62.1294 105.033 64.215C105.551 66.2557 105.838 68.2475 106.074 70.3349C106.289 72.1802 106.289 72.1802 106.508 74.0627C103.392 74.0627 100.276 74.0627 97.0646 74.0627C97.0819 75.5768 97.0992 77.0908 97.1171 78.6507C97.1287 80.1197 97.1377 81.5887 97.1465 83.0577C97.154 84.0774 97.1642 85.097 97.1771 86.1167C97.1952 87.5837 97.2037 89.0505 97.2103 90.5176C97.2179 90.9723 97.2256 91.427 97.2336 91.8954C97.2344 95.0286 96.6911 96.6635 94.5794 99.0392C92.2546 101.073 89.0731 100.498 86.1607 100.499C85.6152 100.505 85.0696 100.511 84.5075 100.518C83.7199 100.519 83.7199 100.519 82.9164 100.521C82.4365 100.523 81.9566 100.525 81.4622 100.527C80.1296 100.403 79.3176 100.092 78.177 99.412L77.6799 98.6663L77.1829 97.9208C75.9134 95.5028 76.0617 93.1754 76.0917 90.5176C76.0931 90.0467 76.0945 89.5759 76.096 89.0907C76.1015 87.5917 76.114 86.0928 76.1267 84.5938C76.1316 83.5755 76.1362 82.5571 76.1402 81.5388C76.1503 79.0467 76.1698 76.5549 76.1888 74.0627C73.0723 74.0627 69.9558 74.0627 66.7449 74.0627C66.7449 71.3918 66.8957 69.5153 67.4594 66.9799C68.0362 64.2992 68.4348 61.6743 68.5797 58.9339C68.7331 57.6603 68.7331 57.6603 69.1997 56.081C69.7282 54.1772 70.0796 52.2908 70.3679 50.3405C70.4486 49.8106 70.4486 49.8106 70.5308 49.2701C70.643 48.5292 70.754 47.7883 70.864 47.0471C71.0321 45.9168 71.2046 44.7872 71.3776 43.6576C71.4865 42.9341 71.5953 42.2105 71.7037 41.4869C71.755 41.1519 71.8062 40.8168 71.859 40.4716C72.1139 38.7362 72.3579 37.0464 72.2124 35.2933C71.2995 34.2793 71.2995 34.2793 70.0379 33.4294C68.2075 32.0573 66.4719 30.6602 64.7878 29.1113C62.209 26.7579 59.5245 24.5579 56.8041 22.3701C56.8041 22.6982 56.8041 23.0262 56.8041 23.3642C56.0971 23.9534 55.3881 24.5402 54.6683 25.1136C53.8068 25.8625 53.1149 26.6442 52.3928 27.527C51.0517 29.1447 49.5812 30.4869 47.9679 31.8295C47.4211 32.3139 47.4211 32.3139 46.8632 32.8081C46.5816 33.0036 46.3001 33.1991 46.01 33.4005C44.341 34.7297 43.4955 35.746 43.0579 37.868C42.9332 39.854 42.9142 41.8146 42.9354 43.8032C42.9307 44.5338 42.9245 45.2643 42.9169 45.9948C42.9009 47.9078 42.9055 49.8203 42.9146 51.7334C42.9201 53.6893 42.906 55.6451 42.8936 57.6011C42.8722 61.4316 42.8726 65.2617 42.8868 69.0923C41.5746 69.0923 40.2624 69.0923 38.9105 69.0923C38.9154 69.5571 38.9154 69.5571 38.9205 70.0312C38.9536 73.2646 38.976 76.498 38.9924 79.7315C38.9999 80.9373 39.01 82.143 39.023 83.3487C39.0411 85.0847 39.0495 86.8205 39.0561 88.5566C39.0638 89.0931 39.0715 89.6297 39.0794 90.1824C39.0801 93.1602 37.4193 97.9208 37.4193 97.9208L36.9223 98.6663L35.9282 99.412C33.2742 100.449 30.8004 100.559 27.9755 100.53C27.5936 100.534 27.2118 100.538 26.8183 100.542C24.3805 100.534 22.3043 100.303 20.0228 99.412L19.2772 98.6663L18.5317 97.9208C16.6785 95.0866 16.8477 92.4113 16.8949 89.1022C16.897 88.5438 16.8991 87.9853 16.9013 87.41C16.9096 85.6324 16.9283 83.8551 16.9473 82.0776C16.9548 80.8699 16.9616 79.6622 16.9677 78.4546C16.9841 75.4994 17.0091 72.5444 17.0405 69.5893C16.3947 69.5996 15.7488 69.6098 15.0834 69.6204C14.4104 69.6311 13.7364 69.6249 13.0642 69.5893C12.0418 68.567 12.4392 66.4303 12.4099 65.0208C12.3995 64.6133 12.3892 64.2058 12.3786 63.786C12.346 62.4793 12.3167 61.1726 12.2876 59.8659C12.2661 58.9822 12.2444 58.0984 12.2225 57.2147C12.1692 55.0437 12.1189 52.8727 12.0701 50.7017C11.8442 51.4205 11.8442 51.4205 11.6138 52.154C11.4039 52.7883 11.1936 53.4226 10.9828 54.0567C10.781 54.6795 10.5792 55.3023 10.3712 55.9439C9.51633 57.8099 8.81876 58.5631 7.09966 59.6484C5.21161 60.1542 4.06381 60.2805 2.19135 59.7106C0.816172 58.3354 0.647008 57.4057 0.539062 55.4935C0.733335 52.9184 1.7083 50.6095 2.62626 48.2164C3.0427 47.0575 3.45686 45.8977 3.86887 44.7371C4.0771 44.1579 4.28534 43.5787 4.49988 42.9819C5.4046 40.4315 6.25392 37.8637 7.09966 35.2933C7.43067 34.2991 7.51342 33.3048 7.84522 32.3109L8.34227 30.8199H9.58488C10.171 30.8126 10.7571 30.8054 11.3609 30.7979C13.5621 30.7688 15.763 30.7305 17.964 30.6894C18.9116 30.673 19.8593 30.6591 20.807 30.6477C26.0333 30.5833 30.9098 30.468 35.9282 28.8317C36.8355 28.5857 36.8355 28.5857 37.7611 28.3347C38.33 28.0886 38.33 28.0886 38.9105 27.8376C39.0745 27.3456 39.2385 26.8535 39.4075 26.3465C40.1369 25.6287 40.1369 25.6287 41.0909 24.8495C44.057 22.3333 46.7394 19.5406 49.4682 16.7727C50.1553 16.0766 50.844 15.3819 51.5327 14.6873C51.9369 14.2774 52.341 13.8674 52.7575 13.4451C54.5498 11.7344 55.7581 11.1882 58.2583 11.2391C60.0984 11.5891 60.9977 12.5829 62.2715 13.9204C62.2715 14.2484 62.2715 14.5765 62.2715 14.9145C62.5483 15.0272 62.8251 15.14 63.1103 15.2562C64.5765 16.0883 65.5706 17.1901 66.7449 18.3938C67.1243 18.6706 67.5036 18.9474 67.8944 19.2326C68.1712 19.4478 68.4479 19.6631 68.7331 19.8849C68.7331 20.213 68.7331 20.541 68.7331 20.879C69.0919 20.9918 69.4507 21.1045 69.8204 21.2207C71.5051 22.0069 72.4235 23.0158 73.7036 24.3583C74.2475 24.8095 74.7964 25.2549 75.35 25.6941C76.0112 26.2631 76.0112 26.2631 76.6858 26.8435C76.6858 27.1716 76.6858 27.4996 76.6858 27.8376C77.3624 27.9299 77.3624 27.9299 78.0527 28.024C79.6681 28.3347 79.6681 28.3347 80.6932 28.8628C81.8961 29.4448 82.8202 29.3613 84.1415 29.3288C83.8474 29.1295 83.5533 28.9302 83.2503 28.7249C80.4225 26.6906 78.1574 24.8104 77.1829 21.3761C76.9912 19.9351 76.9258 18.5108 76.9033 17.058C76.8959 16.6977 76.8885 16.3373 76.8808 15.9661C76.9312 13.367 77.559 11.9791 79.1711 9.94404C77.4001 10.9768 77.4001 10.9768 75.7791 12.2235C74.4126 13.1116 73.55 13.1102 71.9328 13.0816C71.4606 13.0797 70.9884 13.0778 70.5019 13.0758C69.2302 12.9263 69.2302 12.9263 67.739 11.9322C67.9955 9.72698 68.4881 8.30043 69.7272 6.46473C70.0245 5.97266 70.3218 5.48059 70.6281 4.9736C73.044 1.66037 75.484 0.0568017 79.6681 0.500204Z" fill="url(#paint0_linear_2001_6220)"/>
<path d="M24.587 4.8699C28.0236 4.70909 31.0783 5.55054 33.9395 7.45803C33.9395 7.78608 33.9395 8.11413 33.9395 8.45212C34.2394 8.5777 34.5393 8.70328 34.8482 8.83267C36.8596 9.97585 37.6638 11.7872 38.4129 13.9196C39.0617 18.3427 38.6299 22.2134 35.9277 25.8487C33.5922 28.3322 31.4845 30.2193 28.008 30.4541C27.2618 30.4567 26.5156 30.454 25.7694 30.4463C25.3962 30.4502 25.0229 30.454 24.6384 30.458C22.5448 30.4506 20.9393 30.2854 19.0282 29.328C19.0282 28.9999 19.0282 28.6719 19.0282 28.3339C18.6508 28.2128 18.2734 28.0917 17.8846 27.9669C15.168 26.6971 13.902 23.7661 12.8773 21.0646C12.0907 16.8168 12.9237 13.6798 15.0519 9.94325C17.0731 7.50312 19.3047 5.58436 22.4939 5.06018C23.1919 4.99967 23.8895 4.93603 24.587 4.8699Z" fill="#EFC334"/>
<path d="M24.587 4.8699C28.0236 4.70909 31.0783 5.55054 33.9395 7.45803C33.9395 7.78608 33.9395 8.11413 33.9395 8.45212C34.2394 8.5777 34.5393 8.70328 34.8482 8.83267C36.8596 9.97585 37.6638 11.7872 38.4129 13.9196C39.0617 18.3427 38.6299 22.2134 35.9277 25.8487C33.5922 28.3322 31.4845 30.2193 28.008 30.4541C27.2618 30.4567 26.5156 30.454 25.7694 30.4463C25.3962 30.4502 25.0229 30.454 24.6384 30.458C22.5448 30.4506 20.9393 30.2854 19.0282 29.328C19.0282 28.9999 19.0282 28.6719 19.0282 28.3339C18.6508 28.2128 18.2734 28.0917 17.8846 27.9669C15.168 26.6971 13.902 23.7661 12.8773 21.0646C12.0907 16.8168 12.9237 13.6798 15.0519 9.94325C17.0731 7.50312 19.3047 5.58436 22.4939 5.06018C23.1919 4.99967 23.8895 4.93603 24.587 4.8699Z" fill="url(#paint1_linear_2001_6220)"/>
<defs>
<linearGradient id="paint0_linear_2001_6220" x1="11.5043" y1="-4.46316" x2="111.652" y2="88.936" gradientUnits="userSpaceOnUse">
<stop stop-color="#0081C9"/>
<stop offset="1" stop-color="#0051A1"/>
</linearGradient>
<linearGradient id="paint1_linear_2001_6220" x1="15.0756" y1="3.59998" x2="40.2961" y2="24.4857" gradientUnits="userSpaceOnUse">
<stop stop-color="#0081C9"/>
<stop offset="1" stop-color="#0051A1"/>
</linearGradient>
</defs>
</svg>
