<svg width="130" height="150" viewBox="0 0 130 150" fill="none" xmlns="http://www.w3.org/2000/svg">
<path d="M129.286 123.214C129.286 139.286 100.508 150 65.0006 150C29.4934 150 0.714844 139.286 0.714844 123.214C0.714844 107.143 29.4934 96.4287 65.0006 96.4287C100.508 96.4287 129.286 107.143 129.286 123.214Z" fill="url(#paint0_linear_2001_11683)" fill-opacity="0.3"/>
<path d="M65.0011 0C50.7931 0 37.167 5.64412 27.1204 15.6907C17.0738 25.7373 11.4297 39.3634 11.4297 53.5714C11.4297 65.8286 18.394 78.75 26.3547 89.7C34.4654 100.875 44.3225 110.979 51.4904 117.771C55.1275 121.252 59.9672 123.194 65.0011 123.194C70.035 123.194 74.8747 121.252 78.5118 117.771C85.6797 110.979 95.5368 100.875 103.648 89.7C111.598 78.75 118.573 65.8286 118.573 53.5714C118.573 46.5363 117.187 39.5701 114.495 33.0705C111.802 26.5709 107.856 20.6653 102.882 15.6907C97.9073 10.7161 92.0016 6.7701 85.502 4.07788C79.0024 1.38567 72.0362 0 65.0011 0Z" fill="url(#paint1_linear_2001_11683)"/>
<path d="M81.0725 53.5714C81.0725 57.8338 79.3793 61.9217 76.3653 64.9356C73.3514 67.9496 69.2635 69.6429 65.0011 69.6429C60.7387 69.6429 56.6509 67.9496 53.6369 64.9356C50.6229 61.9217 48.9297 57.8338 48.9297 53.5714C48.9297 49.309 50.6229 45.2212 53.6369 42.2072C56.6509 39.1932 60.7387 37.5 65.0011 37.5C69.2635 37.5 73.3514 39.1932 76.3653 42.2072C79.3793 45.2212 81.0725 49.309 81.0725 53.5714Z" fill="url(#paint2_linear_2001_11683)"/>
<defs>
<linearGradient id="paint0_linear_2001_11683" x1="12.9827" y1="93.8124" x2="56.587" y2="178.863" gradientUnits="userSpaceOnUse">
<stop stop-color="#3C549F"/>
<stop offset="1" stop-color="#1E398E"/>
</linearGradient>
<linearGradient id="paint1_linear_2001_11683" x1="21.6529" y1="-6.01653" x2="138.071" y2="76.2708" gradientUnits="userSpaceOnUse">
<stop stop-color="#3C549F"/>
<stop offset="1" stop-color="#1E398E"/>
</linearGradient>
<linearGradient id="paint2_linear_2001_11683" x1="51.9967" y1="35.9302" x2="83.5378" y2="61.5642" gradientUnits="userSpaceOnUse">
<stop stop-color="white"/>
<stop offset="1" stop-color="white"/>
</linearGradient>
</defs>
</svg>
