<svg width="30" height="24" viewBox="0 0 30 24" fill="none" xmlns="http://www.w3.org/2000/svg">
<g style="mix-blend-mode:multiply">
<path d="M29.5214 9.9089L29.1205 9.45214L28.0629 8.24726C27.8184 7.9688 27.4803 7.80222 27.1106 7.77818C26.741 7.75413 26.3841 7.87539 26.1056 8.11983L24.5871 9.45272L24.2394 9.75787L23.9105 10.0466L21.2461 12.3854L21.3273 11.1377L21.8722 2.76831C21.8995 2.34924 21.7619 1.94453 21.4848 1.62883C21.2078 1.31313 20.8243 1.12426 20.4053 1.09699L6.06382 0.16323L3.60845 0.00339945C3.18937 -0.0238743 2.78466 0.113668 2.46896 0.390658C2.15326 0.667648 1.9644 1.05109 1.93698 1.47017L0.843243 18.2671C0.815969 18.6862 0.95351 19.0909 1.23065 19.4066C1.50764 19.7223 1.89108 19.9112 2.31016 19.9385L4.76553 20.0983L12.0483 20.5725L12.8506 20.6247L11.8964 23.2917C11.8407 23.4472 11.8615 23.6228 11.9523 23.7607C12.0431 23.8992 12.1956 23.9882 12.3604 23.9989C12.4095 24.0021 12.4591 23.9984 12.5075 23.9879L16.1667 23.1944L16.3915 23.1456L16.5928 23.1019L16.8229 22.9L27.5275 13.5042L27.8752 13.1991L29.3937 11.8662C29.6722 11.6217 29.8387 11.2836 29.8628 10.9139C29.8868 10.5443 29.7656 10.1874 29.5211 9.9089H29.5214Z" fill="#DEDEDE"/>
</g>
<path d="M19.0282 0.889648H2.1958C1.58288 0.889648 1.08594 1.38659 1.08594 1.99937V18.832C1.08594 19.4449 1.58288 19.9417 2.1958 19.9417H12.9154L13.1346 19.1754C13.1447 19.1399 13.1641 19.107 13.1905 19.0806L13.5043 18.7666L20.138 12.1329V1.99937C20.138 1.38659 19.641 0.889648 19.0281 0.889648H19.0282Z" fill="url(#paint0_linear_2001_158)"/>
<path d="M16.0815 22.3154L13.4468 19.6807L12.4245 23.2547C12.4119 23.299 12.4462 23.3403 12.4886 23.3403C12.4948 23.3403 12.5011 23.3394 12.5074 23.3375L16.0815 22.3154Z" fill="#FBE5E5"/>
<path d="M26.6148 12.0178L23.7445 9.14746L13.6731 19.2189L13.6562 19.2355L16.5267 22.106L26.6148 12.0178Z" fill="url(#paint1_linear_2001_158)"/>
<path d="M28.3694 8.9542L26.8062 7.3908C26.6257 7.2103 26.3892 7.12012 26.1526 7.12012C25.9161 7.12012 25.6796 7.2103 25.4991 7.3908L24.0703 8.81945L26.9408 11.6899L28.3694 10.2613C28.7305 9.90028 28.7305 9.31521 28.3694 8.9542Z" fill="#DDEAFB"/>
<path d="M28.6988 8.6268L27.1355 7.0634C26.8736 6.80151 26.5252 6.65723 26.1548 6.65723C25.7845 6.65723 25.436 6.80151 25.1742 7.0634L23.7455 8.49205L23.4184 8.81918L13.3469 18.8907L13.1305 19.1071L13.0739 19.3053L13.0107 19.5263L11.9812 23.1265C11.9357 23.2854 11.968 23.459 12.0674 23.5908C12.1669 23.723 12.325 23.8019 12.49 23.8019C12.5392 23.8019 12.5884 23.795 12.636 23.7813L16.236 22.7518L16.4571 22.6886L16.6552 22.632L16.8717 22.4156L26.9431 12.3441L27.2703 12.017L28.6989 10.5883C28.9608 10.3264 29.1051 9.97802 29.1051 9.60763C29.1051 9.23723 28.9608 8.88883 28.6989 8.62695L28.6988 8.6268ZM12.4257 23.2536L13.4481 19.6796L16.0828 22.3143L12.5086 23.3364C12.5023 23.3383 12.496 23.3392 12.4898 23.3392C12.4473 23.3392 12.413 23.2979 12.4257 23.2536ZM16.5278 22.105L13.6575 19.2347L13.6742 19.2181L23.7455 9.14662L26.6159 12.017L16.5278 22.1052V22.105ZM26.943 11.6897L24.0725 8.81918L25.5013 7.39054C25.6818 7.21003 25.9183 7.11985 26.1548 7.11985C26.3914 7.11985 26.6279 7.21003 26.8084 7.39054L28.3716 8.95394C28.7325 9.31495 28.7325 9.90002 28.3716 10.261L26.943 11.6897Z" fill="#F26222"/>
<path d="M4.61259 6.56599H16.6139C16.9803 6.56599 17.2773 6.26891 17.2773 5.90263C17.2773 5.53634 16.9802 5.23926 16.6139 5.23926H4.61259C4.24615 5.23926 3.94922 5.53634 3.94922 5.90263C3.94922 6.26891 4.2463 6.56599 4.61259 6.56599Z" fill="#FBE5E5"/>
<path d="M16.6139 9.75098H4.61259C4.24615 9.75098 3.94922 10.0481 3.94922 10.4143C3.94922 10.7806 4.2463 11.0777 4.61259 11.0777H16.6139C16.9803 11.0777 17.2773 10.7806 17.2773 10.4143C17.2773 10.0481 16.9802 9.75098 16.6139 9.75098Z" fill="#FBE5E5"/>
<path d="M12.7362 14.2627H4.61259C4.24615 14.2627 3.94922 14.5598 3.94922 14.9261C3.94922 15.2924 4.2463 15.5894 4.61259 15.5894H12.7362C13.1026 15.5894 13.3996 15.2924 13.3996 14.9261C13.3996 14.5598 13.1025 14.2627 12.7362 14.2627Z" fill="#FBE5E5"/>
<path d="M1.60238 19.3484V2.51581C1.60238 1.90303 2.09932 1.40609 2.71224 1.40609H19.5447C19.7179 1.40609 19.8816 1.44583 20.0277 1.5165C19.8481 1.14552 19.468 0.889648 19.0282 0.889648H2.1958C1.58288 0.889648 1.08594 1.38659 1.08594 1.99937V18.832C1.08594 19.2717 1.34181 19.6516 1.71279 19.8313C1.64212 19.6852 1.60253 19.5214 1.60253 19.3484H1.60238Z" fill="#FFC273"/>
<g style="mix-blend-mode:color-burn">
<path d="M13.8643 20.0981L16.0815 22.3154L13.4468 19.6807L12.4245 23.2547C12.4119 23.299 12.4462 23.3403 12.4886 23.3403C12.4948 23.3403 12.5011 23.3394 12.5074 23.3375L12.976 23.2035L13.8643 20.0981Z" fill="#757574"/>
</g>
<path d="M24.1619 9.56492L26.6148 12.0178L23.7445 9.14746L13.6731 19.2189L13.6562 19.2355L14.0737 19.653L14.0904 19.6364L24.1619 9.56492Z" fill="url(#paint2_linear_2001_158)"/>
<path d="M25.9164 7.80827C26.0969 7.62776 26.3334 7.53758 26.57 7.53758C26.8065 7.53758 27.043 7.62776 27.2235 7.80827L26.8062 7.3908C26.6257 7.2103 26.3892 7.12012 26.1526 7.12012C25.9161 7.12012 25.6796 7.2103 25.4991 7.3908L24.0703 8.81945L24.4878 9.23691L25.9164 7.80827Z" fill="#C0D6ED"/>
<g style="mix-blend-mode:color-burn">
<path d="M4.36932 6.32273C4.36932 5.95629 4.6664 5.65936 5.03269 5.65936H17.034C17.1072 5.65936 17.1776 5.67138 17.2434 5.69323C17.1557 5.42944 16.9072 5.23926 16.6139 5.23926H4.61259C4.24615 5.23926 3.94922 5.53634 3.94922 5.90263C3.94922 6.19589 4.13955 6.44444 4.40319 6.53212C4.38135 6.46628 4.36932 6.3959 4.36932 6.32273Z" fill="#757574"/>
</g>
<g style="mix-blend-mode:color-burn">
<path d="M4.36932 10.8344C4.36932 10.468 4.6664 10.1711 5.03269 10.1711H17.034C17.1072 10.1711 17.1776 10.1831 17.2434 10.205C17.1557 9.94116 16.9072 9.75098 16.6139 9.75098H4.61259C4.24615 9.75098 3.94922 10.0481 3.94922 10.4143C3.94922 10.7076 4.13955 10.9562 4.40319 11.0438C4.38135 10.978 4.36932 10.9076 4.36932 10.8344Z" fill="#757574"/>
</g>
<g style="mix-blend-mode:color-burn">
<path d="M4.36932 15.3462C4.36932 14.9797 4.6664 14.6828 5.03269 14.6828H13.1563C13.2295 14.6828 13.2999 14.6948 13.3657 14.7167C13.278 14.4529 13.0295 14.2627 12.7362 14.2627H4.61259C4.24615 14.2627 3.94922 14.5598 3.94922 14.9261C3.94922 15.2193 4.13955 15.4679 4.40319 15.5556C4.38135 15.4897 4.36932 15.4193 4.36932 15.3462Z" fill="#757574"/>
</g>
<path d="M25.5905 12.2045L19.3315 18.4636C19.2548 18.5402 19.1303 18.5402 19.0536 18.4636C18.9769 18.3869 18.9769 18.2624 19.0536 18.1857L25.3126 11.9267C25.3893 11.85 25.5138 11.85 25.5905 11.9267C25.6672 12.0033 25.6672 12.1278 25.5905 12.2045Z" fill="#F26222"/>
<path d="M25.0192 11.6352L21.6088 15.0456C21.5321 15.1223 21.4076 15.1223 21.331 15.0456C21.2543 14.9689 21.2543 14.8444 21.331 14.7677L24.7413 11.3573C24.818 11.2806 24.9425 11.2806 25.0192 11.3573C25.0959 11.434 25.0959 11.5585 25.0192 11.6352Z" fill="#F26222"/>
<path d="M21.1252 15.5307L20.7221 15.9338C20.6454 16.0105 20.5209 16.0105 20.4442 15.9338C20.3675 15.8571 20.3675 15.7326 20.4442 15.6559L20.8473 15.2528C20.924 15.1761 21.0485 15.1761 21.1252 15.2528C21.2019 15.3295 21.2019 15.454 21.1252 15.5307Z" fill="#F26222"/>
<defs>
<linearGradient id="paint0_linear_2001_158" x1="2.90382" y1="-0.0408123" x2="21.5992" y2="15.1532" gradientUnits="userSpaceOnUse">
<stop stop-color="#FFD394"/>
<stop offset="1" stop-color="#FFB357"/>
</linearGradient>
<linearGradient id="paint1_linear_2001_158" x1="14.8927" y1="8.51459" x2="27.6087" y2="18.8491" gradientUnits="userSpaceOnUse">
<stop stop-color="#FFD394"/>
<stop offset="1" stop-color="#FFB357"/>
</linearGradient>
<linearGradient id="paint2_linear_2001_158" x1="14.8927" y1="8.63439" x2="25.424" y2="19.1918" gradientUnits="userSpaceOnUse">
<stop stop-color="#FFD394"/>
<stop offset="1" stop-color="#FFB357"/>
</linearGradient>
</defs>
</svg>
