<svg width="100" height="101" viewBox="0 0 100 101" fill="none" xmlns="http://www.w3.org/2000/svg">
<g clip-path="url(#clip0_383_1780)">
<path fill-rule="evenodd" clip-rule="evenodd" d="M82.5676 67.2029V74.367C84.475 73.9254 85.894 72.4881 85.894 70.7852C85.894 69.0822 84.475 67.6441 82.5676 67.2029ZM80.1067 64.4686V57.3066C78.19 57.7479 76.7803 59.1853 76.7803 60.8881C76.7803 62.5908 78.19 64.0271 80.1067 64.4686ZM82.5676 57.3062V64.7029C85.8488 65.2189 88.3451 67.7484 88.3451 70.7854C88.3451 73.8223 85.8479 76.3537 82.5676 76.865V78.4453C82.5676 78.7717 82.438 79.0846 82.2072 79.3154C81.9764 79.5461 81.6635 79.6758 81.3371 79.6758C81.0108 79.6758 80.6978 79.5461 80.467 79.3154C80.2363 79.0846 80.1067 78.7717 80.1067 78.4453V76.865C76.8254 76.3537 74.3199 73.8225 74.3199 70.7854C74.3199 70.459 74.4496 70.146 74.6803 69.9153C74.9111 69.6845 75.2241 69.5549 75.5504 69.5549C75.8767 69.5549 76.1897 69.6845 76.4205 69.9153C76.6512 70.146 76.7809 70.459 76.7809 70.7854C76.7809 72.4883 78.1906 73.9256 80.1072 74.3672V66.9688C76.826 66.4547 74.3205 63.9262 74.3205 60.8881C74.3205 57.85 76.8268 55.3199 80.1072 54.8066V53.2264C80.1072 52.9 80.2369 52.5871 80.4676 52.3563C80.6984 52.1255 81.0114 51.9959 81.3377 51.9959C81.664 51.9959 81.977 52.1255 82.2078 52.3563C82.4385 52.5871 82.5682 52.9 82.5682 53.2264V54.8066C85.8494 55.3199 88.3457 57.8512 88.3457 60.8881C88.3457 61.2131 88.2166 61.5249 87.9867 61.7547C87.7569 61.9845 87.4452 62.1137 87.1201 62.1137C86.7951 62.1137 86.4834 61.9845 86.2535 61.7547C86.0237 61.5249 85.8945 61.2131 85.8945 60.8881C85.8945 59.1853 84.475 57.7475 82.5676 57.3062ZM100.001 65.8332C100.002 69.5245 98.9082 73.1332 96.8581 76.2028C94.8079 79.2725 91.8936 81.6652 88.4835 83.0786C85.0735 84.4919 81.3209 84.8623 77.7004 84.143C74.0798 83.4236 70.7539 81.6468 68.1431 79.0372C65.5324 76.4277 63.7541 73.1025 63.0331 69.4823C62.3121 65.8621 62.6808 62.1093 64.0926 58.6987C65.5044 55.288 67.8959 52.3726 70.9646 50.321C74.0333 48.2695 77.6415 47.174 81.3328 47.173C86.2811 47.1778 91.0255 49.145 94.5253 52.6432C98.025 56.1414 99.9944 60.8849 100.001 65.8332ZM60.4623 69.0867H29.6398C29.0999 69.0842 28.5829 68.8683 28.2015 68.4861C27.82 68.104 27.6051 67.5866 27.6035 67.0467V43.4334H90.5381V46.826C87.0688 45.1502 83.2073 44.4548 79.3713 44.8149C75.5354 45.175 71.8708 46.5769 68.774 48.8691C65.6771 51.1613 63.2659 54.2565 61.8009 57.8199C60.336 61.3834 59.8731 65.2792 60.4623 69.0867ZM57.8178 71.5443H29.6398C28.4491 71.5407 27.3082 71.0654 26.4672 70.2224C25.6261 69.3794 25.1534 68.2375 25.1525 67.0467V27.5623C25.1536 26.3716 25.6263 25.2298 26.4674 24.3868C27.3084 23.5439 28.4491 23.0686 29.6398 23.0648H57.8178V7.17734C57.8162 6.22722 57.438 5.31647 56.7661 4.64473C56.0942 3.97298 55.1833 3.59504 54.2332 3.59375H3.58145C2.63134 3.59504 1.72051 3.97299 1.04861 4.64474C0.376713 5.31649 -0.00143124 6.22724 -0.00292969 7.17734V85.4803H57.8178V71.5443ZM57.8178 93.8258C57.8158 94.7756 57.4374 95.6859 56.7655 96.3572C56.0936 97.0285 55.183 97.4062 54.2332 97.4074H3.58145C2.63173 97.4062 1.72122 97.0286 1.04938 96.3573C0.377538 95.6861 -0.0008632 94.7759 -0.00292969 93.8262V87.9391H57.8178V93.8258ZM88.5014 25.5229C89.0417 25.5235 89.5597 25.7386 89.9416 26.1209C90.3234 26.5033 90.5378 27.0216 90.5377 27.5619V33.9605H27.6035V27.5623C27.605 27.0224 27.8199 26.5051 28.2014 26.1231C28.5829 25.7411 29.1 25.5255 29.6398 25.5232L88.5014 25.5229ZM27.6029 40.9746V36.4221H90.5381V40.975L27.6029 40.9746ZM33.943 91.4451H23.8717C23.5531 91.4565 23.2514 91.591 23.0301 91.8204C22.8087 92.0497 22.6851 92.3561 22.6851 92.6748C22.6851 92.9936 22.8087 93.2999 23.0301 93.5292C23.2514 93.7586 23.5531 93.8931 23.8717 93.9045H33.943C34.2615 93.8931 34.5632 93.7586 34.7846 93.5292C35.0059 93.2999 35.1296 92.9936 35.1296 92.6748C35.1296 92.3561 35.0059 92.0497 34.7846 91.8204C34.5632 91.591 34.2615 91.4565 33.943 91.4451ZM22.2131 6.23652C22.5364 6.2406 22.8451 6.3719 23.0723 6.60197C23.2995 6.83205 23.4269 7.14238 23.4269 7.46572C23.4269 7.78907 23.2995 8.0994 23.0723 8.32947C22.8451 8.55955 22.5364 8.69085 22.2131 8.69492H22.1486C21.9859 8.69697 21.8244 8.66669 21.6735 8.60584C21.5225 8.54499 21.3852 8.45477 21.2694 8.34043C21.1536 8.22608 21.0617 8.08988 20.9989 7.93973C20.9362 7.78958 20.9038 7.62846 20.9038 7.46572C20.9038 7.30299 20.9362 7.14187 20.9989 6.99171C21.0617 6.84156 21.1536 6.70536 21.2694 6.59102C21.3852 6.47667 21.5225 6.38646 21.6735 6.3256C21.8244 6.26475 21.9859 6.23447 22.1486 6.23652H22.2131ZM25.6039 8.69492C25.4412 8.69697 25.2797 8.66669 25.1287 8.60584C24.9778 8.54499 24.8405 8.45477 24.7247 8.34043C24.6089 8.22608 24.5169 8.08988 24.4542 7.93973C24.3914 7.78958 24.3591 7.62846 24.3591 7.46572C24.3591 7.30299 24.3914 7.14187 24.4542 6.99171C24.5169 6.84156 24.6089 6.70536 24.7247 6.59102C24.8405 6.47667 24.9778 6.38646 25.1287 6.3256C25.2797 6.26475 25.4412 6.23447 25.6039 6.23652H35.6662C35.8289 6.23447 35.9905 6.26475 36.1414 6.3256C36.2923 6.38646 36.4297 6.47667 36.5455 6.59102C36.6613 6.70536 36.7532 6.84156 36.8159 6.99171C36.8787 7.14187 36.911 7.30299 36.911 7.46572C36.911 7.62846 36.8787 7.78958 36.8159 7.93973C36.7532 8.08988 36.6613 8.22608 36.5455 8.34043C36.4297 8.45477 36.2923 8.54499 36.1414 8.60584C35.9905 8.66669 35.8289 8.69697 35.6662 8.69492H25.6039Z" fill="url(#paint0_linear_383_1780)"/>
</g>
<defs>
<linearGradient id="paint0_linear_383_1780" x1="9.53915" y1="-0.987911" x2="102.624" y2="79.6553" gradientUnits="userSpaceOnUse">
<stop stop-color="#90BD21"/>
<stop offset="1" stop-color="#73AA2B"/>
</linearGradient>
<clipPath id="clip0_383_1780">
<rect width="100" height="100" fill="white" transform="translate(0 0.5)"/>
</clipPath>
</defs>
</svg>
