<svg width="84" height="101" viewBox="0 0 84 101" fill="none" xmlns="http://www.w3.org/2000/svg">
<path fill-rule="evenodd" clip-rule="evenodd" d="M4.09595 51.6646H79.9022C81.6209 51.6646 83.0272 50.2583 83.0272 48.5396V45.2208C83.0272 43.5021 81.6209 42.0958 79.9022 42.0958H4.09595C2.3772 42.0958 0.970947 43.5021 0.970947 45.2208V48.5396C0.970947 50.2583 2.3772 51.6646 4.09595 51.6646ZM4.73553 0.5H12.248V21.4708H16.0126L8.49178 30.7667L0.970947 21.4708H4.73553V0.5ZM71.7522 0.5H79.2647V21.4708H83.0293L75.5084 30.7667L67.9876 21.4708H71.7522V0.5ZM14.4939 100.5H69.5084C71.8001 100.5 73.6751 98.625 73.6751 96.3333V54.1646H10.3272V96.3333C10.3272 98.625 12.2022 100.5 14.4939 100.5ZM42.0001 3.13333C53.2397 3.13333 62.3522 12.2458 62.3522 23.4854C62.3522 30.0417 59.2501 35.8729 54.4355 39.5958H43.7709C51.9751 38.7042 58.2084 31.75 58.2084 23.4854C58.2084 14.5354 50.9522 7.27917 42.0022 7.27917C33.0522 7.27917 25.7959 14.5354 25.7959 23.4854C25.7959 31.75 32.0272 38.7042 40.2314 39.5958H29.5668C24.7522 35.8729 21.6501 30.0417 21.6501 23.4854C21.648 12.2458 30.7605 3.13333 42.0001 3.13333ZM47.6814 19.8771C47.6814 17.3708 45.5689 15.5833 43.2501 15.1375V13.8479C43.2501 13.1583 42.6897 12.5979 42.0001 12.5979C41.3105 12.5979 40.7501 13.1583 40.7501 13.8479V15.1375C38.4334 15.5833 36.3189 17.3708 36.3189 19.8771C36.3189 23.675 39.0439 24.1938 41.7709 24.7104C43.4751 25.0333 45.1814 25.3583 45.1814 27.0937C45.1814 28.6521 43.348 29.4521 42.0001 29.4521C40.6522 29.4521 38.8189 28.6521 38.8189 27.0937C38.8189 26.4042 38.2584 25.8437 37.5689 25.8437C36.8793 25.8437 36.3189 26.4042 36.3189 27.0937C36.3189 29.6 38.4314 31.3875 40.7501 31.8333V33.1229C40.7501 33.8125 41.3105 34.3729 42.0001 34.3729C42.6897 34.3729 43.2501 33.8125 43.2501 33.1229V31.8333C45.5689 31.3875 47.6814 29.6 47.6814 27.0937C47.6814 23.2958 44.9564 22.7771 42.2314 22.2604C40.5272 21.9375 38.8209 21.6125 38.8209 19.8771C38.8209 18.3188 40.6522 17.5187 42.0022 17.5187C43.3501 17.5187 45.1834 18.3188 45.1834 19.8771C45.1834 20.5667 45.7439 21.1271 46.4334 21.1271C47.1209 21.1271 47.6814 20.5667 47.6814 19.8771ZM42.0001 9.77917C34.4293 9.77917 28.2939 15.9167 28.2939 23.4854C28.2939 31.0542 34.4314 37.1917 42.0001 37.1917C49.5709 37.1917 55.7064 31.0542 55.7064 23.4854C55.7064 15.9146 49.5709 9.77917 42.0001 9.77917ZM44.4647 83.9729C45.8543 82.5833 46.5501 80.7583 46.5501 78.9375C46.5501 75.0042 43.3605 71.8146 39.4272 71.8146C37.9709 71.8146 36.5126 72.2604 35.2751 73.1479C34.0376 72.2583 32.5814 71.8146 31.123 71.8146C29.6397 71.8146 28.1564 72.275 26.9043 73.1979C26.5105 71.9625 26.4022 70.6562 26.5814 69.3792C27.173 65.1646 30.798 62.0208 35.0605 62.0208C37.2522 62.0208 39.4418 62.8562 41.1147 64.5292C41.6022 65.0167 42.3939 65.0167 42.8814 64.5292C44.5522 62.8583 46.7439 62.0208 48.9355 62.0208C53.6647 62.0208 57.4959 65.8542 57.4959 70.5813C57.4959 72.7729 56.6605 74.9625 54.9876 76.6354L42.0001 89.625L40.4064 88.0312L44.4647 83.9729ZM38.6376 89.8L36.1605 92.2771C35.673 92.7646 34.8814 92.7646 34.3939 92.2771L26.0897 83.9729C24.698 82.5813 24.0043 80.7583 24.0043 78.9375C24.0043 77.6562 24.348 76.375 25.0355 75.2417C24.1272 73.2896 23.8209 71.1271 24.1147 69.0375C24.8814 63.5833 29.5439 59.5208 35.0647 59.5208C37.523 59.5208 39.9834 60.3354 42.0022 61.9667C44.021 60.3375 46.4814 59.5208 48.9397 59.5208C55.048 59.5208 60.0001 64.4729 60.0001 70.5813C60.0001 73.4125 58.9209 76.2417 56.7605 78.4021L42.8855 92.2771C42.398 92.7646 41.6064 92.7646 41.1189 92.2771L38.6376 89.8ZM35.2772 89.625L27.8564 82.2042C26.9543 81.3021 26.5022 80.1187 26.5022 78.9354C26.5022 76.3833 28.5709 74.3125 31.1251 74.3125C32.3084 74.3125 33.4918 74.7646 34.3939 75.6667C34.8814 76.1542 35.673 76.1542 36.1605 75.6667C37.0626 74.7646 38.2459 74.3125 39.4293 74.3125C41.9814 74.3125 44.0522 76.3812 44.0522 78.9354C44.0522 80.1187 43.6001 81.3 42.698 82.2042L35.2772 89.625Z" fill="url(#paint0_linear_383_1761)"/>
<defs>
<linearGradient id="paint0_linear_383_1761" x1="8.80068" y1="-4.38379" x2="101.348" y2="57.3357" gradientUnits="userSpaceOnUse">
<stop stop-color="#FFC181"/>
<stop offset="1" stop-color="#EF7B03"/>
</linearGradient>
</defs>
</svg>
