<svg width="50" height="50" viewBox="0 0 50 50" fill="none" xmlns="http://www.w3.org/2000/svg">
<path d="M22.1845 0.558916C23.5282 0.00262636 25.0067 -0.142498 26.4329 0.141913C27.8591 0.426324 29.1689 1.12748 30.1964 2.15663L47.8434 19.8036C48.5262 20.4861 49.0678 21.2964 49.4374 22.1883C49.8069 23.0801 49.9971 24.0361 49.9971 25.0014C49.9971 25.9668 49.8069 26.9228 49.4374 27.8146C49.0678 28.7065 48.5262 29.5168 47.8434 30.1993L30.1964 47.8463C29.5139 48.5291 28.7036 49.0707 27.8117 49.4403C26.9199 49.8098 25.9639 50 24.9986 50C24.0332 50 23.0772 49.8098 22.1854 49.4403C21.2935 49.0707 20.4832 48.5291 19.8007 47.8463L2.15375 30.1993C1.47095 29.5168 0.929301 28.7065 0.559754 27.8146C0.190207 26.9228 0 25.9668 0 25.0014C0 24.0361 0.190207 23.0801 0.559754 22.1883C0.929301 21.2964 1.47095 20.4861 2.15375 19.8036L19.8007 2.15431C20.4846 1.4738 21.2942 0.932736 22.1845 0.561242M20.9287 21.1362C20.9287 19.7897 21.4101 18.9129 22.0287 18.3571C22.6776 17.7733 23.5869 17.4454 24.552 17.4454C25.5172 17.4454 26.4265 17.771 27.0754 18.3571C27.6917 18.9129 28.1731 19.7897 28.1731 21.1362C28.1731 23.1409 26.8614 25.2549 24.7079 27.4248C23.0985 29.0481 21.2566 30.4783 19.6031 31.7598C19.0759 32.1691 18.572 32.5644 18.0914 32.9458C17.8095 33.172 17.6049 33.4801 17.5057 33.8275C17.4065 34.175 17.4176 34.5447 17.5376 34.8856C17.6576 35.2264 17.8805 35.5216 18.1755 35.7303C18.4705 35.939 18.8231 36.0509 19.1844 36.0506H30.8127C31.2753 36.0506 31.7189 35.8668 32.046 35.5397C32.3731 35.2126 32.5569 34.7689 32.5569 34.3063C32.5569 33.8437 32.3731 33.4001 32.046 33.073C31.7189 32.7459 31.2753 32.5621 30.8127 32.5621H24.2078C25.2148 31.7319 26.2451 30.8295 27.1847 29.8806C29.4684 27.5783 31.6615 24.5991 31.6615 21.1362C31.6615 18.8571 30.801 17.0198 29.408 15.764C28.0428 14.536 26.2707 13.957 24.552 13.957C22.8334 13.957 21.0589 14.536 19.6938 15.764C18.2984 17.0198 17.4402 18.8571 17.4402 21.1362C17.4402 21.5988 17.624 22.0425 17.9511 22.3696C18.2782 22.6967 18.7218 22.8805 19.1844 22.8805C19.647 22.8805 20.0907 22.6967 20.4178 22.3696C20.7449 22.0425 20.9287 21.5988 20.9287 21.1362Z" fill="url(#paint0_linear_2001_2159)"/>
<defs>
<linearGradient id="paint0_linear_2001_2159" x1="4.77056" y1="-2.44189" x2="53.834" y2="37.4304" gradientUnits="userSpaceOnUse">
<stop stop-color="#0081C9"/>
<stop offset="1" stop-color="#0051A1"/>
</linearGradient>
</defs>
</svg>
