<svg width="50" height="50" viewBox="0 0 50 50" fill="none" xmlns="http://www.w3.org/2000/svg">
<path d="M22.1845 0.558916C23.5282 0.00262631 25.0067 -0.142498 26.4329 0.141913C27.8591 0.426324 29.1689 1.12748 30.1964 2.15663L47.8434 19.8036C48.5262 20.4861 49.0678 21.2964 49.4374 22.1883C49.8069 23.0801 49.9971 24.0361 49.9971 25.0014C49.9971 25.9668 49.8069 26.9228 49.4374 27.8146C49.0678 28.7065 48.5262 29.5168 47.8434 30.1993L30.1964 47.8463C29.5139 48.5291 28.7036 49.0707 27.8117 49.4403C26.9199 49.8098 25.9639 50 24.9986 50C24.0332 50 23.0772 49.8098 22.1854 49.4403C21.2935 49.0707 20.4832 48.5291 19.8007 47.8463L2.15375 30.1993C1.47095 29.5168 0.929301 28.7065 0.559754 27.8146C0.190207 26.9228 0 25.9668 0 25.0014C0 24.0361 0.190207 23.0801 0.559754 22.1883C0.929301 21.2964 1.47095 20.4861 2.15375 19.8036L19.8007 2.15431C20.4846 1.4738 21.2942 0.932736 22.1845 0.561242M32.5569 20.3385C32.5569 18.164 31.5034 16.5012 30.0057 15.4384C28.5591 14.4128 26.7312 13.957 24.9986 13.957C23.266 13.957 21.438 14.4128 19.9914 15.4384C18.4961 16.4989 17.4402 18.164 17.4402 20.3385C17.4402 20.8011 17.624 21.2448 17.9511 21.5719C18.2782 21.899 18.7218 22.0828 19.1844 22.0828C19.647 22.0828 20.0907 21.899 20.4178 21.5719C20.7449 21.2448 20.9287 20.8011 20.9287 20.3385C20.9287 19.4222 21.3287 18.7687 22.0101 18.2827C22.745 17.7617 23.8241 17.4454 24.9986 17.4454C26.173 17.4454 27.2521 17.7617 27.987 18.2827C28.6661 18.7641 29.0638 19.4129 29.0684 20.3222L29.0638 20.385C29.0568 20.4548 29.0452 20.5711 29.0149 20.713C28.9389 21.0789 28.8005 21.4289 28.6056 21.7479C28.2196 22.3688 27.3451 23.2595 24.9986 23.2595C24.536 23.2595 24.0923 23.4433 23.7652 23.7704C23.4381 24.0975 23.2543 24.5412 23.2543 25.0038C23.2543 25.4664 23.4381 25.91 23.7652 26.2371C24.0923 26.5642 24.536 26.748 24.9986 26.748C27.3475 26.748 28.2196 27.6387 28.6056 28.2597C28.8687 28.6924 29.0271 29.1806 29.0684 29.6853C29.0638 30.5923 28.6661 31.2435 27.987 31.7249C27.2521 32.2458 26.173 32.5621 24.9986 32.5621C23.8241 32.5621 22.745 32.2458 22.0101 31.7249C21.3287 31.2388 20.9287 30.5853 20.9287 29.669C20.9287 29.2064 20.7449 28.7628 20.4178 28.4357C20.0907 28.1085 19.647 27.9248 19.1844 27.9248C18.7218 27.9248 18.2782 28.1085 17.9511 28.4357C17.624 28.7628 17.4402 29.2064 17.4402 29.669C17.4402 31.8435 18.4961 33.5063 19.9914 34.5691C21.438 35.5948 23.266 36.0506 24.9986 36.0506C26.7312 36.0506 28.5591 35.5948 30.0057 34.5691C31.5011 33.5087 32.5569 31.8435 32.5569 29.669V29.6644C32.5096 28.5138 32.1686 27.3945 31.5662 26.4131C31.2373 25.8865 30.8321 25.4115 30.3638 25.0038C30.8545 24.5759 31.2522 24.0968 31.5662 23.5944C32.1686 22.613 32.5096 21.4937 32.5569 20.3432V20.3385Z" fill="black"/>
<path d="M22.1845 0.558916C23.5282 0.00262631 25.0067 -0.142498 26.4329 0.141913C27.8591 0.426324 29.1689 1.12748 30.1964 2.15663L47.8434 19.8036C48.5262 20.4861 49.0678 21.2964 49.4374 22.1883C49.8069 23.0801 49.9971 24.0361 49.9971 25.0014C49.9971 25.9668 49.8069 26.9228 49.4374 27.8146C49.0678 28.7065 48.5262 29.5168 47.8434 30.1993L30.1964 47.8463C29.5139 48.5291 28.7036 49.0707 27.8117 49.4403C26.9199 49.8098 25.9639 50 24.9986 50C24.0332 50 23.0772 49.8098 22.1854 49.4403C21.2935 49.0707 20.4832 48.5291 19.8007 47.8463L2.15375 30.1993C1.47095 29.5168 0.929301 28.7065 0.559754 27.8146C0.190207 26.9228 0 25.9668 0 25.0014C0 24.0361 0.190207 23.0801 0.559754 22.1883C0.929301 21.2964 1.47095 20.4861 2.15375 19.8036L19.8007 2.15431C20.4846 1.4738 21.2942 0.932736 22.1845 0.561242M32.5569 20.3385C32.5569 18.164 31.5034 16.5012 30.0057 15.4384C28.5591 14.4128 26.7312 13.957 24.9986 13.957C23.266 13.957 21.438 14.4128 19.9914 15.4384C18.4961 16.4989 17.4402 18.164 17.4402 20.3385C17.4402 20.8011 17.624 21.2448 17.9511 21.5719C18.2782 21.899 18.7218 22.0828 19.1844 22.0828C19.647 22.0828 20.0907 21.899 20.4178 21.5719C20.7449 21.2448 20.9287 20.8011 20.9287 20.3385C20.9287 19.4222 21.3287 18.7687 22.0101 18.2827C22.745 17.7617 23.8241 17.4454 24.9986 17.4454C26.173 17.4454 27.2521 17.7617 27.987 18.2827C28.6661 18.7641 29.0638 19.4129 29.0684 20.3222L29.0638 20.385C29.0568 20.4548 29.0452 20.5711 29.0149 20.713C28.9389 21.0789 28.8005 21.4289 28.6056 21.7479C28.2196 22.3688 27.3451 23.2595 24.9986 23.2595C24.536 23.2595 24.0923 23.4433 23.7652 23.7704C23.4381 24.0975 23.2543 24.5412 23.2543 25.0038C23.2543 25.4664 23.4381 25.91 23.7652 26.2371C24.0923 26.5642 24.536 26.748 24.9986 26.748C27.3475 26.748 28.2196 27.6387 28.6056 28.2597C28.8687 28.6924 29.0271 29.1806 29.0684 29.6853C29.0638 30.5923 28.6661 31.2435 27.987 31.7249C27.2521 32.2458 26.173 32.5621 24.9986 32.5621C23.8241 32.5621 22.745 32.2458 22.0101 31.7249C21.3287 31.2388 20.9287 30.5853 20.9287 29.669C20.9287 29.2064 20.7449 28.7628 20.4178 28.4357C20.0907 28.1085 19.647 27.9248 19.1844 27.9248C18.7218 27.9248 18.2782 28.1085 17.9511 28.4357C17.624 28.7628 17.4402 29.2064 17.4402 29.669C17.4402 31.8435 18.4961 33.5063 19.9914 34.5691C21.438 35.5948 23.266 36.0506 24.9986 36.0506C26.7312 36.0506 28.5591 35.5948 30.0057 34.5691C31.5011 33.5087 32.5569 31.8435 32.5569 29.669V29.6644C32.5096 28.5138 32.1686 27.3945 31.5662 26.4131C31.2373 25.8865 30.8321 25.4115 30.3638 25.0038C30.8545 24.5759 31.2522 24.0968 31.5662 23.5944C32.1686 22.613 32.5096 21.4937 32.5569 20.3432V20.3385Z" fill="url(#paint0_linear_2001_2154)"/>
<defs>
<linearGradient id="paint0_linear_2001_2154" x1="4.77056" y1="-2.44189" x2="53.834" y2="37.4304" gradientUnits="userSpaceOnUse">
<stop stop-color="#FFC181"/>
<stop offset="1" stop-color="#EFC334"/>
</linearGradient>
</defs>
</svg>
