<svg width="50" height="50" viewBox="0 0 50 50" fill="none" xmlns="http://www.w3.org/2000/svg">
<path d="M22.1845 0.558916C23.5282 0.00262631 25.0067 -0.142498 26.4329 0.141913C27.8591 0.426324 29.1689 1.12748 30.1964 2.15663L47.8434 19.8036C48.5262 20.4861 49.0678 21.2964 49.4374 22.1883C49.8069 23.0801 49.9971 24.0361 49.9971 25.0014C49.9971 25.9668 49.8069 26.9228 49.4374 27.8146C49.0678 28.7065 48.5262 29.5168 47.8434 30.1993L30.1964 47.8463C29.5139 48.5291 28.7036 49.0707 27.8117 49.4403C26.9199 49.8098 25.9639 50 24.9986 50C24.0332 50 23.0772 49.8098 22.1854 49.4403C21.2935 49.0707 20.4832 48.5291 19.8007 47.8463L2.15375 30.1993C1.47095 29.5168 0.929301 28.7065 0.559754 27.8146C0.190207 26.9228 0 25.9668 0 25.0014C0 24.0361 0.190207 23.0801 0.559754 22.1883C0.929301 21.2964 1.47095 20.4861 2.15375 19.8036L19.8007 2.15431C20.4846 1.4738 21.2942 0.932736 22.1845 0.561242M28.0358 16.1663C28.1048 15.9433 28.1282 15.7088 28.1048 15.4765C28.0814 15.2443 28.0116 15.0191 27.8996 14.8143C27.7876 14.6096 27.6356 14.4294 27.4527 14.2844C27.2698 14.1394 27.0596 14.0326 26.8347 13.9704C26.6097 13.9081 26.3746 13.8916 26.1432 13.9219C25.9117 13.9522 25.6887 14.0286 25.4873 14.1466C25.286 14.2646 25.1104 14.4219 24.9709 14.609C24.8314 14.7961 24.7309 15.0094 24.6753 15.2361C23.7846 18.4385 21.9775 21.4409 20.3426 23.6851C19.4899 24.8541 18.5697 25.9723 17.5867 27.0341L17.4193 27.2085L17.3774 27.2503L17.3681 27.2596C17.1243 27.5037 16.9584 27.8146 16.8913 28.1529C16.8242 28.4913 16.859 28.842 16.9911 29.1606C17.1233 29.4792 17.347 29.7515 17.6339 29.943C17.9208 30.1345 18.2581 30.2366 18.603 30.2365H25.58V34.304C25.58 34.7666 25.7637 35.2103 26.0908 35.5374C26.4179 35.8645 26.8616 36.0483 27.3242 36.0483C27.7868 36.0483 28.2305 35.8645 28.5576 35.5374C28.8847 35.2103 29.0684 34.7666 29.0684 34.304V30.2341H30.2313C30.6939 30.2341 31.1375 30.0504 31.4646 29.7233C31.7917 29.3962 31.9755 28.9525 31.9755 28.4899C31.9755 28.0273 31.7917 27.5837 31.4646 27.2566C31.1375 26.9294 30.6939 26.7457 30.2313 26.7457H29.0684V25.0014C29.0684 24.5388 28.8847 24.0952 28.5576 23.7681C28.2305 23.441 27.7868 23.2572 27.3242 23.2572C26.8616 23.2572 26.4179 23.441 26.0908 23.7681C25.7637 24.0952 25.58 24.5388 25.58 25.0014V26.7457H22.4031C22.6497 26.4309 22.9024 26.0953 23.1613 25.7387C24.9172 23.3316 26.987 19.9385 28.0358 16.1663Z" fill="url(#paint0_linear_2001_2181)"/>
<defs>
<linearGradient id="paint0_linear_2001_2181" x1="4.77056" y1="-2.44189" x2="53.834" y2="37.4304" gradientUnits="userSpaceOnUse">
<stop stop-color="#21BD21"/>
<stop offset="1" stop-color="#2BAA4D"/>
</linearGradient>
</defs>
</svg>
