<svg width="50" height="50" viewBox="0 0 50 50" fill="none" xmlns="http://www.w3.org/2000/svg">
<path d="M19.801 2.15377C20.4834 1.47096 21.2938 0.929311 22.1856 0.55976C23.0775 0.190209 24.0334 0 24.9988 0C25.9642 0 26.9202 0.190209 27.812 0.55976C28.7039 0.929311 29.5142 1.47096 30.1967 2.15377L47.8439 19.8033C48.5267 20.4858 49.0684 21.2961 49.4379 22.188C49.8075 23.0798 49.9977 24.0358 49.9977 25.0012C49.9977 25.9666 49.8075 26.9225 49.4379 27.8144C49.0684 28.7062 48.5267 29.5166 47.8439 30.199L30.1967 47.8462C29.5142 48.529 28.7039 49.0707 27.812 49.4402C26.9202 49.8098 25.9642 50 24.9988 50C24.0334 50 23.0775 49.8098 22.1856 49.4402C21.2938 49.0707 20.4834 48.529 19.801 47.8462L2.15377 30.199C1.47096 29.5166 0.929311 28.7062 0.55976 27.8144C0.190209 26.9225 0 25.9666 0 25.0012C0 24.0358 0.190209 23.0798 0.55976 22.188C0.929311 21.2961 1.47096 20.4858 2.15377 19.8033L19.801 2.15377ZM18.08 14.3496C17.8802 14.5131 17.7192 14.7189 17.6086 14.9522C17.498 15.1854 17.4405 15.4403 17.4404 15.6985V22.3313C17.4404 22.7939 17.6242 23.2376 17.9513 23.5647C18.2784 23.8918 18.7221 24.0755 19.1847 24.0755H25.6454C27.8013 24.0755 29.0688 25.5198 29.0688 26.7547V29.3595C29.0688 30.413 28.6269 31.1456 27.9431 31.6665C27.2082 32.2224 26.1431 32.5549 24.9919 32.5596C23.8407 32.5642 22.7825 32.2363 22.0522 31.6875C21.3731 31.1758 20.9289 30.4386 20.9289 29.3595C20.9289 28.8969 20.7451 28.4532 20.418 28.1261C20.0909 27.799 19.6473 27.6152 19.1847 27.6152C18.7221 27.6152 18.2784 27.799 17.9513 28.1261C17.6242 28.4532 17.4404 28.8969 17.4404 29.3595C17.4404 31.5944 18.4497 33.3364 19.9521 34.4713C21.4034 35.5667 23.2476 36.0528 25.0058 36.0481C26.7617 36.0411 28.6036 35.5411 30.0502 34.4457C30.8419 33.8579 31.4823 33.09 31.9182 32.2055C32.3542 31.321 32.5733 30.3454 32.5573 29.3595V26.7547C32.5573 23.1034 29.199 20.587 25.6454 20.587H20.9289V17.7218C21.408 17.7776 21.9545 17.8311 22.5499 17.8753C24.657 18.0242 27.4873 18.0381 30.0735 17.3916C30.5225 17.2793 30.9085 16.9933 31.1467 16.5964C31.3848 16.1995 31.4555 15.7242 31.3433 15.2752C31.231 14.8262 30.945 14.4401 30.5481 14.202C30.1512 13.9639 29.6759 13.8931 29.2269 14.0054C27.485 14.4426 25.5035 14.517 23.7476 14.4473C22.6334 14.4048 21.5223 14.3008 20.4196 14.1356C20.1367 14.0939 19.8544 14.0473 19.573 13.9961C19.3135 13.9407 19.0449 13.9437 18.7867 14.0048C18.5285 14.066 18.2871 14.1837 18.08 14.3496Z" fill="url(#paint0_linear_2001_2176)"/>
<defs>
<linearGradient id="paint0_linear_2001_2176" x1="4.77061" y1="-2.44189" x2="53.8342" y2="37.4309" gradientUnits="userSpaceOnUse">
<stop stop-color="#2500C9"/>
<stop offset="1" stop-color="#1000A1"/>
</linearGradient>
</defs>
</svg>
