<svg width="50" height="50" viewBox="0 0 50 50" fill="none" xmlns="http://www.w3.org/2000/svg">
<path d="M24.9996 32.559C23.9202 32.559 22.885 32.1302 22.1217 31.3669C21.3585 30.6037 20.9297 29.5685 20.9297 28.4891C20.9297 27.4239 21.3274 26.7937 21.9111 26.3728C22.5693 25.896 23.6205 25.582 24.9996 25.582C26.3787 25.582 27.4299 25.896 28.088 26.3728C28.6718 26.7937 29.0694 27.4239 29.0694 28.4891C29.0694 29.5685 28.6407 30.6037 27.8774 31.3669C27.1142 32.1302 26.079 32.559 24.9996 32.559Z" fill="black"/>
<path d="M24.9996 32.559C23.9202 32.559 22.885 32.1302 22.1217 31.3669C21.3585 30.6037 20.9297 29.5685 20.9297 28.4891C20.9297 27.4239 21.3274 26.7937 21.9111 26.3728C22.5693 25.896 23.6205 25.582 24.9996 25.582C26.3787 25.582 27.4299 25.896 28.088 26.3728C28.6718 26.7937 29.0694 27.4239 29.0694 28.4891C29.0694 29.5685 28.6407 30.6037 27.8774 31.3669C27.1142 32.1302 26.079 32.559 24.9996 32.559Z" fill="url(#paint0_linear_2213_2008)"/>
<path d="M22.1845 0.558916C23.5282 0.00262636 25.0067 -0.142498 26.4329 0.141913C27.8591 0.426324 29.1689 1.12748 30.1964 2.15663L47.8434 19.8036C48.5262 20.4861 49.0678 21.2964 49.4374 22.1883C49.8069 23.0801 49.9971 24.0361 49.9971 25.0014C49.9971 25.9668 49.8069 26.9228 49.4374 27.8146C49.0678 28.7065 48.5262 29.5168 47.8434 30.1993L30.1964 47.8463C29.5139 48.5291 28.7036 49.0707 27.8117 49.4403C26.9199 49.8098 25.9639 50 24.9986 50C24.0332 50 23.0772 49.8098 22.1854 49.4403C21.2935 49.0707 20.4832 48.5291 19.8007 47.8463L2.15375 30.1993C1.47095 29.5168 0.929301 28.7065 0.559754 27.8146C0.190207 26.9228 0 25.9668 0 25.0014C0 24.0361 0.190207 23.0801 0.559754 22.1883C0.929301 21.2964 1.47095 20.4861 2.15375 19.8036L19.8007 2.15431C20.4846 1.4738 21.2942 0.932736 22.1845 0.561242M26.1614 13.957C23.8488 13.957 21.6309 14.8755 19.9954 16.5105C18.3599 18.1455 17.4408 20.3632 17.4402 22.6758V28.4899C17.4402 30.4945 18.2365 32.417 19.654 33.8345C21.0715 35.2519 22.994 36.0483 24.9986 36.0483C27.0032 36.0483 28.9256 35.2519 30.3431 33.8345C31.7606 32.417 32.5569 30.4945 32.5569 28.4899C32.5569 26.3433 31.6522 24.6479 30.1313 23.5479C28.687 22.5014 26.8312 22.0944 24.9986 22.0944C23.5892 22.0944 22.1682 22.3339 20.9287 22.92V22.6758C20.9287 21.288 21.48 19.957 22.4613 18.9757C23.4426 17.9944 24.7736 17.4431 26.1614 17.4431H28.487C28.9496 17.4431 29.3933 17.2593 29.7204 16.9322C30.0475 16.6051 30.2313 16.1615 30.2313 15.6989C30.2313 15.2363 30.0475 14.7926 29.7204 14.4655C29.3933 14.1384 28.9496 13.9546 28.487 13.9546L26.1614 13.957Z" fill="black"/>
<path d="M22.1845 0.558916C23.5282 0.00262636 25.0067 -0.142498 26.4329 0.141913C27.8591 0.426324 29.1689 1.12748 30.1964 2.15663L47.8434 19.8036C48.5262 20.4861 49.0678 21.2964 49.4374 22.1883C49.8069 23.0801 49.9971 24.0361 49.9971 25.0014C49.9971 25.9668 49.8069 26.9228 49.4374 27.8146C49.0678 28.7065 48.5262 29.5168 47.8434 30.1993L30.1964 47.8463C29.5139 48.5291 28.7036 49.0707 27.8117 49.4403C26.9199 49.8098 25.9639 50 24.9986 50C24.0332 50 23.0772 49.8098 22.1854 49.4403C21.2935 49.0707 20.4832 48.5291 19.8007 47.8463L2.15375 30.1993C1.47095 29.5168 0.929301 28.7065 0.559754 27.8146C0.190207 26.9228 0 25.9668 0 25.0014C0 24.0361 0.190207 23.0801 0.559754 22.1883C0.929301 21.2964 1.47095 20.4861 2.15375 19.8036L19.8007 2.15431C20.4846 1.4738 21.2942 0.932736 22.1845 0.561242M26.1614 13.957C23.8488 13.957 21.6309 14.8755 19.9954 16.5105C18.3599 18.1455 17.4408 20.3632 17.4402 22.6758V28.4899C17.4402 30.4945 18.2365 32.417 19.654 33.8345C21.0715 35.2519 22.994 36.0483 24.9986 36.0483C27.0032 36.0483 28.9256 35.2519 30.3431 33.8345C31.7606 32.417 32.5569 30.4945 32.5569 28.4899C32.5569 26.3433 31.6522 24.6479 30.1313 23.5479C28.687 22.5014 26.8312 22.0944 24.9986 22.0944C23.5892 22.0944 22.1682 22.3339 20.9287 22.92V22.6758C20.9287 21.288 21.48 19.957 22.4613 18.9757C23.4426 17.9944 24.7736 17.4431 26.1614 17.4431H28.487C28.9496 17.4431 29.3933 17.2593 29.7204 16.9322C30.0475 16.6051 30.2313 16.1615 30.2313 15.6989C30.2313 15.2363 30.0475 14.7926 29.7204 14.4655C29.3933 14.1384 28.9496 13.9546 28.487 13.9546L26.1614 13.957Z" fill="url(#paint1_linear_2213_2008)"/>
<defs>
<linearGradient id="paint0_linear_2213_2008" x1="21.7064" y1="25.2413" x2="28.6905" y2="31.8635" gradientUnits="userSpaceOnUse">
<stop stop-color="#FFC181"/>
<stop offset="1" stop-color="#EF7B03"/>
</linearGradient>
<linearGradient id="paint1_linear_2213_2008" x1="4.77056" y1="-2.44189" x2="53.834" y2="37.4304" gradientUnits="userSpaceOnUse">
<stop stop-color="#FFC181"/>
<stop offset="1" stop-color="#EF7B03"/>
</linearGradient>
</defs>
</svg>
