<svg width="21" height="24" viewBox="0 0 21 24" fill="none" xmlns="http://www.w3.org/2000/svg">
<path d="M20.3963 8.77832C20.0683 8.78676 19.743 8.79192 19.4182 8.79192C18.038 8.79159 16.6589 8.7179 15.2866 8.57116H15.2748C14.457 8.47742 13.6531 8.07012 13.011 7.42846C12.3689 6.78681 11.9635 5.98299 11.8688 5.1651V5.15338C11.6867 3.4478 11.6172 1.73207 11.6607 0.0173491C9.08145 -0.0451284 6.50089 0.0611815 3.93554 0.335598C2.22243 0.534327 0.579164 2.17713 0.380434 3.89023C-0.0695197 8.09496 -0.0695197 15.9012 0.380434 20.1073C0.579164 21.8209 2.22243 23.4642 3.93554 23.6629C8.12778 24.1124 12.3561 24.1124 16.5483 23.6629C18.2619 23.4642 19.9047 21.8209 20.1039 20.1073C20.4095 17.2417 20.5065 12.7075 20.3963 8.77832ZM7.2652 17.416C7.38826 17.5391 7.4574 17.706 7.4574 17.88C7.4574 18.0541 7.38826 18.221 7.2652 18.3441C7.14213 18.4671 6.97522 18.5363 6.80118 18.5363C6.62714 18.5363 6.46023 18.4671 6.33717 18.3441L3.77009 15.777C3.56072 15.567 3.44315 15.2826 3.44315 14.986C3.44315 14.6895 3.56072 14.4051 3.77009 14.1951L6.33717 11.628C6.46099 11.509 6.62655 11.4433 6.79829 11.445C6.97003 11.4467 7.13427 11.5156 7.25574 11.637C7.37722 11.7584 7.44625 11.9226 7.44802 12.0944C7.44978 12.2661 7.38415 12.4317 7.2652 12.5556L4.83498 14.9858L7.2652 17.416ZM12.2423 10.0972L9.58293 20.2081C9.54608 20.3482 9.46389 20.4722 9.34917 20.5607C9.23446 20.6493 9.09367 20.6973 8.94877 20.6974C8.89231 20.6973 8.83608 20.6901 8.78145 20.6759C8.69802 20.654 8.61971 20.616 8.551 20.5639C8.48228 20.5118 8.42451 20.4467 8.38098 20.3723C8.33745 20.2978 8.30902 20.2155 8.29731 20.1301C8.2856 20.0447 8.29085 19.9578 8.31274 19.8744L10.9731 9.76353C11.0174 9.59522 11.1267 9.45138 11.277 9.36366C11.4273 9.27594 11.6063 9.25152 11.7746 9.29577C11.9429 9.34002 12.0867 9.44933 12.1745 9.59963C12.2622 9.74994 12.2866 9.92894 12.2423 10.0972ZM16.7138 15.777L14.1467 18.3441C14.0857 18.405 14.0134 18.4533 13.9338 18.4863C13.8542 18.5193 13.7688 18.5363 13.6827 18.5363C13.5965 18.5363 13.5112 18.5193 13.4315 18.4863C13.3519 18.4533 13.2796 18.405 13.2186 18.3441C13.1577 18.2831 13.1094 18.2108 13.0764 18.1312C13.0434 18.0516 13.0264 17.9662 13.0264 17.88C13.0264 17.7939 13.0434 17.7085 13.0764 17.6289C13.1094 17.5493 13.1577 17.477 13.2186 17.416L15.6489 14.9858L13.2186 12.5556C13.1557 12.4951 13.1055 12.4227 13.0709 12.3426C13.0363 12.2624 13.0181 12.1762 13.0172 12.0889C13.0163 12.0016 13.0329 11.9151 13.0659 11.8343C13.0989 11.7535 13.1477 11.6801 13.2095 11.6184C13.2712 11.5567 13.3446 11.5079 13.4254 11.4749C13.5062 11.442 13.5928 11.4254 13.6801 11.4263C13.7674 11.4272 13.8536 11.4455 13.9337 11.4802C14.0138 11.5148 14.0862 11.5651 14.1467 11.628L16.7138 14.1951C16.9231 14.4051 17.0407 14.6895 17.0407 14.986C17.0407 15.2826 16.9231 15.567 16.7138 15.777ZM13.1722 5.01512C12.9965 3.37119 12.9296 1.71744 12.9721 0.0646879C15.8982 2.01428 18.4053 4.52887 20.3462 7.4608L20.3504 7.46737C18.7064 7.5078 17.0614 7.44016 15.4262 7.26489C14.3398 7.14021 13.2983 6.09876 13.1722 5.01512Z" fill="url(#paint0_linear_2001_207)"/>
<defs>
<linearGradient id="paint0_linear_2001_207" x1="1.98921" y1="-1.17211" x2="24.4901" y2="14.3696" gradientUnits="userSpaceOnUse">
<stop stop-color="#FFD394"/>
<stop offset="1" stop-color="#FFB357"/>
</linearGradient>
</defs>
</svg>
