<svg width="96" height="97" viewBox="0 0 96 97" fill="none" xmlns="http://www.w3.org/2000/svg">
<path d="M70.0941 29.8958C75.1266 28.7666 81.6816 23.7196 82.6791 21.234C83.2641 19.779 80.3466 17.5055 79.5666 16.5886C77.7816 14.497 78.5016 13.4664 79.1916 10.9732C79.9791 8.13898 78.1116 5.00922 75.4641 3.78156C72.8166 2.5539 69.6516 2.94039 66.9891 4.13773C64.3266 5.33508 62.0541 7.25992 59.8266 9.15445C58.1991 8.11625 55.6041 3.53148 51.4041 6.50969C48.5016 8.56336 48.2391 13.0345 48.6141 16.6037C49.4916 24.8412 51.5016 29.1152 55.2891 30.2671C60.0741 31.7221 65.3691 30.9567 70.0941 29.8958Z" fill="#FFCA28"/>
<path d="M70.0941 29.8958C75.1266 28.7666 81.6816 23.7196 82.6791 21.234C83.2641 19.779 80.3466 17.5055 79.5666 16.5886C77.7816 14.497 78.5016 13.4664 79.1916 10.9732C79.9791 8.13898 78.1116 5.00922 75.4641 3.78156C72.8166 2.5539 69.6516 2.94039 66.9891 4.13773C64.3266 5.33508 62.0541 7.25992 59.8266 9.15445C58.1991 8.11625 55.6041 3.53148 51.4041 6.50969C48.5016 8.56336 48.2391 13.0345 48.6141 16.6037C49.4916 24.8412 51.5016 29.1152 55.2891 30.2671C60.0741 31.7221 65.3691 30.9567 70.0941 29.8958Z" fill="url(#paint0_linear_2001_6227)"/>
<path d="M70.0941 29.8958C75.1266 28.7666 81.6816 23.7196 82.6791 21.234C83.2641 19.779 80.3466 17.5055 79.5666 16.5886C77.7816 14.497 78.5016 13.4664 79.1916 10.9732C79.9791 8.13898 78.1116 5.00922 75.4641 3.78156C72.8166 2.5539 69.6516 2.94039 66.9891 4.13773C64.3266 5.33508 62.0541 7.25992 59.8266 9.15445C58.1991 8.11625 55.6041 3.53148 51.4041 6.50969C48.5016 8.56336 48.2391 13.0345 48.6141 16.6037C49.4916 24.8412 51.5016 29.1152 55.2891 30.2671C60.0741 31.7221 65.3691 30.9567 70.0941 29.8958Z" fill="url(#paint1_linear_2001_6227)"/>
<path d="M78.2696 6.19922C77.6321 17.3012 66.9146 24.6671 61.8296 27.9105L65.1296 30.7751C65.1296 30.7751 67.2221 30.8205 70.0871 29.896C74.9996 28.3198 82.1771 23.8638 82.6721 21.2342C83.3996 17.4073 79.5146 18.2409 78.6371 15.2172C78.1796 13.6182 80.8646 10.5945 78.2696 6.19922ZM59.8346 9.16227C59.8346 9.16227 57.9221 7.18437 56.5046 6.28258C55.7996 7.62391 55.2971 9.07891 55.0496 10.5794C54.6071 13.2166 55.0496 16.9602 56.0921 19.7489C56.2571 20.1809 56.8721 20.1127 56.9396 19.658C57.8396 13.6637 59.8346 9.16227 59.8346 9.16227Z" fill="#3A8A2F"/>
<path d="M46.4701 28.9186C46.4701 28.9186 23.0776 31.4724 12.5251 51.994C1.97263 72.5155 10.9426 84.9588 20.4376 89.4905C29.9326 94.0222 53.8576 95.6212 69.4201 91.8928C84.9826 88.1644 88.8751 80.4347 88.1476 72.9702C87.0901 62.0729 77.0701 55.3738 77.0701 55.3738C77.0701 55.3738 77.4676 41.9151 67.1326 33.1775C57.9601 25.4175 46.4701 28.9186 46.4701 28.9186Z" fill="#FFCA28"/>
<path d="M46.4701 28.9186C46.4701 28.9186 23.0776 31.4724 12.5251 51.994C1.97263 72.5155 10.9426 84.9588 20.4376 89.4905C29.9326 94.0222 53.8576 95.6212 69.4201 91.8928C84.9826 88.1644 88.8751 80.4347 88.1476 72.9702C87.0901 62.0729 77.0701 55.3738 77.0701 55.3738C77.0701 55.3738 77.4676 41.9151 67.1326 33.1775C57.9601 25.4175 46.4701 28.9186 46.4701 28.9186Z" fill="url(#paint2_linear_2001_6227)"/>
<path d="M56.0721 63.4513C51.0546 57.0553 45.1296 56.199 43.2321 53.9028C42.1971 52.6524 41.5896 51.3869 41.8221 49.8182C42.0696 48.151 43.9821 46.9991 45.4671 46.7188C47.1996 46.3853 51.3321 46.5596 54.8046 49.9016C55.6296 50.6897 55.3296 51.9173 55.3071 53.0162C55.2471 55.373 58.5846 57.6616 61.2846 55.6913C63.9921 53.7134 61.9146 49.3105 60.1671 47.1734C58.8471 45.5593 54.0621 42.0052 48.1146 41.4444C46.4421 41.2852 39.7146 40.2773 35.8296 47.7418C34.7121 49.8864 34.2996 55.0698 40.1496 59.45C41.3721 60.367 47.7171 63.6255 49.4796 65.7398C52.5321 69.4001 50.4396 72.6208 48.0546 73.0452C41.5521 74.197 37.8696 70.6429 37.1871 68.6953C36.6996 67.3085 37.2096 65.8081 36.5796 64.5046C35.9346 63.1633 34.6146 62.6328 33.2196 63.0799C28.6446 64.5501 30.0996 69.6047 32.1246 72.3859C34.2921 75.3641 36.9546 77.1601 39.9471 78.1452C51.1146 81.8206 56.4846 76.0158 57.4221 71.7645C58.1121 68.6498 58.0371 65.952 56.0721 63.4513Z" fill="#FDFDFD"/>
<path d="M61.2539 24.2201C67.5839 26.3041 68.9864 32.0862 68.5289 33.6624C67.9814 35.5115 60.9689 28.3123 50.5439 28.7442C46.8989 28.8958 47.9564 26.6375 49.6439 25.3341C51.8714 23.6138 55.6139 22.371 61.2539 24.2201Z" fill="#6D4C41"/>
<path d="M61.2539 24.2201C67.5839 26.3041 68.9864 32.0862 68.5289 33.6624C67.9814 35.5115 60.9689 28.3123 50.5439 28.7442C46.8989 28.8958 47.9564 26.6375 49.6439 25.3341C51.8714 23.6138 55.6139 22.371 61.2539 24.2201Z" fill="#FDFDFD"/>
<path d="M72.3692 44.605C73.1642 44.0518 75.8342 45.0066 76.5842 50.2886C76.9517 52.8727 77.0642 55.3735 77.0642 55.3735C77.0642 55.3735 73.9142 52.5165 72.8717 50.5083C71.5592 47.9697 71.0492 45.5143 72.3692 44.605Z" fill="#3A8A2F"/>
<defs>
<linearGradient id="paint0_linear_2001_6227" x1="51.7509" y1="1.65982" x2="79.8605" y2="29.5839" gradientUnits="userSpaceOnUse">
<stop stop-color="#FFC181"/>
<stop offset="1" stop-color="#EFC334"/>
</linearGradient>
<linearGradient id="paint1_linear_2001_6227" x1="51.7509" y1="1.65982" x2="79.8605" y2="29.5839" gradientUnits="userSpaceOnUse">
<stop stop-color="#247D33"/>
<stop offset="1" stop-color="#8EBC22"/>
</linearGradient>
<linearGradient id="paint2_linear_2001_6227" x1="15.4468" y1="24.9156" x2="81.4431" y2="90.4664" gradientUnits="userSpaceOnUse">
<stop stop-color="#247D33"/>
<stop offset="1" stop-color="#8EBC22"/>
</linearGradient>
</defs>
</svg>
