<svg width="100" height="101" viewBox="0 0 100 101" fill="none" xmlns="http://www.w3.org/2000/svg">
<path fill-rule="evenodd" clip-rule="evenodd" d="M50 65.0847C51.2047 65.0847 52.1836 64.1059 52.1836 62.9012C52.1836 62.6753 52.0217 62.5322 51.8673 62.3816C51.5059 62.024 51.0428 61.7266 50.5496 61.4329C49.3299 60.7138 47.9331 60.0851 46.6644 59.3886C43.2799 57.5364 40.8892 55.0667 40.8892 51.5428C40.8892 47.7367 43.2309 44.4726 46.5477 43.1098C46.6795 41.3215 48.1778 39.9097 50 39.9097C51.8221 39.9097 53.3205 41.3215 53.4523 43.1098C55.8542 44.0961 57.7404 46.0764 58.6025 48.5386C59.2312 50.3419 58.2787 52.3184 56.4754 52.9509C54.6721 53.5796 52.6956 52.6271 52.0631 50.8238C51.7657 49.9692 50.9525 49.3593 50 49.3593C48.7953 49.3593 47.8164 50.3381 47.8164 51.5428C47.8164 51.7687 47.9783 51.9118 48.1327 52.0624C48.4941 52.4163 48.9571 52.7175 49.4503 53.0111C50.6701 53.7302 52.0668 54.3589 53.3356 55.0516C56.7201 56.9076 59.1107 59.3773 59.1107 62.9012C59.1107 66.7074 56.7691 69.9714 53.4523 71.3305C53.3205 73.1225 51.8221 74.5343 50 74.5343C48.1778 74.5343 46.6795 73.1225 46.5477 71.3305C44.1796 70.3592 42.3123 68.4203 41.4351 66.0071C40.7838 64.2076 41.7137 62.2198 43.5095 61.5685C45.3053 60.9171 47.2931 61.847 47.9444 63.6428C48.2494 64.4824 49.055 65.0847 50 65.0847ZM91.5481 41.3968V73.1489C90.4299 72.923 89.2704 72.8026 88.0882 72.8026H70.774V41.6415H88.6492C89.6356 41.6415 90.6031 41.5587 91.5481 41.3968ZM8.4519 73.1489V41.3968C9.39686 41.5587 10.3644 41.6415 11.3508 41.6415H29.2259V72.8026H11.908C10.7371 72.8026 9.58133 72.9192 8.4519 73.1489ZM46.5891 1.07601C48.799 0.307996 51.2009 0.307996 53.4109 1.07601L92.0601 14.5163C96.8489 16.1841 99.7327 21.0594 98.8894 26.0591C98.0461 31.0587 93.7166 34.7143 88.6492 34.7143H11.3508C6.28339 34.7143 1.95389 31.0587 1.11058 26.0591C0.267273 21.0594 3.15109 16.1841 7.93989 14.5163L46.5891 1.07601ZM98.4753 90.113C98.4753 95.8505 93.822 100.5 88.0882 100.5H11.908C9.15215 100.5 6.51304 99.4082 4.56665 97.4618C2.64661 95.538 1.55483 92.9403 1.52847 90.2259C1.52847 90.1921 1.52471 90.1054 1.52471 90.1054C1.52471 87.3534 2.62026 84.7143 4.56665 82.7679C6.51304 80.8215 9.15215 79.726 11.908 79.726H88.0882C93.822 79.726 98.4753 84.3792 98.4753 90.113Z" fill="url(#paint0_linear_383_1774)"/>
<path fill-rule="evenodd" clip-rule="evenodd" d="M50 65.0847C51.2047 65.0847 52.1836 64.1059 52.1836 62.9012C52.1836 62.6753 52.0217 62.5322 51.8673 62.3816C51.5059 62.024 51.0428 61.7266 50.5496 61.4329C49.3299 60.7138 47.9331 60.0851 46.6644 59.3886C43.2799 57.5364 40.8892 55.0667 40.8892 51.5428C40.8892 47.7367 43.2309 44.4726 46.5477 43.1098C46.6795 41.3215 48.1778 39.9097 50 39.9097C51.8221 39.9097 53.3205 41.3215 53.4523 43.1098C55.8542 44.0961 57.7404 46.0764 58.6025 48.5386C59.2312 50.3419 58.2787 52.3184 56.4754 52.9509C54.6721 53.5796 52.6956 52.6271 52.0631 50.8238C51.7657 49.9692 50.9525 49.3593 50 49.3593C48.7953 49.3593 47.8164 50.3381 47.8164 51.5428C47.8164 51.7687 47.9783 51.9118 48.1327 52.0624C48.4941 52.4163 48.9571 52.7175 49.4503 53.0111C50.6701 53.7302 52.0668 54.3589 53.3356 55.0516C56.7201 56.9076 59.1107 59.3773 59.1107 62.9012C59.1107 66.7074 56.7691 69.9714 53.4523 71.3305C53.3205 73.1225 51.8221 74.5343 50 74.5343C48.1778 74.5343 46.6795 73.1225 46.5477 71.3305C44.1796 70.3592 42.3123 68.4203 41.4351 66.0071C40.7838 64.2076 41.7137 62.2198 43.5095 61.5685C45.3053 60.9171 47.2931 61.847 47.9444 63.6428C48.2494 64.4824 49.055 65.0847 50 65.0847ZM91.5481 41.3968V73.1489C90.4299 72.923 89.2704 72.8026 88.0882 72.8026H70.774V41.6415H88.6492C89.6356 41.6415 90.6031 41.5587 91.5481 41.3968ZM8.4519 73.1489V41.3968C9.39686 41.5587 10.3644 41.6415 11.3508 41.6415H29.2259V72.8026H11.908C10.7371 72.8026 9.58133 72.9192 8.4519 73.1489ZM46.5891 1.07601C48.799 0.307996 51.2009 0.307996 53.4109 1.07601L92.0601 14.5163C96.8489 16.1841 99.7327 21.0594 98.8894 26.0591C98.0461 31.0587 93.7166 34.7143 88.6492 34.7143H11.3508C6.28339 34.7143 1.95389 31.0587 1.11058 26.0591C0.267273 21.0594 3.15109 16.1841 7.93989 14.5163L46.5891 1.07601ZM98.4753 90.113C98.4753 95.8505 93.822 100.5 88.0882 100.5H11.908C9.15215 100.5 6.51304 99.4082 4.56665 97.4618C2.64661 95.538 1.55483 92.9403 1.52847 90.2259C1.52847 90.1921 1.52471 90.1054 1.52471 90.1054C1.52471 87.3534 2.62026 84.7143 4.56665 82.7679C6.51304 80.8215 9.15215 79.726 11.908 79.726H88.0882C93.822 79.726 98.4753 84.3792 98.4753 90.113Z" fill="url(#paint1_linear_383_1774)"/>
<defs>
<linearGradient id="paint0_linear_383_1774" x1="10.3223" y1="-4.38379" x2="108.043" y2="73.5025" gradientUnits="userSpaceOnUse">
<stop stop-color="#FFD394"/>
<stop offset="1" stop-color="#FFB357"/>
</linearGradient>
<linearGradient id="paint1_linear_383_1774" x1="10.3223" y1="-4.38379" x2="108.043" y2="73.5025" gradientUnits="userSpaceOnUse">
<stop stop-color="#0081C9"/>
<stop offset="1" stop-color="#0051A1"/>
</linearGradient>
</defs>
</svg>
