<svg width="32" height="16" viewBox="0 0 32 16" fill="none" xmlns="http://www.w3.org/2000/svg">
<path d="M8.61535 4.30762H6.15381V9.84608H8.61535V4.30762Z" fill="white"/>
<path d="M8.61535 4.30762H6.15381V9.84608H8.61535V4.30762Z" fill="url(#paint0_linear_354_4240)"/>
<path d="M8.61535 4.30762H6.15381V9.84608H8.61535V4.30762Z" fill="url(#paint1_linear_354_4240)"/>
<path d="M16 0L32 16L16 5.53846L0 16L16 0Z" fill="#D9D9D9"/>
<path d="M16 0L32 16L16 5.53846L0 16L16 0Z" fill="white"/>
<path d="M16 0L32 16L16 5.53846L0 16L16 0Z" fill="url(#paint2_linear_354_4240)"/>
<path d="M16 0L32 16L16 5.53846L0 16L16 0Z" fill="url(#paint3_linear_354_4240)"/>
<defs>
<linearGradient id="paint0_linear_354_4240" x1="6.38868" y1="4.03713" x2="9.93666" y2="5.31868" gradientUnits="userSpaceOnUse">
<stop stop-color="#FFC181"/>
<stop offset="1" stop-color="#EF7B03"/>
</linearGradient>
<linearGradient id="paint1_linear_354_4240" x1="6.38868" y1="4.03713" x2="9.93666" y2="5.31868" gradientUnits="userSpaceOnUse">
<stop stop-color="#3C549F"/>
<stop offset="1" stop-color="#1E398E"/>
</linearGradient>
<linearGradient id="paint2_linear_354_4240" x1="3.05333" y1="-0.781406" x2="17.37" y2="22.4893" gradientUnits="userSpaceOnUse">
<stop stop-color="#FFC181"/>
<stop offset="1" stop-color="#EF7B03"/>
</linearGradient>
<linearGradient id="paint3_linear_354_4240" x1="3.05333" y1="-0.781406" x2="17.37" y2="22.4893" gradientUnits="userSpaceOnUse">
<stop stop-color="#3C549F"/>
<stop offset="1" stop-color="#1E398E"/>
</linearGradient>
</defs>
</svg>
