<svg width="50" height="50" viewBox="0 0 50 50" fill="none" xmlns="http://www.w3.org/2000/svg">
<path d="M22.2323 0.558916C23.554 0.00262631 25.0084 -0.142498 26.4112 0.141913C27.8141 0.426324 29.1025 1.12748 30.1132 2.15663L47.4719 19.8036C48.1436 20.4861 48.6764 21.2964 49.0399 22.1883C49.4034 23.0801 49.5905 24.0361 49.5905 25.0014C49.5905 25.9668 49.4034 26.9228 49.0399 27.8146C48.6764 28.7065 48.1436 29.5168 47.4719 30.1993L30.1132 47.8463C29.4419 48.5291 28.6448 49.0707 27.7675 49.4403C26.8903 49.8098 25.9499 50 25.0003 50C24.0507 50 23.1104 49.8098 22.2331 49.4403C21.3558 49.0707 20.5587 48.5291 19.8874 47.8463L2.52872 30.1993C1.85707 29.5168 1.32428 28.7065 0.960766 27.8146C0.597256 26.9228 0.410156 25.9668 0.410156 25.0014C0.410156 24.0361 0.597256 23.0801 0.960766 22.1883C1.32428 21.2964 1.85707 20.4861 2.52872 19.8036L19.8874 2.15431C20.5601 1.4738 21.3565 0.932736 22.2323 0.561242M28.4318 15.6989C28.4319 15.3771 28.3445 15.0615 28.1792 14.7871C28.0139 14.5127 27.7772 14.2901 27.4951 14.144C27.2131 13.9979 26.8969 13.9339 26.5813 13.9592C26.2658 13.9845 25.9632 14.098 25.7072 14.2872L19.4162 18.9385C19.0479 19.2105 18.801 19.6201 18.7298 20.0772C18.6585 20.5342 18.7688 21.0014 19.0364 21.3758C19.304 21.7502 19.7069 22.0012 20.1565 22.0736C20.6061 22.146 21.0656 22.0338 21.4339 21.7618L25.0026 19.1245V34.304C25.0026 34.7666 25.1834 35.2103 25.5051 35.5374C25.8269 35.8645 26.2633 36.0483 26.7183 36.0483C27.1734 36.0483 27.6098 35.8645 27.9316 35.5374C28.2533 35.2103 28.4341 34.7666 28.4341 34.304L28.4318 15.6989Z" fill="url(#paint0_linear_370_2678)"/>
<defs>
<linearGradient id="paint0_linear_370_2678" x1="5.10278" y1="-2.44189" x2="53.9949" y2="36.6421" gradientUnits="userSpaceOnUse">
<stop stop-color="#90BD21"/>
<stop offset="1" stop-color="#73AA2B"/>
</linearGradient>
</defs>
</svg>
