<svg width="50" height="50" viewBox="0 0 50 50" fill="none" xmlns="http://www.w3.org/2000/svg">
<path d="M22.1865 0.558916C23.5302 0.00262631 25.0087 -0.142498 26.4349 0.141913C27.8611 0.426324 29.1708 1.12748 30.1983 2.15663L47.8453 19.8036C48.5281 20.4861 49.0698 21.2964 49.4393 22.1883C49.8089 23.0801 49.9991 24.0361 49.9991 25.0014C49.9991 25.9668 49.8089 26.9228 49.4393 27.8146C49.0698 28.7065 48.5281 29.5168 47.8453 30.1993L30.1983 47.8463C29.5159 48.5291 28.7055 49.0707 27.8137 49.4403C26.9218 49.8098 25.9659 50 25.0005 50C24.0351 50 23.0792 49.8098 22.1873 49.4403C21.2955 49.0707 20.4852 48.5291 19.8027 47.8463L2.1557 30.1993C1.4729 29.5168 0.931254 28.7065 0.561707 27.8146C0.19216 26.9228 0.00195312 25.9668 0.00195312 25.0014C0.00195312 24.0361 0.19216 23.0801 0.561707 22.1883C0.931254 21.2964 1.4729 20.4861 2.1557 19.8036L19.8027 2.15431C20.4865 1.4738 21.2961 0.932736 22.1865 0.561242M20.9306 21.1362C20.9306 19.7897 21.412 18.9129 22.0307 18.3571C22.6795 17.7733 23.5888 17.4454 24.554 17.4454C25.5191 17.4454 26.4285 17.771 27.0773 18.3571C27.6936 18.9129 28.175 19.7897 28.175 21.1362C28.175 23.1409 26.8634 25.2549 24.7098 27.4248C23.1005 29.0481 21.2585 30.4783 19.605 31.7598C19.0779 32.1691 18.574 32.5644 18.0933 32.9458C17.8115 33.172 17.6068 33.4801 17.5076 33.8275C17.4084 34.175 17.4196 34.5447 17.5396 34.8856C17.6596 35.2264 17.8825 35.5216 18.1775 35.7303C18.4725 35.939 18.825 36.0509 19.1864 36.0506H30.8146C31.2772 36.0506 31.7209 35.8668 32.048 35.5397C32.3751 35.2126 32.5589 34.7689 32.5589 34.3063C32.5589 33.8438 32.3751 33.4001 32.048 33.073C31.7209 32.7459 31.2772 32.5621 30.8146 32.5621H24.2098C25.2168 31.7319 26.2471 30.8295 27.1866 29.8806C29.4704 27.5783 31.6635 24.5991 31.6635 21.1362C31.6635 18.8571 30.803 17.0198 29.4099 15.764C28.0448 14.536 26.2726 13.957 24.554 13.957C22.8353 13.957 21.0609 14.536 19.6957 15.764C18.3003 17.0198 17.4422 18.8571 17.4422 21.1362C17.4422 21.5988 17.6259 22.0425 17.953 22.3696C18.2801 22.6967 18.7238 22.8805 19.1864 22.8805C19.649 22.8805 20.0926 22.6967 20.4198 22.3696C20.7469 22.0425 20.9306 21.5988 20.9306 21.1362Z" fill="url(#paint0_linear_370_2673)"/>
<defs>
<linearGradient id="paint0_linear_370_2673" x1="4.77251" y1="-2.44189" x2="53.836" y2="37.4304" gradientUnits="userSpaceOnUse">
<stop stop-color="#0081C9"/>
<stop offset="1" stop-color="#0051A1"/>
</linearGradient>
</defs>
</svg>
