<svg width="50" height="50" viewBox="0 0 50 50" fill="none" xmlns="http://www.w3.org/2000/svg">
<path d="M22.1865 0.558916C23.5302 0.00262631 25.0087 -0.142498 26.4349 0.141913C27.8611 0.426324 29.1708 1.12748 30.1983 2.15663L47.8453 19.8036C48.5281 20.4861 49.0698 21.2964 49.4393 22.1883C49.8089 23.0801 49.9991 24.0361 49.9991 25.0014C49.9991 25.9668 49.8089 26.9228 49.4393 27.8146C49.0698 28.7065 48.5281 29.5168 47.8453 30.1993L30.1983 47.8463C29.5159 48.5291 28.7055 49.0707 27.8137 49.4403C26.9218 49.8098 25.9659 50 25.0005 50C24.0351 50 23.0792 49.8098 22.1873 49.4403C21.2955 49.0707 20.4852 48.5291 19.8027 47.8463L2.1557 30.1993C1.4729 29.5168 0.931254 28.7065 0.561707 27.8146C0.19216 26.9228 0.00195312 25.9668 0.00195312 25.0014C0.00195312 24.0361 0.19216 23.0801 0.561707 22.1883C0.931254 21.2964 1.4729 20.4861 2.1557 19.8036L19.8027 2.15431C20.4865 1.4738 21.2961 0.932736 22.1865 0.561242M32.5589 20.3385C32.5589 18.164 31.5053 16.5012 30.0076 15.4384C28.5611 14.4128 26.7331 13.957 25.0005 13.957C23.2679 13.957 21.4399 14.4128 19.9934 15.4384C18.498 16.4989 17.4422 18.164 17.4422 20.3385C17.4422 20.8011 17.6259 21.2448 17.953 21.5719C18.2801 21.899 18.7238 22.0828 19.1864 22.0828C19.649 22.0828 20.0926 21.899 20.4198 21.5719C20.7469 21.2448 20.9306 20.8011 20.9306 20.3385C20.9306 19.4222 21.3306 18.7687 22.0121 18.2827C22.747 17.7617 23.8261 17.4454 25.0005 17.4454C26.175 17.4454 27.2541 17.7617 27.989 18.2827C28.6681 18.7641 29.0657 19.4129 29.0704 20.3222L29.0657 20.385C29.0588 20.4548 29.0471 20.5711 29.0169 20.713C28.9409 21.0789 28.8024 21.4289 28.6076 21.7479C28.2215 22.3688 27.3471 23.2595 25.0005 23.2595C24.5379 23.2595 24.0943 23.4433 23.7672 23.7704C23.44 24.0975 23.2563 24.5412 23.2563 25.0038C23.2563 25.4664 23.44 25.91 23.7672 26.2371C24.0943 26.5642 24.5379 26.748 25.0005 26.748C27.3494 26.748 28.2215 27.6387 28.6076 28.2597C28.8706 28.6924 29.0291 29.1806 29.0704 29.6853C29.0657 30.5923 28.6681 31.2435 27.989 31.7249C27.2541 32.2458 26.175 32.5621 25.0005 32.5621C23.8261 32.5621 22.747 32.2458 22.0121 31.7249C21.3306 31.2388 20.9306 30.5853 20.9306 29.669C20.9306 29.2064 20.7469 28.7628 20.4198 28.4357C20.0926 28.1085 19.649 27.9248 19.1864 27.9248C18.7238 27.9248 18.2801 28.1085 17.953 28.4357C17.6259 28.7628 17.4422 29.2064 17.4422 29.669C17.4422 31.8435 18.498 33.5063 19.9934 34.5691C21.4399 35.5948 23.2679 36.0506 25.0005 36.0506C26.7331 36.0506 28.5611 35.5948 30.0076 34.5691C31.503 33.5087 32.5589 31.8435 32.5589 29.669V29.6644C32.5116 28.5138 32.1705 27.3945 31.5681 26.4131C31.2392 25.8865 30.834 25.4115 30.3658 25.0038C30.8565 24.5759 31.2542 24.0968 31.5681 23.5944C32.1705 22.613 32.5116 21.4937 32.5589 20.3432V20.3385Z" fill="black"/>
<path d="M22.1865 0.558916C23.5302 0.00262631 25.0087 -0.142498 26.4349 0.141913C27.8611 0.426324 29.1708 1.12748 30.1983 2.15663L47.8453 19.8036C48.5281 20.4861 49.0698 21.2964 49.4393 22.1883C49.8089 23.0801 49.9991 24.0361 49.9991 25.0014C49.9991 25.9668 49.8089 26.9228 49.4393 27.8146C49.0698 28.7065 48.5281 29.5168 47.8453 30.1993L30.1983 47.8463C29.5159 48.5291 28.7055 49.0707 27.8137 49.4403C26.9218 49.8098 25.9659 50 25.0005 50C24.0351 50 23.0792 49.8098 22.1873 49.4403C21.2955 49.0707 20.4852 48.5291 19.8027 47.8463L2.1557 30.1993C1.4729 29.5168 0.931254 28.7065 0.561707 27.8146C0.19216 26.9228 0.00195312 25.9668 0.00195312 25.0014C0.00195312 24.0361 0.19216 23.0801 0.561707 22.1883C0.931254 21.2964 1.4729 20.4861 2.1557 19.8036L19.8027 2.15431C20.4865 1.4738 21.2961 0.932736 22.1865 0.561242M32.5589 20.3385C32.5589 18.164 31.5053 16.5012 30.0076 15.4384C28.5611 14.4128 26.7331 13.957 25.0005 13.957C23.2679 13.957 21.4399 14.4128 19.9934 15.4384C18.498 16.4989 17.4422 18.164 17.4422 20.3385C17.4422 20.8011 17.6259 21.2448 17.953 21.5719C18.2801 21.899 18.7238 22.0828 19.1864 22.0828C19.649 22.0828 20.0926 21.899 20.4198 21.5719C20.7469 21.2448 20.9306 20.8011 20.9306 20.3385C20.9306 19.4222 21.3306 18.7687 22.0121 18.2827C22.747 17.7617 23.8261 17.4454 25.0005 17.4454C26.175 17.4454 27.2541 17.7617 27.989 18.2827C28.6681 18.7641 29.0657 19.4129 29.0704 20.3222L29.0657 20.385C29.0588 20.4548 29.0471 20.5711 29.0169 20.713C28.9409 21.0789 28.8024 21.4289 28.6076 21.7479C28.2215 22.3688 27.3471 23.2595 25.0005 23.2595C24.5379 23.2595 24.0943 23.4433 23.7672 23.7704C23.44 24.0975 23.2563 24.5412 23.2563 25.0038C23.2563 25.4664 23.44 25.91 23.7672 26.2371C24.0943 26.5642 24.5379 26.748 25.0005 26.748C27.3494 26.748 28.2215 27.6387 28.6076 28.2597C28.8706 28.6924 29.0291 29.1806 29.0704 29.6853C29.0657 30.5923 28.6681 31.2435 27.989 31.7249C27.2541 32.2458 26.175 32.5621 25.0005 32.5621C23.8261 32.5621 22.747 32.2458 22.0121 31.7249C21.3306 31.2388 20.9306 30.5853 20.9306 29.669C20.9306 29.2064 20.7469 28.7628 20.4198 28.4357C20.0926 28.1085 19.649 27.9248 19.1864 27.9248C18.7238 27.9248 18.2801 28.1085 17.953 28.4357C17.6259 28.7628 17.4422 29.2064 17.4422 29.669C17.4422 31.8435 18.498 33.5063 19.9934 34.5691C21.4399 35.5948 23.2679 36.0506 25.0005 36.0506C26.7331 36.0506 28.5611 35.5948 30.0076 34.5691C31.503 33.5087 32.5589 31.8435 32.5589 29.669V29.6644C32.5116 28.5138 32.1705 27.3945 31.5681 26.4131C31.2392 25.8865 30.834 25.4115 30.3658 25.0038C30.8565 24.5759 31.2542 24.0968 31.5681 23.5944C32.1705 22.613 32.5116 21.4937 32.5589 20.3432V20.3385Z" fill="url(#paint0_linear_370_2668)"/>
<defs>
<linearGradient id="paint0_linear_370_2668" x1="4.77251" y1="-2.44189" x2="53.836" y2="37.4304" gradientUnits="userSpaceOnUse">
<stop stop-color="#FFC181"/>
<stop offset="1" stop-color="#EFC334"/>
</linearGradient>
</defs>
</svg>
