<svg width="92" height="115" viewBox="0 0 92 115" fill="none" xmlns="http://www.w3.org/2000/svg">
<path d="M90.7652 23.0508C92.2225 26.4291 92.0032 30.6712 90.7652 34.0716C90.7001 34.2672 90.6349 34.4629 90.5678 34.6644C89.1802 38.596 86.4174 41.868 83.2202 44.4673C83.1205 44.5498 83.0209 44.6324 82.9182 44.7175C82.2242 45.2622 82.2242 45.2622 81.7372 45.2614C81.0003 44.8429 80.6966 44.0321 80.4252 43.2632C79.4191 39.514 80.373 35.3951 82.1276 32.0076C82.2642 31.7432 82.3915 31.4739 82.5168 31.2038C83.8291 28.4102 87.2851 23.0508 90.7652 23.0508Z" fill="#FFCA28"/>
<path d="M90.7652 23.0508C92.2225 26.4291 92.0032 30.6712 90.7652 34.0716C90.7001 34.2672 90.6349 34.4629 90.5678 34.6644C89.1802 38.596 86.4174 41.868 83.2202 44.4673C83.1205 44.5498 83.0209 44.6324 82.9182 44.7175C82.2242 45.2622 82.2242 45.2622 81.7372 45.2614C81.0003 44.8429 80.6966 44.0321 80.4252 43.2632C79.4191 39.514 80.373 35.3951 82.1276 32.0076C82.2642 31.7432 82.3915 31.4739 82.5168 31.2038C83.8291 28.4102 87.2851 23.0508 90.7652 23.0508Z" fill="url(#paint0_linear_2001_6239)"/>
<path d="M60.7527 59.5039C60.9205 59.5039 61.0884 59.5039 61.2613 59.5039C63.9171 62.1653 65.0274 65.9517 65.0445 69.6346C65.0179 71.7484 64.5674 73.7647 64.0534 75.8042C63.9882 76.0639 63.9261 76.3243 63.8649 76.5849C63.4991 77.9868 62.7737 79.2499 62.1091 80.5283C61.9955 80.7541 61.8821 80.98 61.77 81.2065C59.9426 80.4327 58.8079 78.1298 58.0299 76.3988C57.9086 76.084 57.8042 75.7629 57.7007 75.4418C57.6559 75.3207 57.6111 75.1996 57.565 75.0748C57.5189 74.9476 57.4727 74.8204 57.4252 74.6894C57.3846 74.5777 57.3439 74.466 57.302 74.3509C56.5986 71.5667 56.7867 68.3075 57.7007 65.6078C57.7389 65.4933 57.777 65.3789 57.8163 65.261C58.3191 63.7724 58.9164 62.3758 59.7354 61.0299C59.8252 60.8804 59.915 60.7309 60.0076 60.5768C60.5072 59.7824 60.5072 59.7824 60.7527 59.5039Z" fill="#FFCA28"/>
<path d="M60.7527 59.5039C60.9205 59.5039 61.0884 59.5039 61.2613 59.5039C63.9171 62.1653 65.0274 65.9517 65.0445 69.6346C65.0179 71.7484 64.5674 73.7647 64.0534 75.8042C63.9882 76.0639 63.9261 76.3243 63.8649 76.5849C63.4991 77.9868 62.7737 79.2499 62.1091 80.5283C61.9955 80.7541 61.8821 80.98 61.77 81.2065C59.9426 80.4327 58.8079 78.1298 58.0299 76.3988C57.9086 76.084 57.8042 75.7629 57.7007 75.4418C57.6559 75.3207 57.6111 75.1996 57.565 75.0748C57.5189 74.9476 57.4727 74.8204 57.4252 74.6894C57.3846 74.5777 57.3439 74.466 57.302 74.3509C56.5986 71.5667 56.7867 68.3075 57.7007 65.6078C57.7389 65.4933 57.777 65.3789 57.8163 65.261C58.3191 63.7724 58.9164 62.3758 59.7354 61.0299C59.8252 60.8804 59.915 60.7309 60.0076 60.5768C60.5072 59.7824 60.5072 59.7824 60.7527 59.5039Z" fill="url(#paint1_linear_2001_6239)"/>
<path d="M68.0449 45.9385C69.2638 46.4787 69.9245 47.6699 70.5246 48.8103C70.5901 48.9343 70.6555 49.0583 70.723 49.1861C72.9198 53.5317 72.3719 58.9011 70.9094 63.389C70.3855 64.871 69.64 66.2617 68.8927 67.6411C67.4481 67.1596 66.2914 65.0121 65.6288 63.7096C65.5265 63.4957 65.4281 63.28 65.3321 63.0632C65.2497 62.8818 65.1673 62.7004 65.0824 62.5135C63.6999 59.2538 63.7226 55.3667 64.8234 52.0423C64.8829 51.8452 64.9423 51.648 65.0036 51.4449C65.6538 49.4355 66.6503 47.5295 68.0449 45.9385Z" fill="#FFCA28"/>
<path d="M68.0449 45.9385C69.2638 46.4787 69.9245 47.6699 70.5246 48.8103C70.5901 48.9343 70.6555 49.0583 70.723 49.1861C72.9198 53.5317 72.3719 58.9011 70.9094 63.389C70.3855 64.871 69.64 66.2617 68.8927 67.6411C67.4481 67.1596 66.2914 65.0121 65.6288 63.7096C65.5265 63.4957 65.4281 63.28 65.3321 63.0632C65.2497 62.8818 65.1673 62.7004 65.0824 62.5135C63.6999 59.2538 63.7226 55.3667 64.8234 52.0423C64.8829 51.8452 64.9423 51.648 65.0036 51.4449C65.6538 49.4355 66.6503 47.5295 68.0449 45.9385Z" fill="url(#paint2_linear_2001_6239)"/>
<path d="M40.122 106.236C40.3393 106.237 40.3393 106.237 40.561 106.237C42.7514 106.278 45.0446 106.684 47.0206 107.656C47.296 107.785 47.296 107.785 47.577 107.915C49.4906 108.833 51.2336 109.926 52.7854 111.386C52.337 112.492 51.1563 112.915 50.1149 113.361C48.2286 114.139 46.6341 114.498 44.5985 114.492C44.2175 114.491 43.8367 114.495 43.4557 114.5C41.4107 114.509 39.5169 114.258 37.6198 113.437C37.1178 113.222 36.6077 113.037 36.0951 112.849C34.4837 112.229 32.687 111.402 31.4219 110.2C31.4219 109.521 31.4219 109.521 31.6901 109.231C33.3568 107.988 34.9983 107.159 37.0171 106.639C37.1911 106.594 37.1911 106.594 37.3687 106.548C38.2936 106.322 39.1711 106.234 40.122 106.236Z" fill="#FFCA28"/>
<path d="M40.122 106.236C40.3393 106.237 40.3393 106.237 40.561 106.237C42.7514 106.278 45.0446 106.684 47.0206 107.656C47.296 107.785 47.296 107.785 47.577 107.915C49.4906 108.833 51.2336 109.926 52.7854 111.386C52.337 112.492 51.1563 112.915 50.1149 113.361C48.2286 114.139 46.6341 114.498 44.5985 114.492C44.2175 114.491 43.8367 114.495 43.4557 114.5C41.4107 114.509 39.5169 114.258 37.6198 113.437C37.1178 113.222 36.6077 113.037 36.0951 112.849C34.4837 112.229 32.687 111.402 31.4219 110.2C31.4219 109.521 31.4219 109.521 31.6901 109.231C33.3568 107.988 34.9983 107.159 37.0171 106.639C37.1911 106.594 37.1911 106.594 37.3687 106.548C38.2936 106.322 39.1711 106.234 40.122 106.236Z" fill="url(#paint3_linear_2001_6239)"/>
<path d="M44.4758 82.0547C44.6437 82.0547 44.8115 82.0547 44.9845 82.0547C45.1176 82.322 45.2476 82.5908 45.3766 82.8601C45.4493 83.0096 45.5221 83.1591 45.5971 83.3131C46.2127 84.9014 46.4311 86.4189 46.4151 88.1162C46.4138 88.309 46.4125 88.5019 46.4112 88.7006C46.3808 90.2607 46.171 91.5996 45.6627 93.0755C45.6263 93.1859 45.59 93.2962 45.5526 93.4099C44.6963 95.9932 43.4727 98.2444 41.763 100.366C41.629 100.535 41.495 100.703 41.357 100.877C40.735 101.649 40.1187 102.404 39.3893 103.079C39.2774 103.079 39.1655 103.079 39.0502 103.079C37.0785 99.8446 36.5498 96.029 37.4208 92.3142C37.8626 90.7222 38.5804 89.254 39.3893 87.8194C39.4815 87.6525 39.5737 87.4855 39.6688 87.3134C40.7609 85.4701 42.4153 83.6714 44.1367 82.3938C44.2486 82.3938 44.3605 82.3938 44.4758 82.3938C44.4758 82.2819 44.4758 82.17 44.4758 82.0547Z" fill="#FFCA28"/>
<path d="M44.4758 82.0547C44.6437 82.0547 44.8115 82.0547 44.9845 82.0547C45.1176 82.322 45.2476 82.5908 45.3766 82.8601C45.4493 83.0096 45.5221 83.1591 45.5971 83.3131C46.2127 84.9014 46.4311 86.4189 46.4151 88.1162C46.4138 88.309 46.4125 88.5019 46.4112 88.7006C46.3808 90.2607 46.171 91.5996 45.6627 93.0755C45.6263 93.1859 45.59 93.2962 45.5526 93.4099C44.6963 95.9932 43.4727 98.2444 41.763 100.366C41.629 100.535 41.495 100.703 41.357 100.877C40.735 101.649 40.1187 102.404 39.3893 103.079C39.2774 103.079 39.1655 103.079 39.0502 103.079C37.0785 99.8446 36.5498 96.029 37.4208 92.3142C37.8626 90.7222 38.5804 89.254 39.3893 87.8194C39.4815 87.6525 39.5737 87.4855 39.6688 87.3134C40.7609 85.4701 42.4153 83.6714 44.1367 82.3938C44.2486 82.3938 44.3605 82.3938 44.4758 82.3938C44.4758 82.2819 44.4758 82.17 44.4758 82.0547Z" fill="url(#paint4_linear_2001_6239)"/>
<path d="M54.3107 71.71C55.0778 71.9657 55.2213 72.5114 55.5836 73.2055C57.4085 77.0941 57.066 81.8213 55.6869 85.7938C54.684 88.4292 53.0873 90.9342 51.2587 93.0735C50.2025 92.6806 49.6822 91.5022 49.2241 90.5302C47.6723 86.4857 47.7988 82.1409 49.5303 78.1821C50.7009 75.6563 52.342 73.6518 54.3107 71.71Z" fill="#FFCA28"/>
<path d="M54.3107 71.71C55.0778 71.9657 55.2213 72.5114 55.5836 73.2055C57.4085 77.0941 57.066 81.8213 55.6869 85.7938C54.684 88.4292 53.0873 90.9342 51.2587 93.0735C50.2025 92.6806 49.6822 91.5022 49.2241 90.5302C47.6723 86.4857 47.7988 82.1409 49.5303 78.1821C50.7009 75.6563 52.342 73.6518 54.3107 71.71Z" fill="url(#paint5_linear_2001_6239)"/>
<path d="M54.1609 98.4275C54.2726 98.4272 54.3842 98.427 54.4993 98.4268C57.2676 98.4316 59.9917 98.8512 62.4477 100.197C62.6559 100.3 62.8642 100.403 63.073 100.504C63.2671 100.604 63.2671 100.604 63.4651 100.706C62.9463 102.418 61.2612 103.603 59.7653 104.439C56.9797 105.884 54.3021 106.541 51.1726 106.524C51.0522 106.523 50.9318 106.523 50.8078 106.522C47.6973 106.507 45.0386 105.951 42.1016 104.945C42.8298 102.798 45.3913 100.853 47.3577 99.8581C48.3539 99.4571 49.3788 99.1395 50.4096 98.8408C50.6148 98.7769 50.82 98.7131 51.0315 98.6474C52.0564 98.4006 53.1127 98.4293 54.1609 98.4275Z" fill="#FFCA28"/>
<path d="M54.1609 98.4275C54.2726 98.4272 54.3842 98.427 54.4993 98.4268C57.2676 98.4316 59.9917 98.8512 62.4477 100.197C62.6559 100.3 62.8642 100.403 63.073 100.504C63.2671 100.604 63.2671 100.604 63.4651 100.706C62.9463 102.418 61.2612 103.603 59.7653 104.439C56.9797 105.884 54.3021 106.541 51.1726 106.524C51.0522 106.523 50.9318 106.523 50.8078 106.522C47.6973 106.507 45.0386 105.951 42.1016 104.945C42.8298 102.798 45.3913 100.853 47.3577 99.8581C48.3539 99.4571 49.3788 99.1395 50.4096 98.8408C50.6148 98.7769 50.82 98.7131 51.0315 98.6474C52.0564 98.4006 53.1127 98.4293 54.1609 98.4275Z" fill="url(#paint6_linear_2001_6239)"/>
<path d="M83.6645 59.8213C83.8851 59.8203 83.8851 59.8203 84.1102 59.8193C84.8782 59.8205 85.6005 59.856 86.3561 60.0121C86.2519 60.5035 86.0998 60.8883 85.8468 61.3215C85.7778 61.4398 85.7089 61.5581 85.6378 61.6801C85.5636 61.8045 85.4894 61.929 85.413 62.0573C85.3365 62.186 85.26 62.3148 85.1812 62.4474C83.949 64.4971 82.496 66.3305 80.7609 67.981C80.6492 68.0918 80.5375 68.2026 80.4225 68.3168C77.8603 70.7611 74.6422 72.2885 71.0859 72.2622C70.8189 72.2641 70.8189 72.2641 70.5464 72.2661C69.5896 72.2637 68.7779 72.2034 67.875 71.8807C68.3629 68.345 71.9487 64.8552 74.6427 62.8041C77.3052 60.878 80.3893 59.8066 83.6645 59.8213Z" fill="#FFCA28"/>
<path d="M83.6645 59.8213C83.8851 59.8203 83.8851 59.8203 84.1102 59.8193C84.8782 59.8205 85.6005 59.856 86.3561 60.0121C86.2519 60.5035 86.0998 60.8883 85.8468 61.3215C85.7778 61.4398 85.7089 61.5581 85.6378 61.6801C85.5636 61.8045 85.4894 61.929 85.413 62.0573C85.3365 62.186 85.26 62.3148 85.1812 62.4474C83.949 64.4971 82.496 66.3305 80.7609 67.981C80.6492 68.0918 80.5375 68.2026 80.4225 68.3168C77.8603 70.7611 74.6422 72.2885 71.0859 72.2622C70.8189 72.2641 70.8189 72.2641 70.5464 72.2661C69.5896 72.2637 68.7779 72.2034 67.875 71.8807C68.3629 68.345 71.9487 64.8552 74.6427 62.8041C77.3052 60.878 80.3893 59.8066 83.6645 59.8213Z" fill="url(#paint7_linear_2001_6239)"/>
<path d="M67.3454 87.2356C67.5326 87.2339 67.7198 87.2322 67.9127 87.2305C69.8822 87.2512 71.6753 87.6984 73.4704 88.4967C72.7227 91.0414 70.464 92.8458 68.2541 94.1349C66.4453 95.1114 64.6187 95.5615 62.6191 95.957C62.4828 95.9871 62.3465 96.0173 62.2061 96.0484C59.4024 96.5522 55.9141 96.1968 53.2938 95.1092C52.9779 94.833 52.9779 94.833 52.7852 94.6005C54.1656 92.8622 55.4952 91.4039 57.363 90.1922C57.5348 90.0781 57.7066 89.964 57.8836 89.8465C60.8157 87.96 63.8924 87.2559 67.3454 87.2356Z" fill="#FFCA28"/>
<path d="M67.3454 87.2356C67.5326 87.2339 67.7198 87.2322 67.9127 87.2305C69.8822 87.2512 71.6753 87.6984 73.4704 88.4967C72.7227 91.0414 70.464 92.8458 68.2541 94.1349C66.4453 95.1114 64.6187 95.5615 62.6191 95.957C62.4828 95.9871 62.3465 96.0173 62.2061 96.0484C59.4024 96.5522 55.9141 96.1968 53.2938 95.1092C52.9779 94.833 52.9779 94.833 52.7852 94.6005C54.1656 92.8622 55.4952 91.4039 57.363 90.1922C57.5348 90.0781 57.7066 89.964 57.8836 89.8465C60.8157 87.96 63.8924 87.2559 67.3454 87.2356Z" fill="url(#paint8_linear_2001_6239)"/>
<path d="M88.7271 44.9219C88.5339 49.2015 86.0907 53.0263 83.3015 56.1123C83.176 56.252 83.0506 56.3917 82.9213 56.5355C81.2705 58.2801 79.4919 59.342 77.1976 60.012C77.086 60.0463 76.9743 60.0806 76.8592 60.116C76.3765 60.2091 75.9085 60.2105 75.4173 60.2134C75.2268 60.2158 75.0362 60.2182 74.8398 60.2206C74.3373 60.1832 74.0598 60.1046 73.6371 59.8425C73.3107 56.8259 75.0666 53.9712 76.8585 51.704C79.647 48.3318 84.0515 44.542 88.7271 44.9219Z" fill="#FFCA28"/>
<path d="M88.7271 44.9219C88.5339 49.2015 86.0907 53.0263 83.3015 56.1123C83.176 56.252 83.0506 56.3917 82.9213 56.5355C81.2705 58.2801 79.4919 59.342 77.1976 60.012C77.086 60.0463 76.9743 60.0806 76.8592 60.116C76.3765 60.2091 75.9085 60.2105 75.4173 60.2134C75.2268 60.2158 75.0362 60.2182 74.8398 60.2206C74.3373 60.1832 74.0598 60.1046 73.6371 59.8425C73.3107 56.8259 75.0666 53.9712 76.8585 51.704C79.647 48.3318 84.0515 44.542 88.7271 44.9219Z" fill="url(#paint9_linear_2001_6239)"/>
<path d="M74.6555 30.3408C76.2499 31.8005 77.0656 34.0868 77.7075 36.1056C77.7654 36.2852 77.8233 36.4649 77.883 36.65C78.691 39.6943 78.3946 43.1108 77.5379 46.1091C77.4929 46.2737 77.4479 46.4383 77.4015 46.6078C76.7933 48.5046 75.6992 50.3529 74.6555 52.0434C73.7897 51.7548 73.4417 50.9212 72.96 50.1784C72.8593 50.0254 72.7585 49.8724 72.6547 49.7147C72.0484 48.7414 71.5949 47.758 71.2115 46.6814C71.1704 46.566 71.1293 46.4507 71.087 46.3319C70.5202 44.6584 70.3588 43.0723 70.3637 41.3087C70.361 41.1165 70.3583 40.9242 70.3555 40.7262C70.3533 36.8587 71.9313 33.0799 74.6555 30.3408Z" fill="#FFCA28"/>
<path d="M74.6555 30.3408C76.2499 31.8005 77.0656 34.0868 77.7075 36.1056C77.7654 36.2852 77.8233 36.4649 77.883 36.65C78.691 39.6943 78.3946 43.1108 77.5379 46.1091C77.4929 46.2737 77.4479 46.4383 77.4015 46.6078C76.7933 48.5046 75.6992 50.3529 74.6555 52.0434C73.7897 51.7548 73.4417 50.9212 72.96 50.1784C72.8593 50.0254 72.7585 49.8724 72.6547 49.7147C72.0484 48.7414 71.5949 47.758 71.2115 46.6814C71.1704 46.566 71.1293 46.4507 71.087 46.3319C70.5202 44.6584 70.3588 43.0723 70.3637 41.3087C70.361 41.1165 70.3583 40.9242 70.3555 40.7262C70.3533 36.8587 71.9313 33.0799 74.6555 30.3408Z" fill="url(#paint10_linear_2001_6239)"/>
<path d="M76.7325 73.1537C76.915 73.1526 77.0976 73.1515 77.2857 73.1504C78.5193 73.17 79.7764 73.2751 80.9289 73.7471C81.0984 74.2558 81.0984 74.2558 80.8527 74.7784C80.7288 74.9907 80.6021 75.2015 80.4732 75.4109C80.4046 75.5231 80.3361 75.6354 80.2655 75.7511C78.6475 78.3209 76.4536 80.5554 73.8077 82.0552C73.6302 82.1583 73.4527 82.2615 73.2699 82.3678C71.0069 83.5983 68.3872 84.1242 65.8176 84.1216C65.693 84.1216 65.5684 84.1215 65.44 84.1215C62.7959 84.0943 62.7959 84.0943 61.7695 83.5811C62.3413 81.5725 64.0872 79.9789 65.4997 78.4946C65.6107 78.3726 65.7217 78.2507 65.8361 78.125C68.6545 75.1259 72.6308 73.177 76.7325 73.1537Z" fill="#FFCA28"/>
<path d="M76.7325 73.1537C76.915 73.1526 77.0976 73.1515 77.2857 73.1504C78.5193 73.17 79.7764 73.2751 80.9289 73.7471C81.0984 74.2558 81.0984 74.2558 80.8527 74.7784C80.7288 74.9907 80.6021 75.2015 80.4732 75.4109C80.4046 75.5231 80.3361 75.6354 80.2655 75.7511C78.6475 78.3209 76.4536 80.5554 73.8077 82.0552C73.6302 82.1583 73.4527 82.2615 73.2699 82.3678C71.0069 83.5983 68.3872 84.1242 65.8176 84.1216C65.693 84.1216 65.5684 84.1215 65.44 84.1215C62.7959 84.0943 62.7959 84.0943 61.7695 83.5811C62.3413 81.5725 64.0872 79.9789 65.4997 78.4946C65.6107 78.3726 65.7217 78.2507 65.8361 78.125C68.6545 75.1259 72.6308 73.177 76.7325 73.1537Z" fill="url(#paint11_linear_2001_6239)"/>
<path d="M31.5912 0.5C31.9303 0.5 31.9303 0.5 32.1992 0.766911C32.2993 0.885154 32.3994 1.0034 32.5025 1.12522C32.6018 1.24128 32.701 1.35733 32.8032 1.47691C32.9068 1.60214 33.0104 1.72738 33.1172 1.85641C33.2278 1.98952 33.3384 2.12262 33.4523 2.25976C34.4166 3.50884 35.3064 4.94052 35.83 6.4343C35.8929 6.60719 35.9559 6.78007 36.0207 6.95819C36.4987 8.51308 36.5697 10.0032 36.5718 11.6268C36.5721 11.8307 36.5723 12.0345 36.5726 12.2446C36.5504 14.0568 36.4707 15.9309 35.7452 17.6141C35.4408 18.3486 35.1792 19.0591 34.9822 19.8289C34.8703 19.8289 34.7584 19.8289 34.6431 19.8289C34.5872 20.1646 34.5312 20.5003 34.4736 20.8462C33.2593 20.7358 32.4867 19.9297 31.7396 19.0447C29.0633 15.547 28.6875 10.6164 29.1645 6.38132C29.4772 4.2464 30.0163 2.07495 31.5912 0.5Z" fill="#FFCA28"/>
<path d="M31.5912 0.5C31.9303 0.5 31.9303 0.5 32.1992 0.766911C32.2993 0.885154 32.3994 1.0034 32.5025 1.12522C32.6018 1.24128 32.701 1.35733 32.8032 1.47691C32.9068 1.60214 33.0104 1.72738 33.1172 1.85641C33.2278 1.98952 33.3384 2.12262 33.4523 2.25976C34.4166 3.50884 35.3064 4.94052 35.83 6.4343C35.8929 6.60719 35.9559 6.78007 36.0207 6.95819C36.4987 8.51308 36.5697 10.0032 36.5718 11.6268C36.5721 11.8307 36.5723 12.0345 36.5726 12.2446C36.5504 14.0568 36.4707 15.9309 35.7452 17.6141C35.4408 18.3486 35.1792 19.0591 34.9822 19.8289C34.8703 19.8289 34.7584 19.8289 34.6431 19.8289C34.5872 20.1646 34.5312 20.5003 34.4736 20.8462C33.2593 20.7358 32.4867 19.9297 31.7396 19.0447C29.0633 15.547 28.6875 10.6164 29.1645 6.38132C29.4772 4.2464 30.0163 2.07495 31.5912 0.5Z" fill="url(#paint12_linear_2001_6239)"/>
<path d="M1.91659 106.81C2.3454 106.976 2.76468 107.149 3.17895 107.349C6.85236 109.068 11.4024 108.776 15.3112 108.166C15.8758 108.103 16.4409 108.048 17.0067 107.996C15.5631 109.531 12.7518 110.045 10.7333 110.37C13.872 111.228 17.0264 111.256 20.2282 110.709C20.3433 110.69 20.4585 110.671 20.5772 110.651C22.9993 110.23 25.5332 109.468 27.7097 108.314C28.0275 108.166 28.0275 108.166 28.5362 108.166C28.8884 108.606 29.0507 108.87 29.0274 109.44C28.8753 109.861 28.8753 109.861 28.5013 110.105C28.3393 110.169 28.1773 110.232 28.0103 110.297C27.7438 110.405 27.7438 110.405 27.4718 110.514C27.2845 110.585 27.0972 110.657 26.9042 110.73C26.7209 110.803 26.5375 110.876 26.3486 110.951C25.9915 111.093 25.6338 111.233 25.2755 111.372C24.912 111.515 24.5532 111.671 24.1967 111.831C23.4067 112.152 22.6003 112.363 21.7753 112.574C21.6041 112.619 21.4328 112.663 21.2564 112.709C19.7932 113.079 18.3295 113.366 16.8371 113.592C16.6599 113.623 16.4826 113.654 16.3 113.686C10.8233 114.317 4.98307 113.158 0.390625 110.031C0.488232 109.357 0.695712 108.898 1.05823 108.325C1.36965 107.828 1.66366 107.339 1.91659 106.81Z" fill="#E2A610"/>
<path d="M24.8062 51.7051C27.1664 52.5164 28.8857 54.5762 30.0199 56.728C30.6492 58.0597 31.067 59.433 31.4187 60.8609C31.4606 61.0292 31.5026 61.1974 31.5458 61.3708C32.0658 63.9055 31.8876 66.6784 31.2491 69.1689C28.4657 68.3253 26.6966 66.2025 25.3257 63.7515C24.8748 62.8835 24.5588 61.9722 24.2975 61.0304C24.2666 60.9221 24.2356 60.8138 24.2037 60.7022C23.9062 59.5464 23.8935 58.4039 23.8948 57.2155C23.8947 57.0067 23.8946 56.7979 23.8945 56.5828C23.9427 52.5686 23.9427 52.5686 24.8062 51.7051Z" fill="#FFCA28"/>
<path d="M24.8062 51.7051C27.1664 52.5164 28.8857 54.5762 30.0199 56.728C30.6492 58.0597 31.067 59.433 31.4187 60.8609C31.4606 61.0292 31.5026 61.1974 31.5458 61.3708C32.0658 63.9055 31.8876 66.6784 31.2491 69.1689C28.4657 68.3253 26.6966 66.2025 25.3257 63.7515C24.8748 62.8835 24.5588 61.9722 24.2975 61.0304C24.2666 60.9221 24.2356 60.8138 24.2037 60.7022C23.9062 59.5464 23.8935 58.4039 23.8948 57.2155C23.8947 57.0067 23.8946 56.7979 23.8945 56.5828C23.9427 52.5686 23.9427 52.5686 24.8062 51.7051Z" fill="url(#paint13_linear_2001_6239)"/>
<path d="M24.2982 26.7812C27.1899 27.3269 29.4411 29.524 31.0803 31.8678C33.2445 35.24 33.8625 38.78 33.7931 42.7191C32.7883 42.6365 32.019 42.4343 31.1227 41.9773C31.0055 41.9177 30.8883 41.8581 30.7676 41.7967C27.6733 40.1421 25.8256 37.1906 24.7585 33.9335C24.2413 32.2149 24.0999 30.6138 24.1075 28.8265C24.1068 28.6664 24.1061 28.5063 24.1055 28.3413C24.1057 28.1887 24.1059 28.036 24.1061 27.8787C24.1063 27.741 24.1065 27.6033 24.1067 27.4615C24.1286 27.1204 24.1286 27.1204 24.2982 26.7812Z" fill="#FFCA28"/>
<path d="M24.2982 26.7812C27.1899 27.3269 29.4411 29.524 31.0803 31.8678C33.2445 35.24 33.8625 38.78 33.7931 42.7191C32.7883 42.6365 32.019 42.4343 31.1227 41.9773C31.0055 41.9177 30.8883 41.8581 30.7676 41.7967C27.6733 40.1421 25.8256 37.1906 24.7585 33.9335C24.2413 32.2149 24.0999 30.6138 24.1075 28.8265C24.1068 28.6664 24.1061 28.5063 24.1055 28.3413C24.1057 28.1887 24.1059 28.036 24.1061 27.8787C24.1063 27.741 24.1065 27.6033 24.1067 27.4615C24.1286 27.1204 24.1286 27.1204 24.2982 26.7812Z" fill="url(#paint14_linear_2001_6239)"/>
<path d="M40.0669 82.0543C39.7795 84.0229 38.2837 85.6092 36.7699 86.7845C36.3503 87.0857 35.9224 87.3686 35.489 87.6495C35.3685 87.7365 35.2481 87.8234 35.124 87.9131C32.4413 89.733 28.8388 90.0845 25.6974 90.0444C25.4616 90.0427 25.2258 90.0411 24.99 90.0397C24.4204 90.0358 23.8508 90.0302 23.2812 90.0232C23.6239 88.2452 24.6043 86.4647 25.9941 85.2757C26.106 85.2757 26.2179 85.2757 26.3332 85.2757C26.3891 85.1079 26.4451 84.94 26.5027 84.7671C28.0939 83.4849 29.8106 82.6401 31.7588 82.0543C31.9461 81.9968 32.1334 81.9393 32.3264 81.8801C34.8039 81.2393 37.6254 81.2804 40.0669 82.0543Z" fill="#FFCA28"/>
<path d="M40.0669 82.0543C39.7795 84.0229 38.2837 85.6092 36.7699 86.7845C36.3503 87.0857 35.9224 87.3686 35.489 87.6495C35.3685 87.7365 35.2481 87.8234 35.124 87.9131C32.4413 89.733 28.8388 90.0845 25.6974 90.0444C25.4616 90.0427 25.2258 90.0411 24.99 90.0397C24.4204 90.0358 23.8508 90.0302 23.2812 90.0232C23.6239 88.2452 24.6043 86.4647 25.9941 85.2757C26.106 85.2757 26.2179 85.2757 26.3332 85.2757C26.3891 85.1079 26.4451 84.94 26.5027 84.7671C28.0939 83.4849 29.8106 82.6401 31.7588 82.0543C31.9461 81.9968 32.1334 81.9393 32.3264 81.8801C34.8039 81.2393 37.6254 81.2804 40.0669 82.0543Z" fill="url(#paint15_linear_2001_6239)"/>
<path d="M42.8655 69.6672C43.0107 69.6688 43.1558 69.6703 43.3053 69.6719C43.412 69.6738 43.5186 69.6758 43.6285 69.6778C43.5726 71.9311 42.6639 73.726 41.2548 75.4426C41.1416 75.5855 41.0284 75.7285 40.9117 75.8757C39.2141 77.9015 37.0008 79.0889 34.6423 80.19C34.5092 80.2595 34.3761 80.329 34.2389 80.4006C32.8226 81.1157 30.9705 81.5464 29.3862 81.5464C29.3512 80.5924 29.4383 79.7884 29.7359 78.876C29.7737 78.7587 29.8116 78.6414 29.8506 78.5206C30.894 75.4465 33.2971 72.8735 36.1682 71.3733C37.1593 70.9075 38.2005 70.5742 39.2414 70.2395C39.4084 70.1849 39.4084 70.1849 39.5788 70.1292C40.6627 69.7903 41.7264 69.6514 42.8655 69.6672Z" fill="#FFCA28"/>
<path d="M42.8655 69.6672C43.0107 69.6688 43.1558 69.6703 43.3053 69.6719C43.412 69.6738 43.5186 69.6758 43.6285 69.6778C43.5726 71.9311 42.6639 73.726 41.2548 75.4426C41.1416 75.5855 41.0284 75.7285 40.9117 75.8757C39.2141 77.9015 37.0008 79.0889 34.6423 80.19C34.5092 80.2595 34.3761 80.329 34.2389 80.4006C32.8226 81.1157 30.9705 81.5464 29.3862 81.5464C29.3512 80.5924 29.4383 79.7884 29.7359 78.876C29.7737 78.7587 29.8116 78.6414 29.8506 78.5206C30.894 75.4465 33.2971 72.8735 36.1682 71.3733C37.1593 70.9075 38.2005 70.5742 39.2414 70.2395C39.4084 70.1849 39.4084 70.1849 39.5788 70.1292C40.6627 69.7903 41.7264 69.6514 42.8655 69.6672Z" fill="url(#paint16_linear_2001_6239)"/>
<path d="M21.7556 63.5723C23.3815 63.8719 24.5924 65.5212 25.4857 66.7937C27.9033 70.8069 28.0272 75.7522 26.9337 80.1997C26.8203 80.6055 26.6748 80.9906 26.503 81.3752C24.8617 81.0528 23.697 79.6903 22.7987 78.3723C22.4994 77.9083 22.2116 77.4388 21.9251 76.9668C21.8027 76.785 21.6803 76.6031 21.5542 76.4158C19.8683 73.4363 20.0332 69.1111 20.8813 65.9168C21.1245 65.1118 21.3963 64.333 21.7556 63.5723Z" fill="#FFCA28"/>
<path d="M21.7556 63.5723C23.3815 63.8719 24.5924 65.5212 25.4857 66.7937C27.9033 70.8069 28.0272 75.7522 26.9337 80.1997C26.8203 80.6055 26.6748 80.9906 26.503 81.3752C24.8617 81.0528 23.697 79.6903 22.7987 78.3723C22.4994 77.9083 22.2116 77.4388 21.9251 76.9668C21.8027 76.785 21.6803 76.6031 21.5542 76.4158C19.8683 73.4363 20.0332 69.1111 20.8813 65.9168C21.1245 65.1118 21.3963 64.333 21.7556 63.5723Z" fill="url(#paint17_linear_2001_6239)"/>
<path d="M24.4667 40.0049C27.0013 40.24 28.9706 41.9352 30.5627 43.8366C33.2953 47.2746 34.2524 51.4625 34.1311 55.7732C31.827 55.6025 29.6694 54.3591 28.1375 52.633C27.918 52.3592 27.7064 52.0812 27.4974 51.7993C27.4268 51.7065 27.3562 51.6138 27.2835 51.5182C25.8001 49.5534 25.1915 47.6227 24.6362 45.261C24.6057 45.1587 24.5752 45.0565 24.5437 44.9511C24.4425 44.4668 24.4478 44.0098 24.4501 43.5151C24.4507 43.3108 24.4512 43.1064 24.4518 42.8959C24.4532 42.6832 24.4546 42.4705 24.4561 42.2514C24.4569 42.0362 24.4576 41.8209 24.4584 41.5991C24.4604 41.0677 24.4632 40.5363 24.4667 40.0049Z" fill="#FFCA28"/>
<path d="M24.4667 40.0049C27.0013 40.24 28.9706 41.9352 30.5627 43.8366C33.2953 47.2746 34.2524 51.4625 34.1311 55.7732C31.827 55.6025 29.6694 54.3591 28.1375 52.633C27.918 52.3592 27.7064 52.0812 27.4974 51.7993C27.4268 51.7065 27.3562 51.6138 27.2835 51.5182C25.8001 49.5534 25.1915 47.6227 24.6362 45.261C24.6057 45.1587 24.5752 45.0565 24.5437 44.9511C24.4425 44.4668 24.4478 44.0098 24.4501 43.5151C24.4507 43.3108 24.4512 43.1064 24.4518 42.8959C24.4532 42.6832 24.4546 42.4705 24.4561 42.2514C24.4569 42.0362 24.4576 41.8209 24.4584 41.5991C24.4604 41.0677 24.4632 40.5363 24.4667 40.0049Z" fill="url(#paint18_linear_2001_6239)"/>
<path d="M39.23 17.625C39.5585 17.7946 39.5585 17.7946 39.7672 18.2204C39.8207 18.3981 39.8743 18.5758 39.9294 18.7589C40.0117 19.0221 40.0117 19.0221 40.0957 19.2907C40.9112 22.4036 40.7204 26.341 39.5585 29.3241C39.4914 29.5138 39.4243 29.7035 39.3552 29.8989C38.6088 31.8728 37.3185 33.8161 35.3621 34.7603C34.4885 35.0123 34.4885 35.0123 33.9633 34.7497C32.5884 32.3054 32.7881 28.7255 33.4701 26.0962C34.125 23.8354 36.4403 17.625 39.23 17.625Z" fill="#FFCA28"/>
<path d="M39.23 17.625C39.5585 17.7946 39.5585 17.7946 39.7672 18.2204C39.8207 18.3981 39.8743 18.5758 39.9294 18.7589C40.0117 19.0221 40.0117 19.0221 40.0957 19.2907C40.9112 22.4036 40.7204 26.341 39.5585 29.3241C39.4914 29.5138 39.4243 29.7035 39.3552 29.8989C38.6088 31.8728 37.3185 33.8161 35.3621 34.7603C34.4885 35.0123 34.4885 35.0123 33.9633 34.7497C32.5884 32.3054 32.7881 28.7255 33.4701 26.0962C34.125 23.8354 36.4403 17.625 39.23 17.625Z" fill="url(#paint19_linear_2001_6239)"/>
<path d="M45.8298 42.3792C45.8501 43.4073 45.7958 44.3661 45.6179 45.3781C45.583 45.5768 45.583 45.5768 45.5474 45.7794C44.9123 49.2621 43.6296 51.9603 41.0824 54.4173C40.984 54.519 40.8857 54.6206 40.7844 54.7253C39.4644 55.9934 36.9995 57.4692 35.1481 57.4692C34.973 53.5653 36.308 49.2601 38.8782 46.2788C38.9683 46.1645 39.0583 46.0502 39.1511 45.9325C40.6976 44.0288 43.2941 42.2555 45.8298 42.3792Z" fill="#FFCA28"/>
<path d="M45.8298 42.3792C45.8501 43.4073 45.7958 44.3661 45.6179 45.3781C45.583 45.5768 45.583 45.5768 45.5474 45.7794C44.9123 49.2621 43.6296 51.9603 41.0824 54.4173C40.984 54.519 40.8857 54.6206 40.7844 54.7253C39.4644 55.9934 36.9995 57.4692 35.1481 57.4692C34.973 53.5653 36.308 49.2601 38.8782 46.2788C38.9683 46.1645 39.0583 46.0502 39.1511 45.9325C40.6976 44.0288 43.2941 42.2555 45.8298 42.3792Z" fill="url(#paint20_linear_2001_6239)"/>
<path d="M22.7717 12.708C24.8476 13.0201 26.4383 14.6756 27.8583 16.099C27.9754 16.2142 28.0926 16.3294 28.2133 16.4481C31.3957 19.8114 31.8706 24.419 31.7579 28.8154C29.2026 28.5098 26.9987 26.4379 25.3733 24.5733C22.9852 21.5364 22.0192 17.8908 22.4326 14.0644C22.5234 13.6011 22.6391 13.1618 22.7717 12.708Z" fill="#FFCA28"/>
<path d="M22.7717 12.708C24.8476 13.0201 26.4383 14.6756 27.8583 16.099C27.9754 16.2142 28.0926 16.3294 28.2133 16.4481C31.3957 19.8114 31.8706 24.419 31.7579 28.8154C29.2026 28.5098 26.9987 26.4379 25.3733 24.5733C22.9852 21.5364 22.0192 17.8908 22.4326 14.0644C22.5234 13.6011 22.6391 13.1618 22.7717 12.708Z" fill="url(#paint21_linear_2001_6239)"/>
<path d="M46.0002 56.4511C46.1528 59.6391 45.0255 62.1954 42.9483 64.5896C42.839 64.7314 42.7297 64.8733 42.6171 65.0194C40.4826 67.5898 36.9757 68.9748 33.7925 69.6761C33.5687 69.6761 33.3449 69.6761 33.1143 69.6761C33.0643 66.4999 34.8688 63.3036 36.9888 61.0641C37.1691 60.8789 37.1691 60.8789 37.3531 60.6899C37.4523 60.5822 37.5515 60.4744 37.6538 60.3634C39.6716 58.2272 42.9939 56.3379 46.0002 56.4511Z" fill="#FFCA28"/>
<path d="M46.0002 56.4511C46.1528 59.6391 45.0255 62.1954 42.9483 64.5896C42.839 64.7314 42.7297 64.8733 42.6171 65.0194C40.4826 67.5898 36.9757 68.9748 33.7925 69.6761C33.5687 69.6761 33.3449 69.6761 33.1143 69.6761C33.0643 66.4999 34.8688 63.3036 36.9888 61.0641C37.1691 60.8789 37.1691 60.8789 37.3531 60.6899C37.4523 60.5822 37.5515 60.4744 37.6538 60.3634C39.6716 58.2272 42.9939 56.3379 46.0002 56.4511Z" fill="url(#paint22_linear_2001_6239)"/>
<path d="M43.797 30.002C43.8751 32.5883 43.8503 34.9704 43.1188 37.4622C43.0453 37.734 43.0453 37.734 42.9704 38.0113C42.1546 40.7609 40.5035 43.5481 38.0322 45.092C37.9122 45.172 37.7922 45.252 37.6686 45.3344C36.7195 45.9228 35.9149 46.032 34.8107 46.1094C34.7979 45.4495 34.7888 44.7896 34.7828 44.1297C34.779 43.7977 34.7726 43.4658 34.766 43.1339C34.7375 39.3905 36.2287 35.847 38.7104 33.0539C38.8062 32.9461 38.9019 32.8384 39.0005 32.7274C40.1941 31.4637 41.9755 30.002 43.797 30.002Z" fill="#FFCA28"/>
<path d="M43.797 30.002C43.8751 32.5883 43.8503 34.9704 43.1188 37.4622C43.0453 37.734 43.0453 37.734 42.9704 38.0113C42.1546 40.7609 40.5035 43.5481 38.0322 45.092C37.9122 45.172 37.7922 45.252 37.6686 45.3344C36.7195 45.9228 35.9149 46.032 34.8107 46.1094C34.7979 45.4495 34.7888 44.7896 34.7828 44.1297C34.779 43.7977 34.7726 43.4658 34.766 43.1339C34.7375 39.3905 36.2287 35.847 38.7104 33.0539C38.8062 32.9461 38.9019 32.8384 39.0005 32.7274C40.1941 31.4637 41.9755 30.002 43.797 30.002Z" fill="url(#paint23_linear_2001_6239)"/>
<path d="M34.4743 90.7021C35.8195 93.1144 36.0492 95.833 35.3644 98.4909C35.242 98.8916 35.1152 99.2909 34.9829 99.6884C34.9095 99.9274 34.9095 99.9274 34.8346 100.171C33.8798 103.065 32.1236 105.598 29.8964 107.657C29.3281 107.018 29.0384 106.43 28.7625 105.623C28.6919 105.42 28.6213 105.217 28.5486 105.008C27.863 102.806 27.9127 99.9827 28.7095 97.8233C28.7774 97.6338 28.7774 97.6338 28.8466 97.4405C29.6956 95.3351 31.037 93.6566 32.6092 92.0586C32.7607 91.8994 32.9121 91.7403 33.0682 91.5764C33.4569 91.2108 33.4569 91.2108 33.7961 91.2108C33.7961 91.0989 33.7961 90.987 33.7961 90.8717C34.1352 90.7021 34.1352 90.7021 34.4743 90.7021Z" fill="#FFCA28"/>
<path d="M34.4743 90.7021C35.8195 93.1144 36.0492 95.833 35.3644 98.4909C35.242 98.8916 35.1152 99.2909 34.9829 99.6884C34.9095 99.9274 34.9095 99.9274 34.8346 100.171C33.8798 103.065 32.1236 105.598 29.8964 107.657C29.3281 107.018 29.0384 106.43 28.7625 105.623C28.6919 105.42 28.6213 105.217 28.5486 105.008C27.863 102.806 27.9127 99.9827 28.7095 97.8233C28.7774 97.6338 28.7774 97.6338 28.8466 97.4405C29.6956 95.3351 31.037 93.6566 32.6092 92.0586C32.7607 91.8994 32.9121 91.7403 33.0682 91.5764C33.4569 91.2108 33.4569 91.2108 33.7961 91.2108C33.7961 91.0989 33.7961 90.987 33.7961 90.8717C34.1352 90.7021 34.1352 90.7021 34.4743 90.7021Z" fill="url(#paint24_linear_2001_6239)"/>
<path d="M20.3993 89.6846C21.1985 89.9369 21.1985 89.9369 21.4444 90.376C21.4912 90.4836 21.538 90.5911 21.5861 90.7019C18.5437 95.052 14.7323 99.0345 9.71754 101.045C9.5357 101.128 9.35385 101.212 9.1665 101.299C6.28164 102.505 3.3172 102.819 0.222656 102.74C0.222656 101.677 0.222656 100.614 0.222656 99.5186C0.558368 99.5081 0.89408 99.4976 1.23997 99.4868C5.27843 99.1752 8.62043 96.8221 11.7522 94.432C11.7522 95.6587 10.1315 96.9205 9.28307 97.7701C9.03313 98.0147 8.78266 98.2587 8.53068 98.5013C9.03817 98.5013 9.2748 98.4306 9.7341 98.2403C9.86916 98.1844 10.0042 98.1284 10.1434 98.0708C10.2861 98.01 10.4288 97.9492 10.5759 97.8866C10.722 97.8244 10.8681 97.7622 11.0187 97.6982C14.6739 96.1153 17.5406 93.527 19.8906 90.3628C20.0424 90.1605 20.0424 90.1605 20.1973 89.9541C20.2639 89.8652 20.3306 89.7762 20.3993 89.6846Z" fill="#E2A610"/>
<path d="M17.5184 74.2539C17.6863 74.2539 17.8542 74.2539 18.0271 74.2539C18.0271 74.3658 18.0271 74.4777 18.0271 74.593C18.1512 74.633 18.2754 74.673 18.4033 74.7142C19.7049 75.3156 20.7107 76.8527 21.2486 78.1536C21.5066 78.9374 21.724 79.7276 21.9268 80.5273C22.0183 80.8476 22.0183 80.8476 22.1116 81.1744C22.3076 81.9682 22.3309 82.7432 22.3295 83.558C22.3292 83.7881 22.3292 83.7881 22.329 84.0228C22.3105 85.1018 22.1885 86.1282 21.9586 87.1822C21.9306 87.3124 21.9026 87.4427 21.8737 87.5769C21.7857 87.9372 21.7857 87.9372 21.5877 88.4962C21.079 88.6658 21.079 88.6658 20.7492 88.5254C19.0886 87.4421 17.9238 85.9162 17.1793 84.0879C17.1129 83.9384 17.0465 83.7889 16.978 83.6349C15.8552 80.6875 16.3266 77.1046 17.5184 74.2539Z" fill="#FFCA28"/>
<path d="M17.5184 74.2539C17.6863 74.2539 17.8542 74.2539 18.0271 74.2539C18.0271 74.3658 18.0271 74.4777 18.0271 74.593C18.1512 74.633 18.2754 74.673 18.4033 74.7142C19.7049 75.3156 20.7107 76.8527 21.2486 78.1536C21.5066 78.9374 21.724 79.7276 21.9268 80.5273C22.0183 80.8476 22.0183 80.8476 22.1116 81.1744C22.3076 81.9682 22.3309 82.7432 22.3295 83.558C22.3292 83.7881 22.3292 83.7881 22.329 84.0228C22.3105 85.1018 22.1885 86.1282 21.9586 87.1822C21.9306 87.3124 21.9026 87.4427 21.8737 87.5769C21.7857 87.9372 21.7857 87.9372 21.5877 88.4962C21.079 88.6658 21.079 88.6658 20.7492 88.5254C19.0886 87.4421 17.9238 85.9162 17.1793 84.0879C17.1129 83.9384 17.0465 83.7889 16.978 83.6349C15.8552 80.6875 16.3266 77.1046 17.5184 74.2539Z" fill="url(#paint25_linear_2001_6239)"/>
<defs>
<linearGradient id="paint0_linear_2001_6239" x1="81.1379" y1="21.9661" x2="97.3079" y2="28.9254" gradientUnits="userSpaceOnUse">
<stop stop-color="#FFC181"/>
<stop offset="1" stop-color="#EFC334"/>
</linearGradient>
<linearGradient id="paint1_linear_2001_6239" x1="57.6545" y1="58.444" x2="69.8268" y2="62.1678" gradientUnits="userSpaceOnUse">
<stop stop-color="#FFC181"/>
<stop offset="1" stop-color="#EFC334"/>
</linearGradient>
<linearGradient id="paint2_linear_2001_6239" x1="64.7993" y1="44.8786" x2="76.975" y2="48.6047" gradientUnits="userSpaceOnUse">
<stop stop-color="#FFC181"/>
<stop offset="1" stop-color="#EFC334"/>
</linearGradient>
<linearGradient id="paint3_linear_2001_6239" x1="33.4603" y1="105.833" x2="39.8893" y2="119.341" gradientUnits="userSpaceOnUse">
<stop stop-color="#FFC181"/>
<stop offset="1" stop-color="#EFC334"/>
</linearGradient>
<linearGradient id="paint4_linear_2001_6239" x1="37.9126" y1="81.0279" x2="51.443" y2="85.9445" gradientUnits="userSpaceOnUse">
<stop stop-color="#FFC181"/>
<stop offset="1" stop-color="#EFC334"/>
</linearGradient>
<linearGradient id="paint5_linear_2001_6239" x1="48.9705" y1="70.6666" x2="61.7444" y2="74.8933" gradientUnits="userSpaceOnUse">
<stop stop-color="#FFC181"/>
<stop offset="1" stop-color="#EFC334"/>
</linearGradient>
<linearGradient id="paint6_linear_2001_6239" x1="44.14" y1="98.0313" x2="50.3584" y2="111.365" gradientUnits="userSpaceOnUse">
<stop stop-color="#FFC181"/>
<stop offset="1" stop-color="#EFC334"/>
</linearGradient>
<linearGradient id="paint7_linear_2001_6239" x1="69.6384" y1="59.2115" x2="81.8987" y2="74.0063" gradientUnits="userSpaceOnUse">
<stop stop-color="#FFC181"/>
<stop offset="1" stop-color="#EFC334"/>
</linearGradient>
<linearGradient id="paint8_linear_2001_6239" x1="54.7589" y1="86.7888" x2="62.3226" y2="100.85" gradientUnits="userSpaceOnUse">
<stop stop-color="#FFC181"/>
<stop offset="1" stop-color="#EFC334"/>
</linearGradient>
<linearGradient id="paint9_linear_2001_6239" x1="75.0413" y1="44.1471" x2="90.0389" y2="56.1802" gradientUnits="userSpaceOnUse">
<stop stop-color="#FFC181"/>
<stop offset="1" stop-color="#EFC334"/>
</linearGradient>
<linearGradient id="paint10_linear_2001_6239" x1="71.119" y1="29.2809" x2="83.0832" y2="32.8661" gradientUnits="userSpaceOnUse">
<stop stop-color="#FFC181"/>
<stop offset="1" stop-color="#EFC334"/>
</linearGradient>
<linearGradient id="paint11_linear_2001_6239" x1="63.609" y1="72.6146" x2="73.944" y2="87.3738" gradientUnits="userSpaceOnUse">
<stop stop-color="#FFC181"/>
<stop offset="1" stop-color="#EFC334"/>
</linearGradient>
<linearGradient id="paint12_linear_2001_6239" x1="29.712" y1="-0.493665" x2="41.0312" y2="2.9355" gradientUnits="userSpaceOnUse">
<stop stop-color="#FFC181"/>
<stop offset="1" stop-color="#EFC334"/>
</linearGradient>
<linearGradient id="paint13_linear_2001_6239" x1="24.6536" y1="50.8522" x2="36.0537" y2="55.0727" gradientUnits="userSpaceOnUse">
<stop stop-color="#FFC181"/>
<stop offset="1" stop-color="#EFC334"/>
</linearGradient>
<linearGradient id="paint14_linear_2001_6239" x1="25.0303" y1="26.0029" x2="37.7232" y2="32.2765" gradientUnits="userSpaceOnUse">
<stop stop-color="#FFC181"/>
<stop offset="1" stop-color="#EFC334"/>
</linearGradient>
<linearGradient id="paint15_linear_2001_6239" x1="24.8829" y1="81.0129" x2="32.6791" y2="93.3601" gradientUnits="userSpaceOnUse">
<stop stop-color="#FFC181"/>
<stop offset="1" stop-color="#EFC334"/>
</linearGradient>
<linearGradient id="paint16_linear_2001_6239" x1="30.7386" y1="69.0858" x2="42.6443" y2="80.6913" gradientUnits="userSpaceOnUse">
<stop stop-color="#FFC181"/>
<stop offset="1" stop-color="#EFC334"/>
</linearGradient>
<linearGradient id="paint17_linear_2001_6239" x1="20.9578" y1="62.7028" x2="31.7059" y2="66.3023" gradientUnits="userSpaceOnUse">
<stop stop-color="#FFC181"/>
<stop offset="1" stop-color="#EFC334"/>
</linearGradient>
<linearGradient id="paint18_linear_2001_6239" x1="25.374" y1="39.2348" x2="38.0126" y2="45.5482" gradientUnits="userSpaceOnUse">
<stop stop-color="#FFC181"/>
<stop offset="1" stop-color="#EFC334"/>
</linearGradient>
<linearGradient id="paint19_linear_2001_6239" x1="33.6716" y1="16.779" x2="44.7168" y2="20.7443" gradientUnits="userSpaceOnUse">
<stop stop-color="#FFC181"/>
<stop offset="1" stop-color="#EFC334"/>
</linearGradient>
<linearGradient id="paint20_linear_2001_6239" x1="36.1539" y1="41.6358" x2="49.2454" y2="49.1778" gradientUnits="userSpaceOnUse">
<stop stop-color="#FFC181"/>
<stop offset="1" stop-color="#EFC334"/>
</linearGradient>
<linearGradient id="paint21_linear_2001_6239" x1="23.2399" y1="11.9214" x2="35.7713" y2="17.8856" gradientUnits="userSpaceOnUse">
<stop stop-color="#FFC181"/>
<stop offset="1" stop-color="#EFC334"/>
</linearGradient>
<linearGradient id="paint22_linear_2001_6239" x1="34.3442" y1="55.8002" x2="47.2558" y2="66.0325" gradientUnits="userSpaceOnUse">
<stop stop-color="#FFC181"/>
<stop offset="1" stop-color="#EFC334"/>
</linearGradient>
<linearGradient id="paint23_linear_2001_6239" x1="35.6303" y1="29.2153" x2="47.8425" y2="34.7989" gradientUnits="userSpaceOnUse">
<stop stop-color="#FFC181"/>
<stop offset="1" stop-color="#EFC334"/>
</linearGradient>
<linearGradient id="paint24_linear_2001_6239" x1="28.802" y1="89.8741" x2="39.8102" y2="93.9206" gradientUnits="userSpaceOnUse">
<stop stop-color="#FFC181"/>
<stop offset="1" stop-color="#EFC334"/>
</linearGradient>
<linearGradient id="paint25_linear_2001_6239" x1="16.9114" y1="73.5519" x2="25.6668" y2="76.5172" gradientUnits="userSpaceOnUse">
<stop stop-color="#FFC181"/>
<stop offset="1" stop-color="#EFC334"/>
</linearGradient>
</defs>
</svg>
