<svg width="25" height="33" viewBox="0 0 25 33" fill="none" xmlns="http://www.w3.org/2000/svg">
<path d="M23.9111 17.5635C24.0228 17.979 24.1225 18.6057 24.2002 19.377C24.2889 20.258 24.3472 21.3121 24.3633 22.4238C24.3956 24.6517 24.259 27.0909 23.873 28.8301C23.6553 29.8114 22.8878 30.5756 21.9053 30.792C19.7668 31.2627 17.081 31.5397 14.9492 31.667C13.9806 31.7248 13.1295 31.752 12.5 31.752C11.8706 31.7519 11.0201 31.7248 10.0518 31.667C7.91995 31.5397 5.23415 31.2627 3.0957 30.792C2.11305 30.5756 1.34574 29.8115 1.12793 28.8301C0.74195 27.0909 0.605428 24.6517 0.637695 22.4238C0.653805 21.3122 0.711098 20.258 0.799805 19.377C0.877477 18.6056 0.978142 17.979 1.08984 17.5635H23.9111Z" fill="white" stroke="#1E398E" stroke-width="0.5"/>
<path d="M12.499 11.8652C12.9441 11.8652 13.6944 11.8761 14.5889 11.8994C16.5125 11.9495 19.0869 12.0572 20.7148 12.2354C21.3255 12.3023 21.8634 12.6656 22.1494 13.208C22.7918 14.4259 23.4098 15.9448 23.8574 17.3877C24.1107 18.2042 23.6067 19.0637 22.7686 19.248C20.3328 19.7832 17.3786 20.2111 14.1729 20.3252C13.6219 20.3448 13.0635 20.3555 12.499 20.3555C11.9344 20.3555 11.3754 20.3448 10.8242 20.3252C7.61863 20.2111 4.66513 19.7832 2.22949 19.248C1.39116 19.0638 0.886304 18.2044 1.13965 17.3877C1.58734 15.9447 2.20627 14.4259 2.84863 13.208C3.13479 12.6656 3.67237 12.3022 4.2832 12.2354C5.9111 12.0572 8.48474 11.9495 10.4082 11.8994C11.3029 11.8761 12.054 11.8652 12.499 11.8652Z" fill="#D3D3FF" stroke="#1E398E" stroke-width="0.5"/>
<path d="M14.459 22.8145C15.6554 22.8046 16.6445 23.785 16.6445 24.9814C16.6444 25.8902 16.1478 26.816 15.4229 27.6504C14.7019 28.4801 13.7814 29.1885 12.9951 29.6582C12.6906 29.8401 12.3094 29.84 12.0049 29.6582C11.2185 29.1884 10.2971 28.4802 9.57617 27.6504C8.85123 26.816 8.35555 25.8902 8.35547 24.9814C8.35547 23.7849 9.34438 22.8044 10.541 22.8145C11.128 22.8194 11.6583 23.0584 12.0459 23.4424C12.297 23.6912 12.7019 23.691 12.9531 23.4424C13.3407 23.0583 13.8719 22.8194 14.459 22.8145Z" fill="#FF6E80" stroke="#1E398E" stroke-width="0.5"/>
<path d="M10.0127 22.8779C9.98239 23.2892 10.0415 23.7634 10.1797 24.2471C10.3617 24.8838 10.686 25.5578 11.1523 26.1592C11.9891 27.238 13.2897 28.0858 15.0381 28.0596C14.4903 28.6116 13.874 29.0961 13.3008 29.4678L12.9951 29.6582C12.6906 29.8401 12.3095 29.84 12.0049 29.6582C11.2185 29.1884 10.2971 28.4802 9.57617 27.6504C8.85124 26.816 8.35554 25.8903 8.35547 24.9814C8.35547 23.9672 9.0667 23.1095 10.0127 22.8779Z" fill="#F8475E" stroke="#1E398E" stroke-width="0.5"/>
<path d="M19.3375 16.4648C17.8744 16.8252 14.4641 17.1855 12.5008 17.1855C10.5375 17.1855 7.12719 16.8252 5.66406 16.4648" stroke="#1E398E" stroke-width="0.5" stroke-miterlimit="10" stroke-linecap="round" stroke-linejoin="round"/>
<path d="M22.6554 13.6517C22.5617 13.4593 22.4669 13.272 22.3715 13.0913C22.0464 12.4748 21.436 12.0622 20.7432 11.9864C19.9522 11.8998 18.9412 11.8301 17.8906 11.7754" stroke="#1E398E" stroke-width="0.5" stroke-miterlimit="10" stroke-linecap="round" stroke-linejoin="round"/>
<path d="M7.10808 11.7754C6.05759 11.8301 5.04659 11.8998 4.25556 11.9864C3.56279 12.0622 2.95233 12.4748 2.62718 13.0913C1.97679 14.3244 1.35296 15.8579 0.901276 17.3139C0.604068 18.2719 1.19571 19.2767 2.17545 19.492C4.62465 20.0301 7.59313 20.4603 10.8152 20.575C11.3693 20.5947 11.9309 20.605 12.4987 20.605C13.0664 20.605 13.628 20.5947 14.1821 20.575C17.4042 20.4603 20.3727 20.0301 22.8219 19.492C23.8015 19.2767 24.3932 18.2719 24.096 17.3139C23.8829 16.6267 23.6314 15.9224 23.3568 15.2405" stroke="#1E398E" stroke-width="0.5" stroke-miterlimit="10" stroke-linecap="round" stroke-linejoin="round"/>
<path d="M8.5625 31.8106C9.0729 31.8535 9.56799 31.8886 10.0361 31.9166C11.0084 31.9746 11.8643 32.0015 12.5 32.0015C13.1357 32.0015 13.9917 31.9746 14.964 31.9166C17.1017 31.789 19.8016 31.5107 21.9583 31.036C23.0356 30.7988 23.878 29.9612 24.117 28.8844C24.9014 25.3501 24.6618 19.0369 24.0975 17.3135" stroke="#1E398E" stroke-width="0.5" stroke-miterlimit="10" stroke-linecap="round" stroke-linejoin="round"/>
<path d="M0.902956 17.3135C0.338626 19.0368 0.099006 25.3502 0.883403 28.8845C1.12239 29.9613 1.96481 30.799 3.04208 31.0361C4.21009 31.2932 5.53736 31.4926 6.8484 31.6418" stroke="#1E398E" stroke-width="0.5" stroke-miterlimit="10" stroke-linecap="round" stroke-linejoin="round"/>
<path d="M20.3019 3.31152C20.516 3.80784 20.4838 4.43106 20.3019 4.93063C20.2923 4.95937 20.2828 4.9881 20.2729 5.01771C20.0691 5.59531 19.6632 6.07601 19.1934 6.45788C19.1788 6.47001 19.1642 6.48214 19.1491 6.49464C19.0471 6.57467 19.0471 6.57467 18.9756 6.57454C18.8673 6.51306 18.8227 6.39395 18.7828 6.28098C18.635 5.73018 18.7752 5.12506 19.0329 4.6274C19.053 4.58855 19.0717 4.54899 19.0901 4.50931C19.2829 4.09889 19.7906 3.31152 20.3019 3.31152Z" fill="#FFCA28"/>
<path d="M20.3019 3.31152C20.516 3.80784 20.4838 4.43106 20.3019 4.93063C20.2923 4.95937 20.2828 4.9881 20.2729 5.01771C20.0691 5.59531 19.6632 6.07601 19.1934 6.45788C19.1788 6.47001 19.1642 6.48214 19.1491 6.49464C19.0471 6.57467 19.0471 6.57467 18.9756 6.57454C18.8673 6.51306 18.8227 6.39395 18.7828 6.28098C18.635 5.73018 18.7752 5.12506 19.0329 4.6274C19.053 4.58855 19.0717 4.54899 19.0901 4.50931C19.2829 4.09889 19.7906 3.31152 20.3019 3.31152Z" fill="url(#paint0_linear_2001_90)"/>
<path d="M15.8939 8.66699C15.9186 8.66699 15.9432 8.66699 15.9686 8.66699C16.3588 9.05799 16.5219 9.61426 16.5244 10.1553C16.5205 10.4659 16.4543 10.7621 16.3788 11.0617C16.3692 11.0999 16.3601 11.1381 16.3511 11.1764C16.2974 11.3824 16.1908 11.5679 16.0932 11.7557C16.0765 11.7889 16.0598 11.8221 16.0434 11.8554C15.7749 11.7417 15.6082 11.4034 15.4939 11.1491C15.4761 11.1028 15.4607 11.0556 15.4455 11.0085C15.4389 10.9907 15.4324 10.9729 15.4256 10.9546C15.4188 10.9359 15.412 10.9172 15.4051 10.8979C15.3991 10.8815 15.3931 10.8651 15.387 10.8482C15.2836 10.4392 15.3113 9.96035 15.4455 9.56373C15.4511 9.54691 15.4567 9.5301 15.4625 9.51278C15.5364 9.29408 15.6241 9.08891 15.7444 8.89118C15.7576 8.86921 15.7708 8.84725 15.7844 8.82462C15.8578 8.7079 15.8578 8.7079 15.8939 8.66699Z" fill="#FFCA28"/>
<path d="M15.8939 8.66699C15.9186 8.66699 15.9432 8.66699 15.9686 8.66699C16.3588 9.05799 16.5219 9.61426 16.5244 10.1553C16.5205 10.4659 16.4543 10.7621 16.3788 11.0617C16.3692 11.0999 16.3601 11.1381 16.3511 11.1764C16.2974 11.3824 16.1908 11.5679 16.0932 11.7557C16.0765 11.7889 16.0598 11.8221 16.0434 11.8554C15.7749 11.7417 15.6082 11.4034 15.4939 11.1491C15.4761 11.1028 15.4607 11.0556 15.4455 11.0085C15.4389 10.9907 15.4324 10.9729 15.4256 10.9546C15.4188 10.9359 15.412 10.9172 15.4051 10.8979C15.3991 10.8815 15.3931 10.8651 15.387 10.8482C15.2836 10.4392 15.3113 9.96035 15.4455 9.56373C15.4511 9.54691 15.4567 9.5301 15.4625 9.51278C15.5364 9.29408 15.6241 9.08891 15.7444 8.89118C15.7576 8.86921 15.7708 8.84725 15.7844 8.82462C15.8578 8.7079 15.8578 8.7079 15.8939 8.66699Z" fill="url(#paint1_linear_2001_90)"/>
<path d="M16.9625 6.6748C17.1415 6.75417 17.2386 6.92918 17.3268 7.09671C17.3364 7.11493 17.346 7.13315 17.3559 7.15192C17.6787 7.79035 17.5982 8.57918 17.3833 9.23852C17.3063 9.45624 17.1968 9.66054 17.087 9.86319C16.8748 9.79245 16.7049 9.47696 16.6075 9.28561C16.5925 9.25419 16.578 9.22249 16.5639 9.19064C16.5518 9.16399 16.5397 9.13734 16.5272 9.10988C16.3241 8.63099 16.3275 8.05993 16.4892 7.57154C16.4979 7.54258 16.5067 7.51361 16.5157 7.48377C16.6112 7.18856 16.7576 6.90855 16.9625 6.6748Z" fill="#FFCA28"/>
<path d="M16.9625 6.6748C17.1415 6.75417 17.2386 6.92918 17.3268 7.09671C17.3364 7.11493 17.346 7.13315 17.3559 7.15192C17.6787 7.79035 17.5982 8.57918 17.3833 9.23852C17.3063 9.45624 17.1968 9.66054 17.087 9.86319C16.8748 9.79245 16.7049 9.47696 16.6075 9.28561C16.5925 9.25419 16.578 9.22249 16.5639 9.19064C16.5518 9.16399 16.5397 9.13734 16.5272 9.10988C16.3241 8.63099 16.3275 8.05993 16.4892 7.57154C16.4979 7.54258 16.5067 7.51361 16.5157 7.48377C16.6112 7.18856 16.7576 6.90855 16.9625 6.6748Z" fill="url(#paint2_linear_2001_90)"/>
<path d="M12.8602 15.5332C12.8921 15.5333 12.8921 15.5333 12.9247 15.5333C13.2465 15.5393 13.5834 15.599 13.8737 15.7418C13.9141 15.7607 13.9141 15.7607 13.9554 15.7799C14.2366 15.9146 14.4926 16.0753 14.7206 16.2898C14.6547 16.4522 14.4813 16.5144 14.3283 16.58C14.0512 16.6942 13.8169 16.7469 13.5178 16.7461C13.4619 16.746 13.4059 16.7466 13.35 16.7472C13.0495 16.7485 12.7713 16.7117 12.4926 16.5911C12.4188 16.5595 12.3439 16.5323 12.2686 16.5047C12.0319 16.4135 11.7679 16.2921 11.582 16.1155C11.582 16.0158 11.582 16.0158 11.6214 15.9732C11.8663 15.7905 12.1074 15.6688 12.404 15.5924C12.4296 15.5857 12.4296 15.5857 12.4557 15.5789C12.5916 15.5458 12.7205 15.5329 12.8602 15.5332Z" fill="#FFCA28"/>
<path d="M12.8602 15.5332C12.8921 15.5333 12.8921 15.5333 12.9247 15.5333C13.2465 15.5393 13.5834 15.599 13.8737 15.7418C13.9141 15.7607 13.9141 15.7607 13.9554 15.7799C14.2366 15.9146 14.4926 16.0753 14.7206 16.2898C14.6547 16.4522 14.4813 16.5144 14.3283 16.58C14.0512 16.6942 13.8169 16.7469 13.5178 16.7461C13.4619 16.746 13.4059 16.7466 13.35 16.7472C13.0495 16.7485 12.7713 16.7117 12.4926 16.5911C12.4188 16.5595 12.3439 16.5323 12.2686 16.5047C12.0319 16.4135 11.7679 16.2921 11.582 16.1155C11.582 16.0158 11.582 16.0158 11.6214 15.9732C11.8663 15.7905 12.1074 15.6688 12.404 15.5924C12.4296 15.5857 12.4296 15.5857 12.4557 15.5789C12.5916 15.5458 12.7205 15.5329 12.8602 15.5332Z" fill="url(#paint3_linear_2001_90)"/>
<path d="M13.5022 11.9805C13.5269 11.9805 13.5516 11.9805 13.577 11.9805C13.5965 12.0197 13.6156 12.0592 13.6346 12.0988C13.6453 12.1208 13.656 12.1427 13.667 12.1653C13.7574 12.3987 13.7895 12.6216 13.7871 12.871C13.787 12.8993 13.7868 12.9276 13.7866 12.9568C13.7821 13.186 13.7513 13.3827 13.6766 13.5996C13.6713 13.6158 13.6659 13.632 13.6604 13.6487C13.5346 14.0282 13.3549 14.3589 13.1037 14.6707C13.084 14.6954 13.0643 14.7202 13.0441 14.7457C12.9527 14.8592 12.8621 14.97 12.755 15.0692C12.7385 15.0692 12.7221 15.0692 12.7052 15.0692C12.4155 14.594 12.3378 14.0335 12.4658 13.4877C12.5307 13.2538 12.6361 13.0381 12.755 12.8274C12.7685 12.8029 12.7821 12.7783 12.796 12.753C12.9565 12.4822 13.1995 12.218 13.4524 12.0303C13.4689 12.0303 13.4853 12.0303 13.5022 12.0303C13.5022 12.0138 13.5022 11.9974 13.5022 11.9805Z" fill="#FFCA28"/>
<path d="M13.5022 11.9805C13.5269 11.9805 13.5516 11.9805 13.577 11.9805C13.5965 12.0197 13.6156 12.0592 13.6346 12.0988C13.6453 12.1208 13.656 12.1427 13.667 12.1653C13.7574 12.3987 13.7895 12.6216 13.7871 12.871C13.787 12.8993 13.7868 12.9276 13.7866 12.9568C13.7821 13.186 13.7513 13.3827 13.6766 13.5996C13.6713 13.6158 13.6659 13.632 13.6604 13.6487C13.5346 14.0282 13.3549 14.3589 13.1037 14.6707C13.084 14.6954 13.0643 14.7202 13.0441 14.7457C12.9527 14.8592 12.8621 14.97 12.755 15.0692C12.7385 15.0692 12.7221 15.0692 12.7052 15.0692C12.4155 14.594 12.3378 14.0335 12.4658 13.4877C12.5307 13.2538 12.6361 13.0381 12.755 12.8274C12.7685 12.8029 12.7821 12.7783 12.796 12.753C12.9565 12.4822 13.1995 12.218 13.4524 12.0303C13.4689 12.0303 13.4853 12.0303 13.5022 12.0303C13.5022 12.0138 13.5022 11.9974 13.5022 11.9805Z" fill="url(#paint4_linear_2001_90)"/>
<path d="M14.9455 10.4609C15.0582 10.4985 15.0793 10.5787 15.1325 10.6806C15.4006 11.2519 15.3503 11.9464 15.1477 12.53C15.0004 12.9172 14.7658 13.2852 14.4972 13.5995C14.342 13.5418 14.2655 13.3687 14.1982 13.2259C13.9703 12.6317 13.9888 11.9934 14.2432 11.4118C14.4152 11.0407 14.6563 10.7462 14.9455 10.4609Z" fill="#FFCA28"/>
<path d="M14.9455 10.4609C15.0582 10.4985 15.0793 10.5787 15.1325 10.6806C15.4006 11.2519 15.3503 11.9464 15.1477 12.53C15.0004 12.9172 14.7658 13.2852 14.4972 13.5995C14.342 13.5418 14.2655 13.3687 14.1982 13.2259C13.9703 12.6317 13.9888 11.9934 14.2432 11.4118C14.4152 11.0407 14.6563 10.7462 14.9455 10.4609Z" fill="url(#paint5_linear_2001_90)"/>
<path d="M14.924 14.3858C14.9404 14.3858 14.9568 14.3858 14.9737 14.3857C15.3804 14.3864 15.7806 14.4481 16.1415 14.6458C16.172 14.661 16.2026 14.676 16.2333 14.691C16.2618 14.7056 16.2618 14.7056 16.2909 14.7206C16.2147 14.972 15.9671 15.1461 15.7474 15.269C15.3381 15.4813 14.9448 15.5778 14.485 15.5753C14.4673 15.5752 14.4496 15.5752 14.4314 15.5751C13.9744 15.5729 13.5838 15.4911 13.1523 15.3433C13.2593 15.0279 13.6357 14.7422 13.9245 14.596C14.0709 14.5371 14.2215 14.4905 14.3729 14.4466C14.403 14.4372 14.4332 14.4278 14.4643 14.4182C14.6148 14.3819 14.77 14.3861 14.924 14.3858Z" fill="#FFCA28"/>
<path d="M14.924 14.3858C14.9404 14.3858 14.9568 14.3858 14.9737 14.3857C15.3804 14.3864 15.7806 14.4481 16.1415 14.6458C16.172 14.661 16.2026 14.676 16.2333 14.691C16.2618 14.7056 16.2618 14.7056 16.2909 14.7206C16.2147 14.972 15.9671 15.1461 15.7474 15.269C15.3381 15.4813 14.9448 15.5778 14.485 15.5753C14.4673 15.5752 14.4496 15.5752 14.4314 15.5751C13.9744 15.5729 13.5838 15.4911 13.1523 15.3433C13.2593 15.0279 13.6357 14.7422 13.9245 14.596C14.0709 14.5371 14.2215 14.4905 14.3729 14.4466C14.403 14.4372 14.4332 14.4278 14.4643 14.4182C14.6148 14.3819 14.77 14.3861 14.924 14.3858Z" fill="url(#paint6_linear_2001_90)"/>
<path d="M19.2572 8.71416C19.2896 8.71401 19.2896 8.71401 19.3227 8.71387C19.4355 8.71404 19.5416 8.71925 19.6526 8.74218C19.6373 8.81437 19.615 8.87091 19.5778 8.93455C19.5677 8.95193 19.5575 8.96932 19.5471 8.98723C19.5362 9.00552 19.5253 9.02381 19.5141 9.04265C19.5028 9.06156 19.4916 9.08048 19.48 9.09997C19.299 9.40109 19.0855 9.67044 18.8306 9.91292C18.8142 9.9292 18.7978 9.94548 18.7809 9.96225C18.4045 10.3214 17.9317 10.5457 17.4092 10.5419C17.37 10.5422 17.37 10.5422 17.33 10.5425C17.1894 10.5421 17.0701 10.5332 16.9375 10.4858C17.0092 9.9664 17.536 9.4537 17.9318 9.15236C18.3229 8.8694 18.776 8.71199 19.2572 8.71416Z" fill="#FFCA28"/>
<path d="M19.2572 8.71416C19.2896 8.71401 19.2896 8.71401 19.3227 8.71387C19.4355 8.71404 19.5416 8.71925 19.6526 8.74218C19.6373 8.81437 19.615 8.87091 19.5778 8.93455C19.5677 8.95193 19.5575 8.96932 19.5471 8.98723C19.5362 9.00552 19.5253 9.02381 19.5141 9.04265C19.5028 9.06156 19.4916 9.08048 19.48 9.09997C19.299 9.40109 19.0855 9.67044 18.8306 9.91292C18.8142 9.9292 18.7978 9.94548 18.7809 9.96225C18.4045 10.3214 17.9317 10.5457 17.4092 10.5419C17.37 10.5422 17.37 10.5422 17.33 10.5425C17.1894 10.5421 17.0701 10.5332 16.9375 10.4858C17.0092 9.9664 17.536 9.4537 17.9318 9.15236C18.3229 8.8694 18.776 8.71199 19.2572 8.71416Z" fill="url(#paint7_linear_2001_90)"/>
<path d="M16.8617 12.741C16.8892 12.7407 16.9168 12.7405 16.9451 12.7402C17.2344 12.7433 17.4979 12.809 17.7616 12.9263C17.6517 13.3001 17.3199 13.5652 16.9952 13.7546C16.7295 13.898 16.4612 13.9642 16.1674 14.0223C16.1474 14.0267 16.1273 14.0311 16.1067 14.0357C15.6948 14.1097 15.1823 14.0575 14.7974 13.8977C14.751 13.8571 14.751 13.8571 14.7227 13.823C14.9255 13.5676 15.1208 13.3534 15.3952 13.1754C15.4204 13.1586 15.4457 13.1418 15.4717 13.1246C15.9024 12.8474 16.3544 12.744 16.8617 12.741Z" fill="#FFCA28"/>
<path d="M16.8617 12.741C16.8892 12.7407 16.9168 12.7405 16.9451 12.7402C17.2344 12.7433 17.4979 12.809 17.7616 12.9263C17.6517 13.3001 17.3199 13.5652 16.9952 13.7546C16.7295 13.898 16.4612 13.9642 16.1674 14.0223C16.1474 14.0267 16.1273 14.0311 16.1067 14.0357C15.6948 14.1097 15.1823 14.0575 14.7974 13.8977C14.751 13.8571 14.751 13.8571 14.7227 13.823C14.9255 13.5676 15.1208 13.3534 15.3952 13.1754C15.4204 13.1586 15.4457 13.1418 15.4717 13.1246C15.9024 12.8474 16.3544 12.744 16.8617 12.741Z" fill="url(#paint8_linear_2001_90)"/>
<path d="M20.004 6.52537C19.9756 7.15409 19.6166 7.71601 19.2069 8.16938C19.1884 8.1899 19.17 8.21042 19.151 8.23155C18.9085 8.48785 18.6472 8.64386 18.3101 8.74229C18.2937 8.74733 18.2773 8.75238 18.2604 8.75757C18.1895 8.77125 18.1207 8.77146 18.0486 8.77187C18.0206 8.77223 17.9926 8.77258 17.9637 8.77294C17.8899 8.76744 17.8491 8.75589 17.787 8.71738C17.7391 8.27421 17.9971 7.85482 18.2603 7.52174C18.67 7.02632 19.3171 6.46954 20.004 6.52537Z" fill="#FFCA28"/>
<path d="M20.004 6.52537C19.9756 7.15409 19.6166 7.71601 19.2069 8.16938C19.1884 8.1899 19.17 8.21042 19.151 8.23155C18.9085 8.48785 18.6472 8.64386 18.3101 8.74229C18.2937 8.74733 18.2773 8.75238 18.2604 8.75757C18.1895 8.77125 18.1207 8.77146 18.0486 8.77187C18.0206 8.77223 17.9926 8.77258 17.9637 8.77294C17.8899 8.76744 17.8491 8.75589 17.787 8.71738C17.7391 8.27421 17.9971 7.85482 18.2603 7.52174C18.67 7.02632 19.3171 6.46954 20.004 6.52537Z" fill="url(#paint9_linear_2001_90)"/>
<path d="M17.9364 4.38281C18.1706 4.59726 18.2905 4.93314 18.3848 5.22973C18.3933 5.25612 18.4018 5.28252 18.4106 5.30971C18.5293 5.75696 18.4857 6.25888 18.3599 6.69938C18.3533 6.72356 18.3466 6.74773 18.3398 6.77265C18.2505 7.05131 18.0898 7.32285 17.9364 7.5712C17.8092 7.5288 17.7581 7.40634 17.6873 7.2972C17.6725 7.27472 17.6577 7.25225 17.6425 7.22909C17.5534 7.08609 17.4868 6.94161 17.4305 6.78345C17.4244 6.76651 17.4184 6.74957 17.4122 6.73211C17.3289 6.48624 17.3052 6.25323 17.3059 5.99413C17.3055 5.96589 17.3051 5.93765 17.3047 5.90856C17.3044 5.34037 17.5362 4.78522 17.9364 4.38281Z" fill="#FFCA28"/>
<path d="M17.9364 4.38281C18.1706 4.59726 18.2905 4.93314 18.3848 5.22973C18.3933 5.25612 18.4018 5.28252 18.4106 5.30971C18.5293 5.75696 18.4857 6.25888 18.3599 6.69938C18.3533 6.72356 18.3466 6.74773 18.3398 6.77265C18.2505 7.05131 18.0898 7.32285 17.9364 7.5712C17.8092 7.5288 17.7581 7.40634 17.6873 7.2972C17.6725 7.27472 17.6577 7.25225 17.6425 7.22909C17.5534 7.08609 17.4868 6.94161 17.4305 6.78345C17.4244 6.76651 17.4184 6.74957 17.4122 6.73211C17.3289 6.48624 17.3052 6.25323 17.3059 5.99413C17.3055 5.96589 17.3051 5.93765 17.3047 5.90856C17.3044 5.34037 17.5362 4.78522 17.9364 4.38281Z" fill="url(#paint10_linear_2001_90)"/>
<path d="M18.2412 10.6733C18.268 10.6732 18.2949 10.673 18.3225 10.6729C18.5037 10.6757 18.6884 10.6912 18.8577 10.7605C18.8826 10.8352 18.8826 10.8352 18.8465 10.912C18.8283 10.9432 18.8097 10.9742 18.7908 11.0049C18.7807 11.0214 18.7706 11.0379 18.7603 11.0549C18.5226 11.4325 18.2002 11.7607 17.8115 11.9811C17.7855 11.9962 17.7594 12.0114 17.7325 12.027C17.4001 12.2078 17.0152 12.285 16.6377 12.2847C16.6194 12.2847 16.6011 12.2847 16.5822 12.2847C16.1938 12.2807 16.1938 12.2807 16.043 12.2053C16.127 11.9102 16.3835 11.6761 16.591 11.458C16.6073 11.4401 16.6236 11.4221 16.6404 11.4037C17.0545 10.9631 17.6386 10.6768 18.2412 10.6733Z" fill="#FFCA28"/>
<path d="M18.2412 10.6733C18.268 10.6732 18.2949 10.673 18.3225 10.6729C18.5037 10.6757 18.6884 10.6912 18.8577 10.7605C18.8826 10.8352 18.8826 10.8352 18.8465 10.912C18.8283 10.9432 18.8097 10.9742 18.7908 11.0049C18.7807 11.0214 18.7706 11.0379 18.7603 11.0549C18.5226 11.4325 18.2002 11.7607 17.8115 11.9811C17.7855 11.9962 17.7594 12.0114 17.7325 12.027C17.4001 12.2078 17.0152 12.285 16.6377 12.2847C16.6194 12.2847 16.6011 12.2847 16.5822 12.2847C16.1938 12.2807 16.1938 12.2807 16.043 12.2053C16.127 11.9102 16.3835 11.6761 16.591 11.458C16.6073 11.4401 16.6236 11.4221 16.6404 11.4037C17.0545 10.9631 17.6386 10.6768 18.2412 10.6733Z" fill="url(#paint11_linear_2001_90)"/>
<path d="M11.609 -0.000976562C11.6588 -0.000976562 11.6588 -0.000976562 11.6983 0.0382361C11.713 0.0556074 11.7277 0.0729787 11.7429 0.0908765C11.7574 0.107927 11.772 0.124977 11.787 0.142544C11.8022 0.160943 11.8175 0.179341 11.8331 0.198298C11.8494 0.217853 11.8656 0.237407 11.8824 0.257555C12.024 0.44106 12.1548 0.651392 12.2317 0.870849C12.2409 0.896247 12.2502 0.921646 12.2597 0.947815C12.3299 1.17625 12.3404 1.39517 12.3407 1.6337C12.3407 1.66365 12.3408 1.6936 12.3408 1.72445C12.3375 1.99069 12.3258 2.26602 12.2192 2.51331C12.1745 2.62121 12.1361 2.72559 12.1072 2.83868C12.0907 2.83868 12.0743 2.83868 12.0573 2.83868C12.0491 2.888 12.0409 2.93732 12.0324 2.98814C11.854 2.97192 11.7405 2.8535 11.6308 2.72348C11.2376 2.20962 11.1824 1.48525 11.2525 0.863065C11.2984 0.549417 11.3776 0.230404 11.609 -0.000976562Z" fill="#FFCA28"/>
<path d="M11.609 -0.000976562C11.6588 -0.000976562 11.6588 -0.000976562 11.6983 0.0382361C11.713 0.0556074 11.7277 0.0729787 11.7429 0.0908765C11.7574 0.107927 11.772 0.124977 11.787 0.142544C11.8022 0.160943 11.8175 0.179341 11.8331 0.198298C11.8494 0.217853 11.8656 0.237407 11.8824 0.257555C12.024 0.44106 12.1548 0.651392 12.2317 0.870849C12.2409 0.896247 12.2502 0.921646 12.2597 0.947815C12.3299 1.17625 12.3404 1.39517 12.3407 1.6337C12.3407 1.66365 12.3408 1.6936 12.3408 1.72445C12.3375 1.99069 12.3258 2.26602 12.2192 2.51331C12.1745 2.62121 12.1361 2.72559 12.1072 2.83868C12.0907 2.83868 12.0743 2.83868 12.0573 2.83868C12.0491 2.888 12.0409 2.93732 12.0324 2.98814C11.854 2.97192 11.7405 2.8535 11.6308 2.72348C11.2376 2.20962 11.1824 1.48525 11.2525 0.863065C11.2984 0.549417 11.3776 0.230404 11.609 -0.000976562Z" fill="url(#paint12_linear_2001_90)"/>
<path d="M7.24762 15.6172C7.31062 15.6417 7.37222 15.667 7.43308 15.6965C7.97275 15.949 8.64121 15.9061 9.21546 15.8165C9.2984 15.8072 9.38143 15.7991 9.46455 15.7916C9.25246 16.017 8.83945 16.0925 8.5429 16.1403C9.00402 16.2663 9.46745 16.2704 9.93782 16.1901C9.95475 16.1873 9.97167 16.1845 9.9891 16.1816C10.3449 16.1197 10.7172 16.0077 11.037 15.8382C11.0837 15.8165 11.0837 15.8165 11.1584 15.8165C11.2101 15.8811 11.234 15.9199 11.2305 16.0037C11.2082 16.0656 11.2082 16.0656 11.1533 16.1014C11.1295 16.1107 11.1056 16.12 11.0811 16.1296C11.042 16.1453 11.042 16.1453 11.002 16.1614C10.9745 16.1719 10.947 16.1824 10.9186 16.1932C10.8917 16.2039 10.8647 16.2146 10.837 16.2256C10.7845 16.2464 10.732 16.267 10.6794 16.2874C10.6259 16.3085 10.5732 16.3314 10.5209 16.3549C10.4048 16.402 10.2863 16.433 10.1651 16.4641C10.14 16.4706 10.1148 16.4771 10.0889 16.4838C9.87393 16.5383 9.65888 16.5804 9.43964 16.6136C9.4136 16.6182 9.38756 16.6227 9.36073 16.6275C8.55614 16.7202 7.69813 16.5498 7.02344 16.0905C7.03778 15.9915 7.06826 15.9241 7.12152 15.8398C7.16727 15.7669 7.21046 15.6949 7.24762 15.6172Z" fill="#E2A610"/>
<path d="M10.6105 7.52148C10.9572 7.64068 11.2098 7.94329 11.3765 8.25942C11.4689 8.45506 11.5303 8.65682 11.582 8.86659C11.5881 8.89131 11.5943 8.91604 11.6006 8.94151C11.677 9.31389 11.6508 9.72126 11.557 10.0871C11.1481 9.96321 10.8882 9.65134 10.6868 9.29126C10.6206 9.16374 10.5742 9.02985 10.5358 8.8915C10.5312 8.87558 10.5267 8.85967 10.522 8.84327C10.4783 8.67348 10.4764 8.50563 10.4766 8.33104C10.4766 8.30036 10.4766 8.26969 10.4766 8.23808C10.4836 7.64834 10.4836 7.64834 10.6105 7.52148Z" fill="#FFCA28"/>
<path d="M10.6105 7.52148C10.9572 7.64068 11.2098 7.94329 11.3765 8.25942C11.4689 8.45506 11.5303 8.65682 11.582 8.86659C11.5881 8.89131 11.5943 8.91604 11.6006 8.94151C11.677 9.31389 11.6508 9.72126 11.557 10.0871C11.1481 9.96321 10.8882 9.65134 10.6868 9.29126C10.6206 9.16374 10.5742 9.02985 10.5358 8.8915C10.5312 8.87558 10.5267 8.85967 10.522 8.84327C10.4783 8.67348 10.4764 8.50563 10.4766 8.33104C10.4766 8.30036 10.4766 8.26969 10.4766 8.23808C10.4836 7.64834 10.4836 7.64834 10.6105 7.52148Z" fill="url(#paint13_linear_2001_90)"/>
<path d="M10.5361 3.86035C10.961 3.94051 11.2917 4.26329 11.5325 4.60763C11.8505 5.10306 11.9413 5.62312 11.931 6.20183C11.7834 6.18969 11.6704 6.15999 11.5387 6.09285C11.5215 6.08409 11.5043 6.07533 11.4866 6.06631C11.032 5.82323 10.7605 5.38961 10.6038 4.91112C10.5278 4.65863 10.507 4.42341 10.5081 4.16082C10.508 4.1373 10.5079 4.11378 10.5078 4.08955C10.5078 4.06712 10.5079 4.04469 10.5079 4.02158C10.5079 4.00135 10.508 3.98113 10.508 3.96029C10.5112 3.91017 10.5112 3.91017 10.5361 3.86035Z" fill="#FFCA28"/>
<path d="M10.5361 3.86035C10.961 3.94051 11.2917 4.26329 11.5325 4.60763C11.8505 5.10306 11.9413 5.62312 11.931 6.20183C11.7834 6.18969 11.6704 6.15999 11.5387 6.09285C11.5215 6.08409 11.5043 6.07533 11.4866 6.06631C11.032 5.82323 10.7605 5.38961 10.6038 4.91112C10.5278 4.65863 10.507 4.42341 10.5081 4.16082C10.508 4.1373 10.5079 4.11378 10.5078 4.08955C10.5078 4.06712 10.5079 4.04469 10.5079 4.02158C10.5079 4.00135 10.508 3.98113 10.508 3.96029C10.5112 3.91017 10.5112 3.91017 10.5361 3.86035Z" fill="url(#paint14_linear_2001_90)"/>
<path d="M12.8527 11.9808C12.8105 12.2701 12.5908 12.5031 12.3684 12.6758C12.3067 12.72 12.2439 12.7616 12.1802 12.8028C12.1625 12.8156 12.1448 12.8284 12.1266 12.8416C11.7324 13.1089 11.2032 13.1606 10.7417 13.1547C10.707 13.1544 10.6724 13.1542 10.6378 13.154C10.5541 13.1534 10.4704 13.1526 10.3867 13.1516C10.4371 12.8904 10.5811 12.6288 10.7853 12.4541C10.8017 12.4541 10.8181 12.4541 10.8351 12.4541C10.8433 12.4294 10.8515 12.4048 10.86 12.3794C11.0938 12.191 11.346 12.0669 11.6322 11.9808C11.6597 11.9724 11.6872 11.9639 11.7156 11.9552C12.0795 11.8611 12.4941 11.8671 12.8527 11.9808Z" fill="#FFCA28"/>
<path d="M12.8527 11.9808C12.8105 12.2701 12.5908 12.5031 12.3684 12.6758C12.3067 12.72 12.2439 12.7616 12.1802 12.8028C12.1625 12.8156 12.1448 12.8284 12.1266 12.8416C11.7324 13.1089 11.2032 13.1606 10.7417 13.1547C10.707 13.1544 10.6724 13.1542 10.6378 13.154C10.5541 13.1534 10.4704 13.1526 10.3867 13.1516C10.4371 12.8904 10.5811 12.6288 10.7853 12.4541C10.8017 12.4541 10.8181 12.4541 10.8351 12.4541C10.8433 12.4294 10.8515 12.4048 10.86 12.3794C11.0938 12.191 11.346 12.0669 11.6322 11.9808C11.6597 11.9724 11.6872 11.9639 11.7156 11.9552C12.0795 11.8611 12.4941 11.8671 12.8527 11.9808Z" fill="url(#paint15_linear_2001_90)"/>
<path d="M13.2665 10.1603C13.2878 10.1606 13.3092 10.1608 13.3311 10.161C13.3468 10.1613 13.3625 10.1616 13.3786 10.1619C13.3704 10.4929 13.2369 10.7566 13.0299 11.0088C13.0132 11.0298 12.9966 11.0508 12.9795 11.0724C12.7301 11.3701 12.4049 11.5445 12.0584 11.7063C12.0389 11.7165 12.0193 11.7267 11.9992 11.7372C11.7911 11.8423 11.519 11.9055 11.2862 11.9055C11.2811 11.7654 11.2939 11.6473 11.3376 11.5132C11.3432 11.496 11.3487 11.4788 11.3545 11.461C11.5077 11.0094 11.8608 10.6314 12.2826 10.411C12.4282 10.3425 12.5812 10.2936 12.7341 10.2444C12.7586 10.2364 12.7586 10.2364 12.7837 10.2282C12.9429 10.1784 13.0992 10.158 13.2665 10.1603Z" fill="#FFCA28"/>
<path d="M13.2665 10.1603C13.2878 10.1606 13.3092 10.1608 13.3311 10.161C13.3468 10.1613 13.3625 10.1616 13.3786 10.1619C13.3704 10.4929 13.2369 10.7566 13.0299 11.0088C13.0132 11.0298 12.9966 11.0508 12.9795 11.0724C12.7301 11.3701 12.4049 11.5445 12.0584 11.7063C12.0389 11.7165 12.0193 11.7267 11.9992 11.7372C11.7911 11.8423 11.519 11.9055 11.2862 11.9055C11.2811 11.7654 11.2939 11.6473 11.3376 11.5132C11.3432 11.496 11.3487 11.4788 11.3545 11.461C11.5077 11.0094 11.8608 10.6314 12.2826 10.411C12.4282 10.3425 12.5812 10.2936 12.7341 10.2444C12.7586 10.2364 12.7586 10.2364 12.7837 10.2282C12.9429 10.1784 13.0992 10.158 13.2665 10.1603Z" fill="url(#paint16_linear_2001_90)"/>
<path d="M10.1654 9.26465C10.4042 9.30866 10.5821 9.55098 10.7134 9.73793C11.0685 10.3275 11.0867 11.054 10.9261 11.7074C10.9094 11.767 10.8881 11.8236 10.8628 11.8801C10.6217 11.8328 10.4506 11.6326 10.3186 11.439C10.2746 11.3708 10.2323 11.3018 10.1903 11.2325C10.1723 11.2058 10.1543 11.1791 10.1358 11.1515C9.88809 10.7138 9.91232 10.0784 10.0369 9.6091C10.0726 9.49083 10.1126 9.3764 10.1654 9.26465Z" fill="#FFCA28"/>
<path d="M10.1654 9.26465C10.4042 9.30866 10.5821 9.55098 10.7134 9.73793C11.0685 10.3275 11.0867 11.054 10.9261 11.7074C10.9094 11.767 10.8881 11.8236 10.8628 11.8801C10.6217 11.8328 10.4506 11.6326 10.3186 11.439C10.2746 11.3708 10.2323 11.3018 10.1903 11.2325C10.1723 11.2058 10.1543 11.1791 10.1358 11.1515C9.88809 10.7138 9.91232 10.0784 10.0369 9.6091C10.0726 9.49083 10.1126 9.3764 10.1654 9.26465Z" fill="url(#paint17_linear_2001_90)"/>
<path d="M10.5612 5.80273C10.9335 5.83727 11.2228 6.08632 11.4567 6.36566C11.8582 6.87074 11.9988 7.48601 11.981 8.1193C11.6425 8.09422 11.3255 7.91155 11.1005 7.65796C11.0682 7.61774 11.0371 7.57689 11.0064 7.53549C10.996 7.52186 10.9857 7.50823 10.975 7.49418C10.757 7.20554 10.6676 6.92189 10.5861 6.57492C10.5816 6.5599 10.5771 6.54488 10.5725 6.5294C10.5576 6.45825 10.5584 6.39111 10.5587 6.31843C10.5588 6.28841 10.5589 6.25839 10.559 6.22746C10.5592 6.19621 10.5594 6.16497 10.5596 6.13278C10.5597 6.10115 10.5598 6.06953 10.5599 6.03694C10.5602 5.95887 10.5606 5.8808 10.5612 5.80273Z" fill="#FFCA28"/>
<path d="M10.5612 5.80273C10.9335 5.83727 11.2228 6.08632 11.4567 6.36566C11.8582 6.87074 11.9988 7.48601 11.981 8.1193C11.6425 8.09422 11.3255 7.91155 11.1005 7.65796C11.0682 7.61774 11.0371 7.57689 11.0064 7.53549C10.996 7.52186 10.9857 7.50823 10.975 7.49418C10.757 7.20554 10.6676 6.92189 10.5861 6.57492C10.5816 6.5599 10.5771 6.54488 10.5725 6.5294C10.5576 6.45825 10.5584 6.39111 10.5587 6.31843C10.5588 6.28841 10.5589 6.25839 10.559 6.22746C10.5592 6.19621 10.5594 6.16497 10.5596 6.13278C10.5597 6.10115 10.5598 6.06953 10.5599 6.03694C10.5602 5.95887 10.5606 5.8808 10.5612 5.80273Z" fill="url(#paint18_linear_2001_90)"/>
<path d="M12.7325 2.51562C12.7807 2.54053 12.7807 2.54053 12.8114 2.6031C12.8193 2.6292 12.8271 2.65531 12.8352 2.68221C12.8473 2.72088 12.8473 2.72088 12.8596 2.76034C12.9795 3.21766 12.9514 3.79612 12.7807 4.23437C12.7709 4.26224 12.761 4.29011 12.7509 4.31882C12.6412 4.60881 12.4517 4.89431 12.1642 5.03302C12.0359 5.07004 12.0359 5.07004 11.9587 5.03146C11.7567 4.67236 11.7861 4.14643 11.8863 3.76015C11.9825 3.42801 12.3226 2.51562 12.7325 2.51562Z" fill="#FFCA28"/>
<path d="M12.7325 2.51562C12.7807 2.54053 12.7807 2.54053 12.8114 2.6031C12.8193 2.6292 12.8271 2.65531 12.8352 2.68221C12.8473 2.72088 12.8473 2.72088 12.8596 2.76034C12.9795 3.21766 12.9514 3.79612 12.7807 4.23437C12.7709 4.26224 12.761 4.29011 12.7509 4.31882C12.6412 4.60881 12.4517 4.89431 12.1642 5.03302C12.0359 5.07004 12.0359 5.07004 11.9587 5.03146C11.7567 4.67236 11.7861 4.14643 11.8863 3.76015C11.9825 3.42801 12.3226 2.51562 12.7325 2.51562Z" fill="url(#paint19_linear_2001_90)"/>
<path d="M13.7004 6.15227C13.7034 6.30331 13.6954 6.44417 13.6693 6.59285C13.6642 6.62203 13.6642 6.62203 13.6589 6.65181C13.5656 7.16346 13.3772 7.55985 13.003 7.92083C12.9885 7.93576 12.9741 7.95069 12.9592 7.96607C12.7653 8.15238 12.4031 8.36919 12.1312 8.36919C12.1054 7.79566 12.3016 7.16316 12.6792 6.72518C12.6924 6.70839 12.7056 6.69159 12.7192 6.67429C12.9464 6.39462 13.3279 6.13409 13.7004 6.15227Z" fill="#FFCA28"/>
<path d="M13.7004 6.15227C13.7034 6.30331 13.6954 6.44417 13.6693 6.59285C13.6642 6.62203 13.6642 6.62203 13.6589 6.65181C13.5656 7.16346 13.3772 7.55985 13.003 7.92083C12.9885 7.93576 12.9741 7.95069 12.9592 7.96607C12.7653 8.15238 12.4031 8.36919 12.1312 8.36919C12.1054 7.79566 12.3016 7.16316 12.6792 6.72518C12.6924 6.70839 12.7056 6.69159 12.7192 6.67429C12.9464 6.39462 13.3279 6.13409 13.7004 6.15227Z" fill="url(#paint20_linear_2001_90)"/>
<path d="M10.3134 1.79199C10.6184 1.83785 10.8521 2.08106 11.0607 2.29018C11.0779 2.3071 11.0951 2.32402 11.1129 2.34146C11.5804 2.83557 11.6502 3.51249 11.6336 4.15838C11.2582 4.11348 10.9344 3.80909 10.6956 3.53516C10.3448 3.089 10.2029 2.55341 10.2636 1.99127C10.277 1.92321 10.294 1.85866 10.3134 1.79199Z" fill="#FFCA28"/>
<path d="M10.3134 1.79199C10.6184 1.83785 10.8521 2.08106 11.0607 2.29018C11.0779 2.3071 11.0951 2.32402 11.1129 2.34146C11.5804 2.83557 11.6502 3.51249 11.6336 4.15838C11.2582 4.11348 10.9344 3.80909 10.6956 3.53516C10.3448 3.089 10.2029 2.55341 10.2636 1.99127C10.277 1.92321 10.294 1.85866 10.3134 1.79199Z" fill="url(#paint21_linear_2001_90)"/>
<path d="M13.7253 8.21946C13.7477 8.68782 13.5821 9.06337 13.2769 9.41511C13.2609 9.43595 13.2448 9.45679 13.2283 9.47826C12.9147 9.85588 12.3995 10.0593 11.9318 10.1624C11.8989 10.1624 11.8661 10.1624 11.8322 10.1624C11.8248 9.69576 12.0899 9.22617 12.4014 8.89717C12.4279 8.86996 12.4279 8.86996 12.4549 8.84219C12.4695 8.82636 12.4841 8.81053 12.4991 8.79422C12.7955 8.48039 13.2836 8.20283 13.7253 8.21946Z" fill="#FFCA28"/>
<path d="M13.7253 8.21946C13.7477 8.68782 13.5821 9.06337 13.2769 9.41511C13.2609 9.43595 13.2448 9.45679 13.2283 9.47826C12.9147 9.85588 12.3995 10.0593 11.9318 10.1624C11.8989 10.1624 11.8661 10.1624 11.8322 10.1624C11.8248 9.69576 12.0899 9.22617 12.4014 8.89717C12.4279 8.86996 12.4279 8.86996 12.4549 8.84219C12.4695 8.82636 12.4841 8.81053 12.4991 8.79422C12.7955 8.48039 13.2836 8.20283 13.7253 8.21946Z" fill="url(#paint22_linear_2001_90)"/>
<path d="M13.401 4.33301C13.4125 4.71298 13.4089 5.06293 13.3014 5.42902C13.2906 5.46895 13.2906 5.46895 13.2796 5.50968C13.1598 5.91363 12.9172 6.32311 12.5541 6.54994C12.5365 6.56169 12.5189 6.57344 12.5007 6.58555C12.3613 6.67199 12.2431 6.68803 12.0808 6.69939C12.079 6.60245 12.0776 6.50551 12.0767 6.40855C12.0762 6.35978 12.0752 6.31102 12.0743 6.26226C12.0701 5.71231 12.2892 5.19173 12.6538 4.78138C12.6678 4.76555 12.6819 4.74972 12.6964 4.73341C12.8717 4.54776 13.1334 4.33301 13.401 4.33301Z" fill="#FFCA28"/>
<path d="M13.401 4.33301C13.4125 4.71298 13.4089 5.06293 13.3014 5.42902C13.2906 5.46895 13.2906 5.46895 13.2796 5.50968C13.1598 5.91363 12.9172 6.32311 12.5541 6.54994C12.5365 6.56169 12.5189 6.57344 12.5007 6.58555C12.3613 6.67199 12.2431 6.68803 12.0808 6.69939C12.079 6.60245 12.0776 6.50551 12.0767 6.40855C12.0762 6.35978 12.0752 6.31102 12.0743 6.26226C12.0701 5.71231 12.2892 5.19173 12.6538 4.78138C12.6678 4.76555 12.6819 4.74972 12.6964 4.73341C12.8717 4.54776 13.1334 4.33301 13.401 4.33301Z" fill="url(#paint23_linear_2001_90)"/>
<path d="M12.0307 13.251C12.2283 13.6054 12.262 14.0048 12.1614 14.3952C12.1435 14.4541 12.1248 14.5128 12.1054 14.5712C12.0946 14.6063 12.0946 14.6063 12.0836 14.6421C11.9433 15.0673 11.6853 15.4394 11.3581 15.7419C11.2746 15.6479 11.2321 15.5616 11.1915 15.443C11.1812 15.4132 11.1708 15.3834 11.1601 15.3527C11.0594 15.0292 11.0667 14.6144 11.1837 14.2972C11.1937 14.2693 11.1937 14.2693 11.2039 14.2409C11.3286 13.9316 11.5257 13.685 11.7567 13.4503C11.7789 13.4269 11.8012 13.4035 11.8241 13.3794C11.8812 13.3257 11.8812 13.3257 11.931 13.3257C11.931 13.3093 11.931 13.2928 11.931 13.2759C11.9808 13.251 11.9808 13.251 12.0307 13.251Z" fill="#FFCA28"/>
<path d="M12.0307 13.251C12.2283 13.6054 12.262 14.0048 12.1614 14.3952C12.1435 14.4541 12.1248 14.5128 12.1054 14.5712C12.0946 14.6063 12.0946 14.6063 12.0836 14.6421C11.9433 15.0673 11.6853 15.4394 11.3581 15.7419C11.2746 15.6479 11.2321 15.5616 11.1915 15.443C11.1812 15.4132 11.1708 15.3834 11.1601 15.3527C11.0594 15.0292 11.0667 14.6144 11.1837 14.2972C11.1937 14.2693 11.1937 14.2693 11.2039 14.2409C11.3286 13.9316 11.5257 13.685 11.7567 13.4503C11.7789 13.4269 11.8012 13.4035 11.8241 13.3794C11.8812 13.3257 11.8812 13.3257 11.931 13.3257C11.931 13.3093 11.931 13.2928 11.931 13.2759C11.9808 13.251 11.9808 13.251 12.0307 13.251Z" fill="url(#paint24_linear_2001_90)"/>
<path d="M9.96421 13.1016C10.0816 13.1386 10.0816 13.1386 10.1177 13.2031C10.1246 13.2189 10.1315 13.2347 10.1386 13.251C9.69159 13.8901 9.13166 14.4752 8.39492 14.7705C8.36821 14.7828 8.34149 14.7951 8.31397 14.8078C7.89014 14.9851 7.45463 15.0312 7 15.0196C7 14.8634 7 14.7072 7 14.5463C7.04932 14.5448 7.09864 14.5432 7.14946 14.5416C7.74276 14.4959 8.23374 14.1501 8.69383 13.799C8.69383 13.9792 8.45573 14.1646 8.33109 14.2894C8.29437 14.3254 8.25757 14.3612 8.22056 14.3968C8.29511 14.3968 8.32988 14.3865 8.39735 14.3585C8.41719 14.3503 8.43704 14.3421 8.45748 14.3336C8.47845 14.3247 8.49942 14.3157 8.52102 14.3065C8.54249 14.2974 8.56396 14.2883 8.58608 14.2789C9.12307 14.0463 9.54423 13.6661 9.88948 13.2012C9.91178 13.1715 9.91178 13.1715 9.93453 13.1412C9.94432 13.1281 9.95412 13.115 9.96421 13.1016Z" fill="#E2A610"/>
<path d="M9.54034 10.834C9.565 10.834 9.58966 10.834 9.61507 10.834C9.61507 10.8504 9.61507 10.8669 9.61507 10.8838C9.63331 10.8897 9.65154 10.8956 9.67034 10.9016C9.86155 10.99 10.0093 11.2158 10.0883 11.4069C10.1262 11.5221 10.1582 11.6381 10.188 11.7556C10.2014 11.8027 10.2014 11.8027 10.2151 11.8507C10.2439 11.9673 10.2474 12.0812 10.2471 12.2009C10.2471 12.2347 10.2471 12.2347 10.2471 12.2692C10.2443 12.4277 10.2264 12.5785 10.1927 12.7333C10.1885 12.7525 10.1844 12.7716 10.1802 12.7913C10.1673 12.8442 10.1673 12.8442 10.1382 12.9264C10.0634 12.9513 10.0634 12.9513 10.015 12.9306C9.77101 12.7715 9.59989 12.5473 9.49052 12.2787C9.48076 12.2568 9.471 12.2348 9.46094 12.2122C9.29598 11.7792 9.36525 11.2528 9.54034 10.834Z" fill="#FFCA28"/>
<path d="M9.54034 10.834C9.565 10.834 9.58966 10.834 9.61507 10.834C9.61507 10.8504 9.61507 10.8669 9.61507 10.8838C9.63331 10.8897 9.65154 10.8956 9.67034 10.9016C9.86155 10.99 10.0093 11.2158 10.0883 11.4069C10.1262 11.5221 10.1582 11.6381 10.188 11.7556C10.2014 11.8027 10.2014 11.8027 10.2151 11.8507C10.2439 11.9673 10.2474 12.0812 10.2471 12.2009C10.2471 12.2347 10.2471 12.2347 10.2471 12.2692C10.2443 12.4277 10.2264 12.5785 10.1927 12.7333C10.1885 12.7525 10.1844 12.7716 10.1802 12.7913C10.1673 12.8442 10.1673 12.8442 10.1382 12.9264C10.0634 12.9513 10.0634 12.9513 10.015 12.9306C9.77101 12.7715 9.59989 12.5473 9.49052 12.2787C9.48076 12.2568 9.471 12.2348 9.46094 12.2122C9.29598 11.7792 9.36525 11.2528 9.54034 10.834Z" fill="url(#paint25_linear_2001_90)"/>
<defs>
<linearGradient id="paint0_linear_2001_90" x1="18.8875" y1="3.15216" x2="21.2631" y2="4.17458" gradientUnits="userSpaceOnUse">
<stop stop-color="#FFC181"/>
<stop offset="1" stop-color="#EFC334"/>
</linearGradient>
<linearGradient id="paint1_linear_2001_90" x1="15.4387" y1="8.51128" x2="17.227" y2="9.05836" gradientUnits="userSpaceOnUse">
<stop stop-color="#FFC181"/>
<stop offset="1" stop-color="#EFC334"/>
</linearGradient>
<linearGradient id="paint2_linear_2001_90" x1="16.4857" y1="6.51909" x2="18.2744" y2="7.06651" gradientUnits="userSpaceOnUse">
<stop stop-color="#FFC181"/>
<stop offset="1" stop-color="#EFC334"/>
</linearGradient>
<linearGradient id="paint3_linear_2001_90" x1="11.8815" y1="15.4739" x2="12.826" y2="17.4584" gradientUnits="userSpaceOnUse">
<stop stop-color="#FFC181"/>
<stop offset="1" stop-color="#EFC334"/>
</linearGradient>
<linearGradient id="paint4_linear_2001_90" x1="12.538" y1="11.8296" x2="14.5258" y2="12.5519" gradientUnits="userSpaceOnUse">
<stop stop-color="#FFC181"/>
<stop offset="1" stop-color="#EFC334"/>
</linearGradient>
<linearGradient id="paint5_linear_2001_90" x1="14.161" y1="10.3077" x2="16.0376" y2="10.9286" gradientUnits="userSpaceOnUse">
<stop stop-color="#FFC181"/>
<stop offset="1" stop-color="#EFC334"/>
</linearGradient>
<linearGradient id="paint6_linear_2001_90" x1="13.4518" y1="14.3276" x2="14.3654" y2="16.2866" gradientUnits="userSpaceOnUse">
<stop stop-color="#FFC181"/>
<stop offset="1" stop-color="#EFC334"/>
</linearGradient>
<linearGradient id="paint7_linear_2001_90" x1="17.1966" y1="8.62456" x2="18.9978" y2="10.7981" gradientUnits="userSpaceOnUse">
<stop stop-color="#FFC181"/>
<stop offset="1" stop-color="#EFC334"/>
</linearGradient>
<linearGradient id="paint8_linear_2001_90" x1="15.0126" y1="12.6754" x2="16.1238" y2="14.7412" gradientUnits="userSpaceOnUse">
<stop stop-color="#FFC181"/>
<stop offset="1" stop-color="#EFC334"/>
</linearGradient>
<linearGradient id="paint9_linear_2001_90" x1="17.9933" y1="6.41153" x2="20.1967" y2="8.17936" gradientUnits="userSpaceOnUse">
<stop stop-color="#FFC181"/>
<stop offset="1" stop-color="#EFC334"/>
</linearGradient>
<linearGradient id="paint10_linear_2001_90" x1="17.4169" y1="4.2271" x2="19.1746" y2="4.7538" gradientUnits="userSpaceOnUse">
<stop stop-color="#FFC181"/>
<stop offset="1" stop-color="#EFC334"/>
</linearGradient>
<linearGradient id="paint11_linear_2001_90" x1="16.3132" y1="10.5941" x2="17.8316" y2="12.7625" gradientUnits="userSpaceOnUse">
<stop stop-color="#FFC181"/>
<stop offset="1" stop-color="#EFC334"/>
</linearGradient>
<linearGradient id="paint12_linear_2001_90" x1="11.3329" y1="-0.146959" x2="12.9958" y2="0.356829" gradientUnits="userSpaceOnUse">
<stop stop-color="#FFC181"/>
<stop offset="1" stop-color="#EFC334"/>
</linearGradient>
<linearGradient id="paint13_linear_2001_90" x1="10.5881" y1="7.39618" x2="12.2629" y2="8.01623" gradientUnits="userSpaceOnUse">
<stop stop-color="#FFC181"/>
<stop offset="1" stop-color="#EFC334"/>
</linearGradient>
<linearGradient id="paint14_linear_2001_90" x1="10.6437" y1="3.746" x2="12.5084" y2="4.66767" gradientUnits="userSpaceOnUse">
<stop stop-color="#FFC181"/>
<stop offset="1" stop-color="#EFC334"/>
</linearGradient>
<linearGradient id="paint15_linear_2001_90" x1="10.622" y1="11.8278" x2="11.7674" y2="13.6418" gradientUnits="userSpaceOnUse">
<stop stop-color="#FFC181"/>
<stop offset="1" stop-color="#EFC334"/>
</linearGradient>
<linearGradient id="paint16_linear_2001_90" x1="11.4849" y1="10.0749" x2="13.234" y2="11.7799" gradientUnits="userSpaceOnUse">
<stop stop-color="#FFC181"/>
<stop offset="1" stop-color="#EFC334"/>
</linearGradient>
<linearGradient id="paint17_linear_2001_90" x1="10.0481" y1="9.13691" x2="11.6272" y2="9.66573" gradientUnits="userSpaceOnUse">
<stop stop-color="#FFC181"/>
<stop offset="1" stop-color="#EFC334"/>
</linearGradient>
<linearGradient id="paint18_linear_2001_90" x1="10.6945" y1="5.6896" x2="12.5512" y2="6.61712" gradientUnits="userSpaceOnUse">
<stop stop-color="#FFC181"/>
<stop offset="1" stop-color="#EFC334"/>
</linearGradient>
<linearGradient id="paint19_linear_2001_90" x1="11.9159" y1="2.39133" x2="13.5386" y2="2.9739" gradientUnits="userSpaceOnUse">
<stop stop-color="#FFC181"/>
<stop offset="1" stop-color="#EFC334"/>
</linearGradient>
<linearGradient id="paint20_linear_2001_90" x1="12.2789" y1="6.04305" x2="14.2022" y2="7.15107" gradientUnits="userSpaceOnUse">
<stop stop-color="#FFC181"/>
<stop offset="1" stop-color="#EFC334"/>
</linearGradient>
<linearGradient id="paint21_linear_2001_90" x1="10.3822" y1="1.67642" x2="12.2233" y2="2.55264" gradientUnits="userSpaceOnUse">
<stop stop-color="#FFC181"/>
<stop offset="1" stop-color="#EFC334"/>
</linearGradient>
<linearGradient id="paint22_linear_2001_90" x1="12.0129" y1="8.12383" x2="13.9097" y2="9.62709" gradientUnits="userSpaceOnUse">
<stop stop-color="#FFC181"/>
<stop offset="1" stop-color="#EFC334"/>
</linearGradient>
<linearGradient id="paint23_linear_2001_90" x1="12.2012" y1="4.21744" x2="13.9954" y2="5.03774" gradientUnits="userSpaceOnUse">
<stop stop-color="#FFC181"/>
<stop offset="1" stop-color="#EFC334"/>
</linearGradient>
<linearGradient id="paint24_linear_2001_90" x1="11.1973" y1="13.1293" x2="12.8146" y2="13.7238" gradientUnits="userSpaceOnUse">
<stop stop-color="#FFC181"/>
<stop offset="1" stop-color="#EFC334"/>
</linearGradient>
<linearGradient id="paint25_linear_2001_90" x1="9.45115" y1="10.7309" x2="10.7374" y2="11.1665" gradientUnits="userSpaceOnUse">
<stop stop-color="#FFC181"/>
<stop offset="1" stop-color="#EFC334"/>
</linearGradient>
</defs>
</svg>
